SplineFontDB: 3.2
FontName: notogurmukhi
FullName: notogurmukhi
FamilyName: notogurmukhi
Weight: Book
Copyright: Copyright 2022 The Noto Project Authors (https://github.com/notofonts/gurmukhi)
Version: 2.004
ItalicAngle: 0
UnderlinePosition: -125
UnderlineWidth: 50
Ascent: 800
Descent: 200
InvalidEm: 0
sfntRevision: 0x00020106
LayerCount: 2
Layer: 0 1 "Back" 1
Layer: 1 1 "Fore" 0
XUID: [1021 238 -758118090 16723490]
StyleMap: 0x0040
FSType: 0
OS2Version: 4
OS2_WeightWidthSlopeOnly: 0
OS2_UseTypoMetrics: 1
CreationTime: 1550733484
ModificationTime: 1743518677
PfmFamily: 81
TTFWeight: 400
TTFWidth: 5
LineGap: 0
VLineGap: 0
Panose: 0 0 0 0 0 0 0 0 0 0
OS2TypoAscent: 896
OS2TypoAOffset: 0
OS2TypoDescent: -408
OS2TypoDOffset: 0
OS2TypoLinegap: 0
OS2WinAscent: 896
OS2WinAOffset: 0
OS2WinDescent: 408
OS2WinDOffset: 0
HheadAscent: 896
HheadAOffset: 0
HheadDescent: -408
HheadDOffset: 0
OS2SubXSize: 650
OS2SubYSize: 600
OS2SubXOff: 0
OS2SubYOff: 75
OS2SupXSize: 650
OS2SupYSize: 600
OS2SupXOff: 0
OS2SupYOff: 350
OS2StrikeYSize: 50
OS2StrikeYPos: 373
OS2CapHeight: 622
OS2XHeight: 622
OS2Vendor: 'GOOG'
OS2CodePages: 00000093.00000000
OS2UnicodeRanges: 80028003.00006042.00000000.00000000
Lookup: 2 0 0 "Multiple Substitution lookup 0" { "Multiple Substitution lookup 0 subtable"  } []
Lookup: 2 0 0 "Multiple Substitution lookup 1" { "Multiple Substitution lookup 1 subtable"  } []
Lookup: 4 0 0 "'nukt' Nukta Forms in Gurmukhi2 lookup 2" { "'nukt' Nukta Forms in Gurmukhi2 lookup 2 subtable"  } ['nukt' ('gur2' <'dflt' > ) ]
Lookup: 4 0 0 "'blwf' Below Base Forms in Gurmukhi2 lookup 3" { "'blwf' Below Base Forms in Gurmukhi2 lookup 3 subtable"  } ['blwf' ('gur2' <'dflt' > ) ]
Lookup: 4 0 0 "'pstf' Post Base Forms in Gurmukhi2 lookup 4" { "'pstf' Post Base Forms in Gurmukhi2 lookup 4 subtable"  } ['pstf' ('gur2' <'dflt' > ) ]

StartChar: .notdef
Encoding: 65536 -1 0
Width: 600
Flags: W
LayerCount: 2
Fore
SplineSet
94 0 m 1,0,-1
 94 714 l 1,1,-1
 505 714 l 1,2,-1
 505 0 l 1,3,-1
 94 0 l 1,0,-1
145 51 m 1,4,-1
 454 51 l 1,5,-1
 454 663 l 1,6,-1
 145 663 l 1,7,-1
 145 51 l 1,4,-1
EndSplineSet
EndChar

StartChar: adakbindiguru
Encoding: 2561 2561 4
Width: 0
GlyphClass: 4
Flags: W
AnchorPoint: "Anchor-4" -89 622 mark 0
AnchorPoint: "Anchor-0" -89 622 mark 0
LayerCount: 2
Fore
SplineSet
-129 671 m 256,0,1
 -189 671 -189 671 -229 695.5 c 128,-1,2
 -269 720 -269 720 -290 762.5 c 128,-1,3
 -311 805 -311 805 -316 858 c 1,4,-1
 -244 868 l 1,5,6
 -236 800 -236 800 -208.5 769 c 128,-1,7
 -181 738 -181 738 -130 738 c 0,8,9
 -78 738 -78 738 -50 769.5 c 128,-1,10
 -22 801 -22 801 -16 868 c 1,11,-1
 57 858 l 1,12,13
 51 806 51 806 30 763.5 c 128,-1,14
 9 721 9 721 -30 696 c 128,-1,15
 -69 671 -69 671 -129 671 c 256,0,1
-130 788 m 0,16,17
 -152 788 -152 788 -167 802.5 c 128,-1,18
 -182 817 -182 817 -182 842 c 0,19,20
 -182 868 -182 868 -167 882 c 128,-1,21
 -152 896 -152 896 -130 896 c 256,22,23
 -108 896 -108 896 -93 882 c 128,-1,24
 -78 868 -78 868 -78 842 c 0,25,26
 -78 817 -78 817 -92.5 802.5 c 128,-1,27
 -107 788 -107 788 -130 788 c 0,16,17
EndSplineSet
EndChar

StartChar: bindiguru
Encoding: 2562 2562 5
Width: 0
GlyphClass: 4
Flags: W
AnchorPoint: "Anchor-4" -90 622 mark 0
AnchorPoint: "Anchor-0" -90 622 mark 0
LayerCount: 2
Fore
SplineSet
-130 721 m 0,0,1
 -152 721 -152 721 -168.5 736 c 128,-1,2
 -185 751 -185 751 -185 778 c 256,3,4
 -185 805 -185 805 -168.5 820 c 128,-1,5
 -152 835 -152 835 -130 835 c 0,6,7
 -107 835 -107 835 -91 820 c 128,-1,8
 -75 805 -75 805 -75 778 c 256,9,10
 -75 751 -75 751 -90.5 736 c 128,-1,11
 -106 721 -106 721 -130 721 c 0,0,1
EndSplineSet
Position2: "Single Positioning lookup 3 per glyph data 0" dx=-150 dy=0 dh=0 dv=0
EndChar

StartChar: visargaguru
Encoding: 2563 2563 6
Width: 405
GlyphClass: 4
Flags: W
LayerCount: 2
Fore
SplineSet
203 362 m 256,0,1
 139 362 139 362 100.5 396.5 c 128,-1,2
 62 431 62 431 62 492 c 0,3,4
 62 550 62 550 100.5 586 c 128,-1,5
 139 622 139 622 203 622 c 256,6,7
 267 622 267 622 305.5 587 c 128,-1,8
 344 552 344 552 344 492 c 0,9,10
 344 431 344 431 305.5 396.5 c 128,-1,11
 267 362 267 362 203 362 c 256,0,1
203 425 m 0,12,13
 236 425 236 425 254 444.5 c 128,-1,14
 272 464 272 464 272 492 c 0,15,16
 272 521 272 521 254 540 c 128,-1,17
 236 559 236 559 203 559 c 0,18,19
 169 559 169 559 151.5 540 c 128,-1,20
 134 521 134 521 134 492 c 256,21,22
 134 463 134 463 151.5 444 c 128,-1,23
 169 425 169 425 203 425 c 0,12,13
203 0 m 256,24,25
 139 0 139 0 100.5 35 c 128,-1,26
 62 70 62 70 62 130 c 0,27,28
 62 189 62 189 100.5 224.5 c 128,-1,29
 139 260 139 260 203 260 c 0,30,31
 246 260 246 260 277.5 244.5 c 128,-1,32
 309 229 309 229 326.5 200 c 128,-1,33
 344 171 344 171 344 130 c 0,34,35
 344 69 344 69 305.5 34.5 c 128,-1,36
 267 0 267 0 203 0 c 256,24,25
203 63 m 0,37,38
 236 63 236 63 254 82.5 c 128,-1,39
 272 102 272 102 272 130 c 0,40,41
 272 159 272 159 254 178 c 128,-1,42
 236 197 236 197 203 197 c 0,43,44
 169 197 169 197 151.5 178 c 128,-1,45
 134 159 134 159 134 130 c 0,46,47
 134 102 134 102 151.5 82.5 c 128,-1,48
 169 63 169 63 203 63 c 0,37,38
EndSplineSet
EndChar

StartChar: aguru
Encoding: 2565 2565 7
Width: 742
GlyphClass: 2
Flags: W
AnchorPoint: "Anchor-1" 294 0 basechar 0
LayerCount: 2
Fore
SplineSet
572 0 m 1,0,-1
 572 373 l 1,1,-1
 584 356 l 1,2,3
 549 348 549 348 518 336 c 128,-1,4
 487 324 487 324 459.5 308 c 128,-1,5
 432 292 432 292 406 271 c 1,6,-1
 425 305 l 1,7,8
 425 248 425 248 416 203.5 c 128,-1,9
 407 159 407 159 388.5 133.5 c 128,-1,10
 370 108 370 108 341 108 c 0,11,12
 320 108 320 108 306 120.5 c 128,-1,13
 292 133 292 133 292 166 c 0,14,15
 292 204 292 204 310.5 246 c 128,-1,16
 329 288 329 288 356 317 c 1,17,18
 355 348 355 348 349.5 380 c 128,-1,19
 344 412 344 412 335.5 438.5 c 128,-1,20
 327 465 327 465 316 478 c 1,21,-1
 348 473 l 1,22,23
 315 463 315 463 281 447 c 128,-1,24
 247 431 247 431 219.5 413 c 128,-1,25
 192 395 192 395 175 379 c 1,26,-1
 189 422 l 1,27,28
 189 360 189 360 180.5 312.5 c 128,-1,29
 172 265 172 265 153.5 238.5 c 128,-1,30
 135 212 135 212 104 212 c 0,31,32
 83 212 83 212 69.5 224.5 c 128,-1,33
 56 237 56 237 56 271 c 0,34,35
 56 308 56 308 74 349.5 c 128,-1,36
 92 391 92 391 118 419 c 1,37,38
 115 482 115 482 101.5 516 c 128,-1,39
 88 550 88 550 77 558 c 1,40,-1
 120 551 l 1,41,-1
 -7 551 l 1,42,-1
 -7 622 l 1,43,-1
 144 622 l 1,44,45
 154 602 154 602 163.5 572 c 128,-1,46
 173 542 173 542 179.5 509 c 128,-1,47
 186 476 186 476 186 445 c 1,48,-1
 173 456 l 1,49,50
 185 471 185 471 216.5 490.5 c 128,-1,51
 248 510 248 510 290 527.5 c 128,-1,52
 332 545 332 545 374 554 c 1,53,54
 384 537 384 537 393 510.5 c 128,-1,55
 402 484 402 484 409 453.5 c 128,-1,56
 416 423 416 423 420 393 c 128,-1,57
 424 363 424 363 424 339 c 1,58,-1
 407 353 l 1,59,60
 425 368 425 368 452 383 c 128,-1,61
 479 398 479 398 513 411.5 c 128,-1,62
 547 425 547 425 584 433 c 1,63,-1
 572 405 l 1,64,-1
 572 622 l 1,65,-1
 749 622 l 1,66,-1
 749 551 l 1,67,-1
 653 551 l 1,68,-1
 653 0 l 1,69,-1
 572 0 l 1,0,-1
EndSplineSet
EndChar

StartChar: aaguru
Encoding: 2566 2566 8
Width: 977
GlyphClass: 2
Flags: W
AnchorPoint: "Anchor-1" 294 0 basechar 0
AnchorPoint: "Anchor-0" 896 622 basechar 0
LayerCount: 2
Fore
SplineSet
815 261 m 1,0,-1
 815 551 l 1,1,-1
 735 551 l 1,2,-1
 735 622 l 1,3,-1
 984 622 l 1,4,-1
 984 551 l 1,5,-1
 896 551 l 1,6,-1
 896 261 l 1,7,-1
 815 261 l 1,0,-1
572 0 m 1,8,-1
 572 373 l 1,9,-1
 584 356 l 1,10,11
 549 348 549 348 518 336 c 128,-1,12
 487 324 487 324 459.5 308 c 128,-1,13
 432 292 432 292 406 271 c 1,14,-1
 425 305 l 1,15,16
 425 248 425 248 416 203.5 c 128,-1,17
 407 159 407 159 388.5 133.5 c 128,-1,18
 370 108 370 108 341 108 c 0,19,20
 320 108 320 108 306 120.5 c 128,-1,21
 292 133 292 133 292 166 c 0,22,23
 292 204 292 204 310.5 246 c 128,-1,24
 329 288 329 288 356 317 c 1,25,26
 355 348 355 348 349.5 380 c 128,-1,27
 344 412 344 412 335.5 438.5 c 128,-1,28
 327 465 327 465 316 478 c 1,29,-1
 348 473 l 1,30,31
 315 463 315 463 281 447 c 128,-1,32
 247 431 247 431 219.5 413 c 128,-1,33
 192 395 192 395 175 379 c 1,34,-1
 189 422 l 1,35,36
 189 360 189 360 180.5 312.5 c 128,-1,37
 172 265 172 265 153.5 238.5 c 128,-1,38
 135 212 135 212 104 212 c 0,39,40
 83 212 83 212 69.5 224.5 c 128,-1,41
 56 237 56 237 56 271 c 0,42,43
 56 308 56 308 74 349.5 c 128,-1,44
 92 391 92 391 118 419 c 1,45,46
 115 482 115 482 101.5 516 c 128,-1,47
 88 550 88 550 77 558 c 1,48,-1
 120 551 l 1,49,-1
 -7 551 l 1,50,-1
 -7 622 l 1,51,-1
 144 622 l 1,52,53
 154 602 154 602 163.5 572 c 128,-1,54
 173 542 173 542 179.5 509 c 128,-1,55
 186 476 186 476 186 445 c 1,56,-1
 173 456 l 1,57,58
 185 471 185 471 216.5 490.5 c 128,-1,59
 248 510 248 510 290 527.5 c 128,-1,60
 332 545 332 545 374 554 c 1,61,62
 384 537 384 537 393 510.5 c 128,-1,63
 402 484 402 484 409 453.5 c 128,-1,64
 416 423 416 423 420 393 c 128,-1,65
 424 363 424 363 424 339 c 1,66,-1
 407 353 l 1,67,68
 425 368 425 368 452 383 c 128,-1,69
 479 398 479 398 513 411.5 c 128,-1,70
 547 425 547 425 584 433 c 1,71,-1
 572 405 l 1,72,-1
 572 622 l 1,73,-1
 749 622 l 1,74,-1
 749 551 l 1,75,-1
 653 551 l 1,76,-1
 653 0 l 1,77,-1
 572 0 l 1,8,-1
EndSplineSet
EndChar

StartChar: ooguru
Encoding: 2579 2579 15
Width: 662
GlyphClass: 2
Flags: W
AnchorPoint: "Anchor-1" 336 0 basechar 0
LayerCount: 2
Fore
SplineSet
359 0 m 0,0,1
 270 0 270 0 204 44 c 128,-1,2
 138 88 138 88 102 181 c 128,-1,3
 66 274 66 274 66 421 c 0,4,5
 66 520 66 520 80.5 592.5 c 128,-1,6
 95 665 95 665 125.5 714.5 c 128,-1,7
 156 764 156 764 204 794 c 0,8,9
 235 814 235 814 271 824.5 c 128,-1,10
 307 835 307 835 352 839 c 128,-1,11
 397 843 397 843 454 843 c 2,12,-1
 607 843 l 1,13,-1
 603 772 l 1,14,-1
 463 772 l 2,15,16
 407 772 407 772 367.5 768.5 c 128,-1,17
 328 765 328 765 300.5 757.5 c 128,-1,18
 273 750 273 750 252 737 c 0,19,20
 216 715 216 715 193 674.5 c 128,-1,21
 170 634 170 634 159 572.5 c 128,-1,22
 148 511 148 511 148 424 c 0,23,24
 148 315 148 315 165.5 246 c 128,-1,25
 183 177 183 177 213 139.5 c 128,-1,26
 243 102 243 102 280 87.5 c 128,-1,27
 317 73 317 73 355 73 c 0,28,29
 421 73 421 73 451 98.5 c 128,-1,30
 481 124 481 124 481 176 c 0,31,32
 481 204 481 204 470 226 c 128,-1,33
 459 248 459 248 437 261 c 0,34,35
 421 271 421 271 402.5 277.5 c 128,-1,36
 384 284 384 284 352.5 287.5 c 128,-1,37
 321 291 321 291 265 291 c 2,38,-1
 130 291 l 1,39,-1
 120 362 l 1,40,-1
 281 362 l 2,41,42
 332 362 332 362 366.5 365 c 128,-1,43
 401 368 401 368 425.5 374.5 c 128,-1,44
 450 381 450 381 469 391 c 0,45,46
 513 415 513 415 530.5 457 c 128,-1,47
 548 499 548 499 548 563 c 2,48,-1
 548 574 l 1,49,-1
 629 591 l 1,50,-1
 629 577 l 2,51,52
 629 486 629 486 600.5 429.5 c 128,-1,53
 572 373 572 373 524 345 c 128,-1,54
 476 317 476 317 418 309 c 1,55,-1
 431 331 l 1,56,57
 482 318 482 318 510.5 292 c 128,-1,58
 539 266 539 266 551 235 c 128,-1,59
 563 204 563 204 563 175 c 0,60,61
 563 120 563 120 540.5 81 c 128,-1,62
 518 42 518 42 472.5 21 c 128,-1,63
 427 0 427 0 359 0 c 0,0,1
-7 551 m 1,64,-1
 -7 622 l 1,65,-1
 679 622 l 1,66,-1
 679 551 l 1,67,-1
 -7 551 l 1,64,-1
EndSplineSet
EndChar

StartChar: kaguru
Encoding: 2581 2581 17
Width: 622
GlyphClass: 2
Flags: W
AnchorPoint: "Anchor-3" 488 0 basechar 0
AnchorPoint: "Anchor-2" 655 0 basechar 0
AnchorPoint: "Anchor-0" 513 622 basechar 0
LayerCount: 2
Fore
SplineSet
488 0 m 1,0,1
 483 68 483 68 470 126 c 128,-1,2
 457 184 457 184 435 230 c 2,3,-1
 425 254 l 1,4,5
 391 309 391 309 344 339.5 c 128,-1,6
 297 370 297 370 237 370 c 0,7,8
 185 370 185 370 151 344.5 c 128,-1,9
 117 319 117 319 117 267 c 0,10,11
 117 217 117 217 149 191.5 c 128,-1,12
 181 166 181 166 230 166 c 0,13,14
 304 166 304 166 350.5 202 c 128,-1,15
 397 238 397 238 423 286 c 1,16,-1
 430 312 l 1,17,18
 445 347 445 347 450 386 c 128,-1,19
 455 425 455 425 455 458 c 0,20,21
 455 478 455 478 452 505 c 128,-1,22
 449 532 449 532 445 551 c 1,23,-1
 -7 551 l 1,24,-1
 -7 622 l 1,25,-1
 629 622 l 1,26,-1
 629 551 l 1,27,-1
 526 551 l 1,28,29
 529 536 529 536 532 507.5 c 128,-1,30
 535 479 535 479 535 458 c 0,31,32
 535 403 535 403 521.5 347 c 128,-1,33
 508 291 508 291 475 243 c 2,34,-1
 462 221 l 2,35,36
 425 165 425 165 367 129.5 c 128,-1,37
 309 94 309 94 229 94 c 0,38,39
 170 94 170 94 126 115 c 128,-1,40
 82 136 82 136 58.5 175 c 128,-1,41
 35 214 35 214 35 268 c 0,42,43
 35 324 35 324 61.5 362.5 c 128,-1,44
 88 401 88 401 132 421 c 128,-1,45
 176 441 176 441 230 441 c 0,46,47
 307 441 307 441 362 411.5 c 128,-1,48
 417 382 417 382 458 326 c 2,49,-1
 471 309 l 2,50,51
 503 266 503 266 522.5 213.5 c 128,-1,52
 542 161 542 161 553 106 c 128,-1,53
 564 51 564 51 569 0 c 1,54,-1
 488 0 l 1,0,1
EndSplineSet
EndChar

StartChar: khaguru
Encoding: 2582 2582 18
Width: 598
GlyphClass: 2
Flags: W
AnchorPoint: "Anchor-2" 598 0 basechar 0
LayerCount: 2
Fore
SplineSet
428 0 m 1,0,-1
 428 180 l 1,1,-1
 429 165 l 1,2,3
 395 149 395 149 361 140.5 c 128,-1,4
 327 132 327 132 284 132 c 0,5,6
 196 132 196 132 136 186.5 c 128,-1,7
 76 241 76 241 38 333 c 1,8,9
 68 359 68 359 88 389 c 128,-1,10
 108 419 108 419 108 459 c 0,11,12
 108 481 108 481 101.5 506.5 c 128,-1,13
 95 532 95 532 84 551 c 1,14,-1
 -7 551 l 1,15,-1
 -7 622 l 1,16,-1
 142 622 l 1,17,18
 164 582 164 582 176 539.5 c 128,-1,19
 188 497 188 497 188 460 c 0,20,21
 188 407 188 407 167.5 371.5 c 128,-1,22
 147 336 147 336 114 313 c 1,23,-1
 118 357 l 1,24,25
 150 282 150 282 188 244 c 128,-1,26
 226 206 226 206 284 206 c 0,27,28
 325 206 325 206 359 217.5 c 128,-1,29
 393 229 393 229 429 251 c 1,30,-1
 428 239 l 1,31,-1
 428 622 l 1,32,-1
 605 622 l 1,33,-1
 605 551 l 1,34,-1
 509 551 l 1,35,-1
 509 0 l 1,36,-1
 428 0 l 1,0,-1
118 385 m 1,37,-1
 118 454 l 1,38,-1
 465 454 l 1,39,-1
 465 385 l 1,40,-1
 118 385 l 1,37,-1
EndSplineSet
EndChar

StartChar: gaguru
Encoding: 2583 2583 19
Width: 750
GlyphClass: 2
Flags: W
AnchorPoint: "Anchor-2" 750 0 basechar 0
LayerCount: 2
Fore
SplineSet
275 0 m 0,0,1
 226 0 226 0 183 22 c 128,-1,2
 140 44 140 44 107 81.5 c 128,-1,3
 74 119 74 119 55.5 165 c 128,-1,4
 37 211 37 211 37 258 c 0,5,6
 37 291 37 291 48.5 317.5 c 128,-1,7
 60 344 60 344 78 362 c 0,8,9
 102 386 102 386 139.5 397 c 128,-1,10
 177 408 177 408 247 408 c 2,11,-1
 351 408 l 1,12,-1
 351 551 l 1,13,-1
 -7 551 l 1,14,-1
 -7 622 l 1,15,-1
 521 622 l 1,16,-1
 521 551 l 1,17,-1
 432 551 l 1,18,-1
 432 170 l 2,19,20
 432 112 432 112 414 74.5 c 128,-1,21
 396 37 396 37 361 18.5 c 128,-1,22
 326 0 326 0 275 0 c 0,0,1
274 73 m 0,23,24
 292 73 292 73 307 77 c 128,-1,25
 322 81 322 81 334 94 c 0,26,27
 342 104 342 104 346.5 120.5 c 128,-1,28
 351 137 351 137 351 176 c 2,29,-1
 351 337 l 1,30,-1
 263 337 l 2,31,32
 202 337 202 337 177 331.5 c 128,-1,33
 152 326 152 326 137 311 c 0,34,35
 127 300 127 300 122.5 285 c 128,-1,36
 118 270 118 270 118 252 c 0,37,38
 118 222 118 222 131 191 c 128,-1,39
 144 160 144 160 166.5 133 c 128,-1,40
 189 106 189 106 216.5 89.5 c 128,-1,41
 244 73 244 73 274 73 c 0,23,24
580 0 m 1,42,-1
 580 551 l 1,43,-1
 485 551 l 1,44,-1
 484 622 l 1,45,-1
 757 622 l 1,46,-1
 757 551 l 1,47,-1
 661 551 l 1,48,-1
 661 0 l 1,49,-1
 580 0 l 1,42,-1
EndSplineSet
EndChar

StartChar: ghaguru
Encoding: 2584 2584 20
Width: 757
GlyphClass: 2
Flags: W
AnchorPoint: "Anchor-2" 757 0 basechar 0
LayerCount: 2
Fore
SplineSet
229 133 m 0,0,1
 177 133 177 133 143 155 c 128,-1,2
 109 177 109 177 85 221.5 c 128,-1,3
 61 266 61 266 38 333 c 1,4,5
 68 359 68 359 88 389 c 128,-1,6
 108 419 108 419 108 459 c 0,7,8
 108 486 108 486 98.5 518 c 128,-1,9
 89 550 89 550 72 568 c 1,10,-1
 120 551 l 1,11,-1
 -7 551 l 1,12,-1
 -7 622 l 1,13,-1
 142 622 l 1,14,15
 164 582 164 582 176 539.5 c 128,-1,16
 188 497 188 497 188 460 c 0,17,18
 188 407 188 407 167 370.5 c 128,-1,19
 146 334 146 334 107 309 c 1,20,-1
 118 362 l 1,21,22
 135 277 135 277 165 241.5 c 128,-1,23
 195 206 195 206 235 206 c 0,24,25
 271 206 271 206 299 232 c 128,-1,26
 327 258 327 258 342 317 c 1,27,28
 335 369 335 369 330.5 417.5 c 128,-1,29
 326 466 326 466 326 509 c 0,30,31
 326 555 326 555 339.5 581.5 c 128,-1,32
 353 608 353 608 381 608 c 0,33,34
 413 608 413 608 424.5 580 c 128,-1,35
 436 552 436 552 436 508 c 0,36,37
 436 468 436 468 430 417.5 c 128,-1,38
 424 367 424 367 415 315 c 1,39,40
 426 276 426 276 442 252 c 128,-1,41
 458 228 458 228 478 217 c 128,-1,42
 498 206 498 206 520 206 c 0,43,44
 545 206 545 206 561 215 c 128,-1,45
 577 224 577 224 589 240 c 1,46,-1
 604 162 l 1,47,48
 587 148 587 148 564.5 140.5 c 128,-1,49
 542 133 542 133 514 133 c 0,50,51
 457 133 457 133 422.5 159.5 c 128,-1,52
 388 186 388 186 371.5 230.5 c 128,-1,53
 355 275 355 275 352 327 c 1,54,-1
 405 315 l 1,55,56
 391 249 391 249 366.5 209 c 128,-1,57
 342 169 342 169 308 151 c 128,-1,58
 274 133 274 133 229 133 c 0,0,1
587 0 m 1,59,-1
 587 622 l 1,60,-1
 764 622 l 1,61,-1
 764 551 l 1,62,-1
 668 551 l 1,63,-1
 668 0 l 1,64,-1
 587 0 l 1,59,-1
EndSplineSet
EndChar

StartChar: ngaguru
Encoding: 2585 2585 21
Width: 579
GlyphClass: 2
Flags: W
AnchorPoint: "Anchor-3" 414 0 basechar 0
AnchorPoint: "Anchor-2" 586 0 basechar 0
LayerCount: 2
Fore
SplineSet
418 -8 m 1,0,1
 405 25 405 25 384.5 62 c 128,-1,2
 364 99 364 99 336 130.5 c 128,-1,3
 308 162 308 162 271.5 182 c 128,-1,4
 235 202 235 202 188 202 c 0,5,6
 156 202 156 202 139.5 191 c 128,-1,7
 123 180 123 180 123 160 c 0,8,9
 123 132 123 132 152.5 119 c 128,-1,10
 182 106 182 106 238 106 c 0,11,12
 282 106 282 106 319 116 c 128,-1,13
 356 126 356 126 384 144 c 0,14,15
 421 167 421 167 441 201.5 c 128,-1,16
 461 236 461 236 461 275 c 0,17,18
 461 293 461 293 455 309 c 128,-1,19
 449 325 449 325 436 335 c 0,20,21
 425 344 425 344 410.5 350 c 128,-1,22
 396 356 396 356 370.5 359 c 128,-1,23
 345 362 345 362 301 362 c 2,24,-1
 119 362 l 1,25,-1
 89 391 l 1,26,-1
 89 551 l 1,27,-1
 -7 551 l 1,28,-1
 -7 622 l 1,29,-1
 586 622 l 1,30,-1
 586 551 l 1,31,-1
 170 551 l 1,32,-1
 170 433 l 1,33,-1
 323 433 l 2,34,35
 394 433 394 433 433.5 421.5 c 128,-1,36
 473 410 473 410 499 386 c 0,37,38
 520 367 520 367 531 340 c 128,-1,39
 542 313 542 313 542 278 c 0,40,41
 542 216 542 216 504.5 161 c 128,-1,42
 467 106 467 106 398.5 71.5 c 128,-1,43
 330 37 330 37 236 37 c 0,44,45
 186 37 186 37 149 46 c 128,-1,46
 112 55 112 55 88.5 71.5 c 128,-1,47
 65 88 65 88 53.5 111.5 c 128,-1,48
 42 135 42 135 42 164 c 0,49,50
 42 208 42 208 78.5 240.5 c 128,-1,51
 115 273 115 273 188 273 c 0,52,53
 245 273 245 273 289 254 c 128,-1,54
 333 235 333 235 367.5 203 c 128,-1,55
 402 171 402 171 429 132 c 0,56,57
 451 101 451 101 467.5 70 c 128,-1,58
 484 39 484 39 496 13 c 1,59,-1
 418 -8 l 1,0,1
EndSplineSet
EndChar

StartChar: caguru
Encoding: 2586 2586 22
Width: 657
GlyphClass: 2
Flags: W
AnchorPoint: "Anchor-3" 438 0 basechar 0
AnchorPoint: "Anchor-2" 604 0 basechar 0
LayerCount: 2
Fore
SplineSet
388 0 m 0,0,1
 323 0 323 0 270.5 27.5 c 128,-1,2
 218 55 218 55 182 96 c 0,3,4
 149 133 149 133 126 188.5 c 128,-1,5
 103 244 103 244 100 302 c 1,6,-1
 112 291 l 1,7,-1
 83 291 l 2,8,9
 55 291 55 291 43.5 302 c 128,-1,10
 32 313 32 313 32 329 c 0,11,12
 32 347 32 347 42.5 366.5 c 128,-1,13
 53 386 53 386 69.5 403.5 c 128,-1,14
 86 421 86 421 104.5 431.5 c 128,-1,15
 123 442 123 442 139 442 c 0,16,17
 163 442 163 442 172.5 425.5 c 128,-1,18
 182 409 182 409 182 387 c 2,19,-1
 182 362 l 1,20,-1
 532 362 l 1,21,-1
 525 291 l 1,22,-1
 160 291 l 1,23,-1
 181 306 l 1,24,25
 183 257 183 257 201 214.5 c 128,-1,26
 219 172 219 172 248.5 140 c 128,-1,27
 278 108 278 108 316 90.5 c 128,-1,28
 354 73 354 73 395 73 c 0,29,30
 418 73 418 73 437 78 c 128,-1,31
 456 83 456 83 468 96 c 0,32,33
 477 107 477 107 482 124.5 c 128,-1,34
 487 142 487 142 487 183 c 2,35,-1
 487 556 l 1,36,-1
 568 556 l 1,37,-1
 568 175 l 2,38,39
 568 116 568 116 549 77 c 128,-1,40
 530 38 530 38 490.5 19 c 128,-1,41
 451 0 451 0 388 0 c 0,0,1
-7 551 m 1,42,-1
 -7 622 l 1,43,-1
 664 622 l 1,44,-1
 664 551 l 1,45,-1
 -7 551 l 1,42,-1
EndSplineSet
EndChar

StartChar: chaguru
Encoding: 2587 2587 23
Width: 634
GlyphClass: 2
Flags: W
AnchorPoint: "Anchor-3" 450 0 basechar 0
AnchorPoint: "Anchor-2" 576 0 basechar 0
AnchorPoint: "Anchor-1" 317 0 basechar 0
AnchorPoint: "Anchor-0" 534 622 basechar 0
LayerCount: 2
Fore
SplineSet
316 0 m 0,0,1
 179 0 179 0 112.5 34 c 128,-1,2
 46 68 46 68 46 144 c 0,3,4
 46 162 46 162 55 183 c 128,-1,5
 64 204 64 204 88 223.5 c 128,-1,6
 112 243 112 243 157 254 c 1,7,-1
 246 218 l 1,8,9
 194 218 194 218 160 201 c 128,-1,10
 126 184 126 184 126 146 c 0,11,12
 126 105 126 105 170 86.5 c 128,-1,13
 214 68 214 68 314 68 c 2,14,-1
 336 68 l 2,15,16
 399 68 399 68 438.5 76 c 128,-1,17
 478 84 478 84 497 101.5 c 128,-1,18
 516 119 516 119 516 147 c 0,19,20
 516 176 516 176 497 191.5 c 128,-1,21
 478 207 478 207 446.5 212.5 c 128,-1,22
 415 218 415 218 379 218 c 2,23,-1
 158 218 l 1,24,-1
 158 229 l 1,25,26
 112 242 112 242 81.5 268.5 c 128,-1,27
 51 295 51 295 51 341 c 0,28,29
 51 365 51 365 61.5 386 c 128,-1,30
 72 407 72 407 88 420 c 0,31,32
 114 442 114 442 148 449.5 c 128,-1,33
 182 457 182 457 243 457 c 2,34,-1
 454 457 l 1,35,-1
 454 551 l 1,36,-1
 -7 551 l 1,37,-1
 -7 622 l 1,38,-1
 642 622 l 1,39,-1
 642 551 l 1,40,-1
 534 551 l 1,41,-1
 534 415 l 1,42,-1
 505 386 l 1,43,-1
 229 386 l 2,44,45
 204 386 204 386 183.5 383.5 c 128,-1,46
 163 381 163 381 151 373 c 0,47,48
 142 368 142 368 137 359.5 c 128,-1,49
 132 351 132 351 132 338 c 0,50,51
 132 306 132 306 160 296.5 c 128,-1,52
 188 287 188 287 230 287 c 2,53,-1
 399 287 l 2,54,55
 456 287 456 287 500.5 272 c 128,-1,56
 545 257 545 257 570.5 226 c 128,-1,57
 596 195 596 195 596 146 c 256,58,59
 596 97 596 97 567 64.5 c 128,-1,60
 538 32 538 32 476.5 16 c 128,-1,61
 415 0 415 0 316 0 c 0,0,1
359 50 m 1,62,-1
 284 50 l 1,63,-1
 284 233 l 1,64,-1
 359 233 l 1,65,-1
 359 50 l 1,62,-1
EndSplineSet
EndChar

StartChar: jaguru
Encoding: 2588 2588 24
Width: 612
GlyphClass: 2
Flags: W
AnchorPoint: "Anchor-2" 612 0 basechar 0
LayerCount: 2
Fore
SplineSet
106 0 m 1,0,-1
 106 291 l 1,1,-1
 88 291 l 2,2,3
 60 291 60 291 48.5 302 c 128,-1,4
 37 313 37 313 37 329 c 0,5,6
 37 347 37 347 47.5 366.5 c 128,-1,7
 58 386 58 386 74.5 403.5 c 128,-1,8
 91 421 91 421 109.5 431.5 c 128,-1,9
 128 442 128 442 144 442 c 0,10,11
 168 442 168 442 177.5 425.5 c 128,-1,12
 187 409 187 409 187 387 c 2,13,-1
 187 362 l 1,14,-1
 442 362 l 1,15,-1
 442 551 l 1,16,-1
 -7 551 l 1,17,-1
 -7 622 l 1,18,-1
 619 622 l 1,19,-1
 619 551 l 1,20,-1
 523 551 l 1,21,-1
 523 0 l 1,22,-1
 442 0 l 1,23,-1
 442 291 l 1,24,-1
 187 291 l 1,25,-1
 187 0 l 1,26,-1
 106 0 l 1,0,-1
EndSplineSet
EndChar

StartChar: jhaguru
Encoding: 2589 2589 25
Width: 594
GlyphClass: 2
Flags: W
AnchorPoint: "Anchor-2" 498 0 basechar 0
AnchorPoint: "Anchor-0" 508 622 basechar 0
LayerCount: 2
Fore
SplineSet
205 74 m 0,0,1
 167 74 167 74 139.5 81 c 128,-1,2
 112 88 112 88 97.5 101.5 c 128,-1,3
 83 115 83 115 83 134 c 0,4,5
 83 155 83 155 101.5 168 c 128,-1,6
 120 181 120 181 160 181 c 0,7,8
 203 181 203 181 233.5 171.5 c 128,-1,9
 264 162 264 162 290 150 c 1,10,11
 350 155 350 155 387 169 c 128,-1,12
 424 183 424 183 441 204.5 c 128,-1,13
 458 226 458 226 458 253 c 0,14,15
 458 285 458 285 439 304 c 128,-1,16
 420 323 420 323 381.5 332 c 128,-1,17
 343 341 343 341 283 341 c 0,18,19
 250 341 250 341 213.5 337 c 128,-1,20
 177 333 177 333 137.5 324.5 c 128,-1,21
 98 316 98 316 55 302 c 1,22,-1
 30 368 l 1,23,24
 74 382 74 382 120 391.5 c 128,-1,25
 166 401 166 401 207 406 c 128,-1,26
 248 411 248 411 276 411 c 0,27,28
 413 411 413 411 476.5 370 c 128,-1,29
 540 329 540 329 540 253 c 0,30,31
 540 207 540 207 515 172 c 128,-1,32
 490 137 490 137 441.5 114.5 c 128,-1,33
 393 92 393 92 323 83 c 2,34,-1
 288 77 l 2,35,36
 269 76 269 76 248.5 75 c 128,-1,37
 228 74 228 74 205 74 c 0,0,1
377 -14 m 1,38,39
 353 9 353 9 328 29 c 128,-1,40
 303 49 303 49 278.5 65.5 c 128,-1,41
 254 82 254 82 229 94 c 1,42,-1
 303 123 l 1,43,44
 326 112 326 112 348 99 c 128,-1,45
 370 86 370 86 391 71 c 128,-1,46
 412 56 412 56 432 38 c 1,47,-1
 377 -14 l 1,38,39
200 375 m 1,48,49
 160 395 160 395 134.5 427.5 c 128,-1,50
 109 460 109 460 96.5 505 c 128,-1,51
 84 550 84 550 84 605 c 1,52,-1
 167 601 l 1,53,54
 167 539 167 539 180.5 496.5 c 128,-1,55
 194 454 194 454 225.5 432.5 c 128,-1,56
 257 411 257 411 310 411 c 1,57,-1
 200 375 l 1,48,49
-7 551 m 1,58,-1
 -7 622 l 1,59,-1
 601 622 l 1,60,-1
 601 551 l 1,61,-1
 -7 551 l 1,58,-1
400 375 m 1,62,-1
 290 411 l 1,63,64
 344 411 344 411 375.5 433.5 c 128,-1,65
 407 456 407 456 420.5 498.5 c 128,-1,66
 434 541 434 541 434 601 c 1,67,-1
 516 605 l 1,68,69
 516 522 516 522 488 463 c 128,-1,70
 460 404 460 404 400 375 c 1,62,-1
EndSplineSet
EndChar

StartChar: nyaguru
Encoding: 2590 2590 26
Width: 567
GlyphClass: 2
Flags: W
AnchorPoint: "Anchor-2" 485 0 basechar 0
AnchorPoint: "Anchor-1" 292 0 basechar 0
AnchorPoint: "Anchor-0" 478 622 basechar 0
LayerCount: 2
Fore
SplineSet
171 389 m 1,0,1
 149 435 149 435 122 480 c 128,-1,2
 95 525 95 525 65 563 c 1,3,-1
 143 589 l 1,4,5
 164 561 164 561 181.5 533 c 128,-1,6
 199 505 199 505 213.5 478 c 128,-1,7
 228 451 228 451 238 425 c 1,8,-1
 171 389 l 1,0,1
493 196 m 1,9,-1
 255 196 l 2,10,11
 223 196 223 196 191.5 200.5 c 128,-1,12
 160 205 160 205 134 213.5 c 128,-1,13
 108 222 108 222 90 233 c 0,14,15
 61 253 61 253 49 278 c 128,-1,16
 37 303 37 303 37 336 c 0,17,18
 37 373 37 373 53.5 397.5 c 128,-1,19
 70 422 70 422 97 436 c 0,20,21
 123 449 123 449 153.5 452.5 c 128,-1,22
 184 456 184 456 239 456 c 2,23,-1
 397 456 l 1,24,-1
 397 551 l 1,25,-1
 -7 551 l 1,26,-1
 -7 622 l 1,27,-1
 575 622 l 1,28,-1
 575 551 l 1,29,-1
 478 551 l 1,30,-1
 478 414 l 1,31,-1
 449 385 l 1,32,-1
 213 385 l 2,33,34
 186 385 186 385 169.5 382.5 c 128,-1,35
 153 380 153 380 142 375 c 0,36,37
 131 369 131 369 124.5 359 c 128,-1,38
 118 349 118 349 118 333 c 256,39,40
 118 317 118 317 124.5 304.5 c 128,-1,41
 131 292 131 292 146 284 c 0,42,43
 163 274 163 274 192.5 270.5 c 128,-1,44
 222 267 222 267 283 267 c 2,45,-1
 493 267 l 1,46,-1
 493 196 l 1,9,-1
314 0 m 0,47,48
 241 0 241 0 197 18.5 c 128,-1,49
 153 37 153 37 133.5 68 c 128,-1,50
 114 99 114 99 114 134 c 0,51,52
 114 168 114 168 137.5 196.5 c 128,-1,53
 161 225 161 225 210 231 c 1,54,-1
 354 196 l 1,55,-1
 314 196 l 2,56,57
 272 196 272 196 252 194.5 c 128,-1,58
 232 193 232 193 216 184 c 0,59,60
 206 177 206 177 200 166 c 128,-1,61
 194 155 194 155 194 141 c 0,62,63
 194 109 194 109 225.5 90.5 c 128,-1,64
 257 72 257 72 324 72 c 0,65,66
 353 72 353 72 378.5 74.5 c 128,-1,67
 404 77 404 77 429 83 c 128,-1,68
 454 89 454 89 480 97 c 1,69,-1
 500 25 l 1,70,71
 458 14 458 14 412 7 c 128,-1,72
 366 0 366 0 314 0 c 0,47,48
EndSplineSet
EndChar

StartChar: ttaguru
Encoding: 2591 2591 27
Width: 575
GlyphClass: 2
Flags: W
AnchorPoint: "Anchor-2" 489 0 basechar 0
AnchorPoint: "Anchor-1" 292 0 basechar 0
LayerCount: 2
Fore
SplineSet
322 0 m 0,0,1
 265 0 265 0 221.5 17.5 c 128,-1,2
 178 35 178 35 144 66 c 128,-1,3
 110 97 110 97 83.5 140 c 128,-1,4
 57 183 57 183 34 234 c 1,5,6
 66 275 66 275 95 306.5 c 128,-1,7
 124 338 124 338 155 361 c 0,8,9
 183 381 183 381 211 394 c 128,-1,10
 239 407 239 407 277 413.5 c 128,-1,11
 315 420 315 420 370 420 c 2,12,-1
 405 420 l 1,13,-1
 405 551 l 1,14,-1
 -7 551 l 1,15,-1
 -7 622 l 1,16,-1
 583 622 l 1,17,-1
 583 551 l 1,18,-1
 485 551 l 1,19,-1
 485 378 l 1,20,-1
 456 349 l 1,21,-1
 419 349 l 2,22,23
 361 349 361 349 326 347 c 128,-1,24
 291 345 291 345 268 337.5 c 128,-1,25
 245 330 245 330 221 315 c 0,26,27
 189 296 189 296 163.5 269.5 c 128,-1,28
 138 243 138 243 107 204 c 1,29,-1
 114 253 l 1,30,31
 140 200 140 200 168 159.5 c 128,-1,32
 196 119 196 119 233 96 c 128,-1,33
 270 73 270 73 322 73 c 0,34,35
 359 73 359 73 387 78 c 128,-1,36
 415 83 415 83 444 93.5 c 128,-1,37
 473 104 473 104 510 122 c 1,38,-1
 538 51 l 1,39,40
 484 25 484 25 433 12.5 c 128,-1,41
 382 0 382 0 322 0 c 0,0,1
EndSplineSet
EndChar

StartChar: tthaguru
Encoding: 2592 2592 28
Width: 660
GlyphClass: 2
Flags: W
AnchorPoint: "Anchor-3" 446 0 basechar 0
AnchorPoint: "Anchor-2" 519 0 basechar 0
AnchorPoint: "Anchor-1" 330 0 basechar 0
AnchorPoint: "Anchor-0" 370 622 basechar 0
LayerCount: 2
Fore
SplineSet
330 0 m 0,0,1
 251 0 251 0 184.5 18.5 c 128,-1,2
 118 37 118 37 78.5 81 c 128,-1,3
 39 125 39 125 39 202 c 0,4,5
 39 249 39 249 65.5 295.5 c 128,-1,6
 92 342 92 342 147.5 380 c 128,-1,7
 203 418 203 418 290 438 c 1,8,-1
 290 551 l 1,9,-1
 -7 551 l 1,10,-1
 -7 622 l 1,11,-1
 667 622 l 1,12,-1
 667 551 l 1,13,-1
 370 551 l 1,14,-1
 370 438 l 1,15,16
 458 418 458 418 513 380.5 c 128,-1,17
 568 343 568 343 594.5 296 c 128,-1,18
 621 249 621 249 621 202 c 0,19,20
 621 130 621 130 585 85.5 c 128,-1,21
 549 41 549 41 483.5 20.5 c 128,-1,22
 418 0 418 0 330 0 c 0,0,1
330 73 m 0,23,24
 365 73 365 73 402 77.5 c 128,-1,25
 439 82 439 82 470.5 95 c 128,-1,26
 502 108 502 108 521.5 133 c 128,-1,27
 541 158 541 158 541 200 c 0,28,29
 541 258 541 258 487.5 306.5 c 128,-1,30
 434 355 434 355 330 378 c 1,31,32
 224 354 224 354 171.5 306 c 128,-1,33
 119 258 119 258 119 199 c 0,34,35
 119 157 119 157 138.5 132 c 128,-1,36
 158 107 158 107 190 94.5 c 128,-1,37
 222 82 222 82 259 77.5 c 128,-1,38
 296 73 296 73 330 73 c 0,23,24
EndSplineSet
EndChar

StartChar: ddaguru
Encoding: 2593 2593 29
Width: 597
GlyphClass: 2
Flags: W
AnchorPoint: "Anchor-3" 366 0 basechar 0
AnchorPoint: "Anchor-2" 450 0 basechar 0
AnchorPoint: "Anchor-1" 281 0 basechar 0
AnchorPoint: "Anchor-0" 502 622 basechar 0
LayerCount: 2
Fore
SplineSet
249 0 m 0,0,1
 175 0 175 0 127.5 15.5 c 128,-1,2
 80 31 80 31 57.5 59.5 c 128,-1,3
 35 88 35 88 35 127 c 0,4,5
 35 157 35 157 51 182 c 128,-1,6
 67 207 67 207 98.5 222 c 128,-1,7
 130 237 130 237 178 237 c 0,8,9
 236 237 236 237 282.5 217 c 128,-1,10
 329 197 329 197 365 165.5 c 128,-1,11
 401 134 401 134 424 101 c 1,12,-1
 362 67 l 1,13,14
 330 104 330 104 284 135 c 128,-1,15
 238 166 238 166 182 166 c 0,16,17
 149 166 149 166 132.5 155 c 128,-1,18
 116 144 116 144 116 125 c 0,19,20
 116 97 116 97 149.5 83 c 128,-1,21
 183 69 183 69 248 69 c 0,22,23
 284 69 284 69 321.5 74 c 128,-1,24
 359 79 359 79 390.5 93 c 128,-1,25
 422 107 422 107 441.5 133 c 128,-1,26
 461 159 461 159 461 202 c 0,27,28
 461 243 461 243 430 276 c 128,-1,29
 399 309 399 309 349 324 c 1,30,31
 326 320 326 320 296.5 316 c 128,-1,32
 267 312 267 312 236 312 c 0,33,34
 191 312 191 312 167 320.5 c 128,-1,35
 143 329 143 329 134 342 c 128,-1,36
 125 355 125 355 125 369 c 0,37,38
 125 398 125 398 150.5 408.5 c 128,-1,39
 176 419 176 419 212 419 c 0,40,41
 252 419 252 419 287.5 412.5 c 128,-1,42
 323 406 323 406 357 393 c 1,43,44
 392 407 392 407 414.5 436 c 128,-1,45
 437 465 437 465 437 512 c 0,46,47
 437 526 437 526 434.5 542.5 c 128,-1,48
 432 559 432 559 425 578 c 1,49,-1
 458 551 l 1,50,-1
 -7 551 l 1,51,-1
 -7 622 l 1,52,-1
 604 622 l 1,53,-1
 604 551 l 1,54,-1
 487 551 l 1,55,-1
 510 576 l 1,56,57
 514 560 514 560 516 543 c 128,-1,58
 518 526 518 526 518 511 c 0,59,60
 518 449 518 449 493.5 416.5 c 128,-1,61
 469 384 469 384 432 362 c 1,62,63
 488 333 488 333 515.5 293 c 128,-1,64
 543 253 543 253 543 199 c 0,65,66
 543 149 543 149 521.5 111.5 c 128,-1,67
 500 74 500 74 461 49.5 c 128,-1,68
 422 25 422 25 368 12.5 c 128,-1,69
 314 0 314 0 249 0 c 0,0,1
EndSplineSet
EndChar

StartChar: ddhaguru
Encoding: 2594 2594 30
Width: 646
GlyphClass: 2
Flags: W
AnchorPoint: "Anchor-3" 474 0 basechar 0
AnchorPoint: "Anchor-2" 575 0 basechar 0
AnchorPoint: "Anchor-0" 557 622 basechar 0
LayerCount: 2
Fore
SplineSet
403 0 m 0,0,1
 303 0 303 0 236 42 c 128,-1,2
 169 84 169 84 135 154.5 c 128,-1,3
 101 225 101 225 101 312 c 2,4,-1
 101 320 l 1,5,-1
 83 320 l 2,6,7
 55 320 55 320 43.5 331 c 128,-1,8
 32 342 32 342 32 358 c 0,9,10
 32 376 32 376 42.5 396 c 128,-1,11
 53 416 53 416 69.5 433.5 c 128,-1,12
 86 451 86 451 104.5 461.5 c 128,-1,13
 123 472 123 472 139 472 c 0,14,15
 163 472 163 472 172.5 455 c 128,-1,16
 182 438 182 438 182 416 c 2,17,-1
 182 391 l 1,18,-1
 476 391 l 1,19,-1
 476 551 l 1,20,-1
 -7 551 l 1,21,-1
 -7 622 l 1,22,-1
 653 622 l 1,23,-1
 653 551 l 1,24,-1
 557 551 l 1,25,-1
 557 350 l 1,26,-1
 527 320 l 1,27,-1
 182 320 l 1,28,29
 182 237 182 237 209 181 c 128,-1,30
 236 125 236 125 286.5 97 c 128,-1,31
 337 69 337 69 408 69 c 0,32,33
 467 69 467 69 495.5 82.5 c 128,-1,34
 524 96 524 96 524 124 c 0,35,36
 524 143 524 143 507 154.5 c 128,-1,37
 490 166 490 166 456 166 c 0,38,39
 417 166 417 166 383 151.5 c 128,-1,40
 349 137 349 137 321 114.5 c 128,-1,41
 293 92 293 92 271 67 c 1,42,-1
 211 100 l 1,43,44
 236 133 236 133 271.5 164.5 c 128,-1,45
 307 196 307 196 354.5 216.5 c 128,-1,46
 402 237 402 237 463 237 c 0,47,48
 536 237 536 237 570 204 c 128,-1,49
 604 171 604 171 604 127 c 0,50,51
 604 98 604 98 592 74.5 c 128,-1,52
 580 51 580 51 555.5 34.5 c 128,-1,53
 531 18 531 18 493 9 c 128,-1,54
 455 0 455 0 403 0 c 0,0,1
EndSplineSet
EndChar

StartChar: nnaguru
Encoding: 2595 2595 31
Width: 622
GlyphClass: 2
Flags: W
AnchorPoint: "Anchor-2" 505 0 basechar 0
LayerCount: 2
Fore
SplineSet
341 0 m 0,0,1
 260 0 260 0 204 26.5 c 128,-1,2
 148 53 148 53 108.5 102.5 c 128,-1,3
 69 152 69 152 34 219 c 1,4,5
 69 264 69 264 105 299.5 c 128,-1,6
 141 335 141 335 182.5 355 c 128,-1,7
 224 375 224 375 276 375 c 0,8,9
 302 375 302 375 325 370 c 128,-1,10
 348 365 348 365 369 354 c 1,11,-1
 333 347 l 1,12,-1
 392 462 l 1,13,-1
 458 423 l 1,14,-1
 397 303 l 1,15,-1
 360 288 l 1,16,17
 345 294 345 294 325.5 298 c 128,-1,18
 306 302 306 302 283 302 c 0,19,20
 231 302 231 302 194.5 277 c 128,-1,21
 158 252 158 252 117 202 c 1,22,-1
 126 214 l 1,23,24
 153 171 153 171 182.5 139 c 128,-1,25
 212 107 212 107 250 90 c 128,-1,26
 288 73 288 73 341 73 c 0,27,28
 379 73 379 73 412.5 78 c 128,-1,29
 446 83 446 83 481.5 95.5 c 128,-1,30
 517 108 517 108 561 128 c 1,31,-1
 589 57 l 1,32,33
 526 29 526 29 467.5 14.5 c 128,-1,34
 409 0 409 0 341 0 c 0,0,1
552 330 m 1,35,36
 493 357 493 357 430 391 c 128,-1,37
 367 425 367 425 304.5 469 c 128,-1,38
 242 513 242 513 185 570 c 1,39,-1
 240 551 l 1,40,-1
 -7 551 l 1,41,-1
 -7 622 l 1,42,-1
 629 622 l 1,43,-1
 629 551 l 1,44,-1
 275 551 l 1,45,-1
 292 566 l 1,46,47
 337 530 337 530 386 500 c 128,-1,48
 435 470 435 470 486.5 445 c 128,-1,49
 538 420 538 420 587 398 c 1,50,-1
 552 330 l 1,35,36
EndSplineSet
EndChar

StartChar: taguru
Encoding: 2596 2596 32
Width: 542
GlyphClass: 2
Flags: W
AnchorPoint: "Anchor-3" 343 0 basechar 0
AnchorPoint: "Anchor-2" 413 0 basechar 0
LayerCount: 2
Fore
SplineSet
250 0 m 0,0,1
 183 0 183 0 122.5 18 c 128,-1,2
 62 36 62 36 13 64 c 1,3,-1
 45 137 l 1,4,5
 93 106 93 106 143 89.5 c 128,-1,6
 193 73 193 73 248 73 c 0,7,8
 292 73 292 73 327.5 84.5 c 128,-1,9
 363 96 363 96 384.5 121.5 c 128,-1,10
 406 147 406 147 406 189 c 0,11,12
 406 222 406 222 392 247 c 128,-1,13
 378 272 378 272 353 291.5 c 128,-1,14
 328 311 328 311 294 324 c 1,15,16
 272 320 272 320 242 316 c 128,-1,17
 212 312 212 312 181 312 c 0,18,19
 135 312 135 312 111 320.5 c 128,-1,20
 87 329 87 329 78 342 c 128,-1,21
 69 355 69 355 69 369 c 0,22,23
 69 398 69 398 94.5 408.5 c 128,-1,24
 120 419 120 419 157 419 c 0,25,26
 197 419 197 419 232.5 412.5 c 128,-1,27
 268 406 268 406 302 393 c 1,28,29
 337 407 337 407 359.5 436 c 128,-1,30
 382 465 382 465 382 512 c 0,31,32
 382 526 382 526 379.5 542.5 c 128,-1,33
 377 559 377 559 370 578 c 1,34,-1
 414 551 l 1,35,-1
 -7 551 l 1,36,-1
 -7 622 l 1,37,-1
 549 622 l 1,38,-1
 549 551 l 1,39,-1
 424 551 l 1,40,-1
 455 576 l 1,41,42
 459 560 459 560 461 542.5 c 128,-1,43
 463 525 463 525 463 511 c 0,44,45
 463 449 463 449 438.5 416.5 c 128,-1,46
 414 384 414 384 377 362 c 1,47,48
 410 344 410 344 435 320 c 128,-1,49
 460 296 460 296 474 264 c 128,-1,50
 488 232 488 232 488 188 c 0,51,52
 488 127 488 127 457.5 85 c 128,-1,53
 427 43 427 43 373.5 21.5 c 128,-1,54
 320 0 320 0 250 0 c 0,0,1
EndSplineSet
EndChar

StartChar: thaguru
Encoding: 2597 2597 33
Width: 598
GlyphClass: 2
Flags: W
AnchorPoint: "Anchor-2" 598 0 basechar 0
LayerCount: 2
Fore
SplineSet
428 0 m 1,0,-1
 428 180 l 1,1,-1
 429 165 l 1,2,3
 395 149 395 149 361 140.5 c 128,-1,4
 327 132 327 132 284 132 c 0,5,6
 196 132 196 132 136 186.5 c 128,-1,7
 76 241 76 241 38 333 c 1,8,9
 68 359 68 359 88 389 c 128,-1,10
 108 419 108 419 108 459 c 0,11,12
 108 481 108 481 101.5 506.5 c 128,-1,13
 95 532 95 532 84 551 c 1,14,-1
 -7 551 l 1,15,-1
 -7 622 l 1,16,-1
 132 622 l 1,17,18
 160 582 160 582 174 539.5 c 128,-1,19
 188 497 188 497 188 460 c 0,20,21
 188 407 188 407 167.5 371.5 c 128,-1,22
 147 336 147 336 114 313 c 1,23,-1
 118 357 l 1,24,25
 150 282 150 282 188 244 c 128,-1,26
 226 206 226 206 284 206 c 0,27,28
 324 206 324 206 358.5 217.5 c 128,-1,29
 393 229 393 229 429 251 c 1,30,-1
 428 242 l 1,31,-1
 428 551 l 1,32,-1
 118 551 l 1,33,-1
 118 622 l 1,34,-1
 605 622 l 1,35,-1
 605 551 l 1,36,-1
 509 551 l 1,37,-1
 509 0 l 1,38,-1
 428 0 l 1,0,-1
128 357 m 1,39,-1
 128 426 l 1,40,-1
 465 426 l 1,41,-1
 465 357 l 1,42,-1
 128 357 l 1,39,-1
EndSplineSet
EndChar

StartChar: daguru
Encoding: 2598 2598 34
Width: 617
GlyphClass: 2
Flags: W
AnchorPoint: "Anchor-2" 526 0 basechar 0
LayerCount: 2
Fore
SplineSet
368 0 m 0,0,1
 277 0 277 0 218 35.5 c 128,-1,2
 159 71 159 71 130 134 c 128,-1,3
 101 197 101 197 101 280 c 2,4,-1
 101 291 l 1,5,-1
 83 291 l 2,6,7
 55 291 55 291 43.5 302 c 128,-1,8
 32 313 32 313 32 329 c 0,9,10
 32 347 32 347 42.5 366.5 c 128,-1,11
 53 386 53 386 69.5 403.5 c 128,-1,12
 86 421 86 421 104.5 431.5 c 128,-1,13
 123 442 123 442 139 442 c 0,14,15
 163 442 163 442 172.5 425.5 c 128,-1,16
 182 409 182 409 182 387 c 2,17,-1
 182 362 l 1,18,-1
 447 362 l 1,19,-1
 447 551 l 1,20,-1
 -7 551 l 1,21,-1
 -7 622 l 1,22,-1
 624 622 l 1,23,-1
 624 551 l 1,24,-1
 527 551 l 1,25,-1
 527 320 l 1,26,-1
 498 291 l 1,27,-1
 182 291 l 1,28,29
 182 223 182 223 199 180 c 128,-1,30
 216 137 216 137 243 114 c 128,-1,31
 270 91 270 91 303 82 c 128,-1,32
 336 73 336 73 369 73 c 0,33,34
 416 73 416 73 456.5 84 c 128,-1,35
 497 95 497 95 542 117 c 1,36,-1
 570 46 l 1,37,38
 524 24 524 24 472.5 12 c 128,-1,39
 421 0 421 0 368 0 c 0,0,1
EndSplineSet
EndChar

StartChar: dhaguru
Encoding: 2599 2599 35
Width: 593
GlyphClass: 2
Flags: W
AnchorPoint: "Anchor-2" 593 0 basechar 0
LayerCount: 2
Fore
SplineSet
423 0 m 1,0,-1
 423 180 l 1,1,-1
 429 165 l 1,2,3
 395 149 395 149 361 140.5 c 128,-1,4
 327 132 327 132 284 132 c 0,5,6
 196 132 196 132 136 186.5 c 128,-1,7
 76 241 76 241 38 333 c 1,8,9
 68 359 68 359 88 389 c 128,-1,10
 108 419 108 419 108 459 c 0,11,12
 108 481 108 481 101.5 506.5 c 128,-1,13
 95 532 95 532 84 551 c 1,14,-1
 -7 551 l 1,15,-1
 -7 622 l 1,16,-1
 132 622 l 1,17,18
 160 582 160 582 174 539.5 c 128,-1,19
 188 497 188 497 188 460 c 0,20,21
 188 407 188 407 167.5 371.5 c 128,-1,22
 147 336 147 336 114 313 c 1,23,-1
 118 357 l 1,24,25
 150 282 150 282 188 244 c 128,-1,26
 226 206 226 206 284 206 c 0,27,28
 324 206 324 206 358.5 217.5 c 128,-1,29
 393 229 393 229 429 251 c 1,30,-1
 423 242 l 1,31,-1
 423 551 l 1,32,-1
 118 551 l 1,33,-1
 118 622 l 1,34,-1
 600 622 l 1,35,-1
 600 551 l 1,36,-1
 504 551 l 1,37,-1
 504 0 l 1,38,-1
 423 0 l 1,0,-1
EndSplineSet
EndChar

StartChar: naguru
Encoding: 2600 2600 36
Width: 648
GlyphClass: 2
Flags: W
AnchorPoint: "Anchor-3" 454 0 basechar 0
AnchorPoint: "Anchor-2" 508 0 basechar 0
AnchorPoint: "Anchor-1" 324 0 basechar 0
AnchorPoint: "Anchor-0" 364 622 basechar 0
LayerCount: 2
Fore
SplineSet
240 0 m 1,0,1
 181 0 181 0 142 19 c 128,-1,2
 103 38 103 38 80.5 68 c 128,-1,3
 58 98 58 98 48.5 131.5 c 128,-1,4
 39 165 39 165 39 194 c 0,5,6
 39 245 39 245 65 292.5 c 128,-1,7
 91 340 91 340 145.5 378 c 128,-1,8
 200 416 200 416 284 438 c 1,9,-1
 284 551 l 1,10,-1
 -7 551 l 1,11,-1
 -7 622 l 1,12,-1
 655 622 l 1,13,-1
 655 551 l 1,14,-1
 364 551 l 1,15,-1
 364 438 l 1,16,17
 449 416 449 416 503 378 c 128,-1,18
 557 340 557 340 583 292.5 c 128,-1,19
 609 245 609 245 609 194 c 0,20,21
 609 165 609 165 600 131.5 c 128,-1,22
 591 98 591 98 568.5 68 c 128,-1,23
 546 38 546 38 507 19 c 128,-1,24
 468 0 468 0 409 0 c 1,25,-1
 404 73 l 1,26,27
 471 73 471 73 500 107 c 128,-1,28
 529 141 529 141 529 195 c 0,29,30
 529 257 529 257 477 305 c 128,-1,31
 425 353 425 353 324 378 c 1,32,33
 223 353 223 353 171 305 c 128,-1,34
 119 257 119 257 119 195 c 0,35,36
 119 141 119 141 148.5 107 c 128,-1,37
 178 73 178 73 245 73 c 1,38,-1
 240 0 l 1,0,1
EndSplineSet
EndChar

StartChar: paguru
Encoding: 2602 2602 37
Width: 593
GlyphClass: 2
Flags: W
AnchorPoint: "Anchor-2" 593 0 basechar 0
LayerCount: 2
Fore
SplineSet
423 0 m 1,0,-1
 423 180 l 1,1,-1
 429 165 l 1,2,3
 395 149 395 149 361 140.5 c 128,-1,4
 327 132 327 132 284 132 c 0,5,6
 196 132 196 132 136 186.5 c 128,-1,7
 76 241 76 241 38 333 c 1,8,9
 68 359 68 359 88 389 c 128,-1,10
 108 419 108 419 108 459 c 0,11,12
 108 481 108 481 101.5 506.5 c 128,-1,13
 95 532 95 532 84 551 c 1,14,-1
 -7 551 l 1,15,-1
 -7 622 l 1,16,-1
 142 622 l 1,17,18
 164 582 164 582 176 539.5 c 128,-1,19
 188 497 188 497 188 460 c 0,20,21
 188 407 188 407 167.5 371.5 c 128,-1,22
 147 336 147 336 114 313 c 1,23,-1
 118 357 l 1,24,25
 150 282 150 282 188 244 c 128,-1,26
 226 206 226 206 284 206 c 0,27,28
 325 206 325 206 359 217.5 c 128,-1,29
 393 229 393 229 429 251 c 1,30,-1
 423 240 l 1,31,-1
 423 622 l 1,32,-1
 600 622 l 1,33,-1
 600 551 l 1,34,-1
 504 551 l 1,35,-1
 504 0 l 1,36,-1
 423 0 l 1,0,-1
EndSplineSet
EndChar

StartChar: phaguru
Encoding: 2603 2603 38
Width: 579
GlyphClass: 2
Flags: W
AnchorPoint: "Anchor-2" 508 0 basechar 0
AnchorPoint: "Anchor-0" 489 622 basechar 0
LayerCount: 2
Fore
SplineSet
336 0 m 0,0,1
 271 0 271 0 216 20 c 128,-1,2
 161 40 161 40 121 76.5 c 128,-1,3
 81 113 81 113 59 161 c 128,-1,4
 37 209 37 209 37 264 c 0,5,6
 37 299 37 299 49 327.5 c 128,-1,7
 61 356 61 356 82 374 c 0,8,9
 101 390 101 390 123.5 400 c 128,-1,10
 146 410 146 410 180.5 415 c 128,-1,11
 215 420 215 420 268 420 c 2,12,-1
 408 420 l 1,13,-1
 408 551 l 1,14,-1
 -7 551 l 1,15,-1
 -7 622 l 1,16,-1
 586 622 l 1,17,-1
 586 551 l 1,18,-1
 489 551 l 1,19,-1
 489 378 l 1,20,-1
 460 349 l 1,21,-1
 279 349 l 2,22,23
 239 349 239 349 213 346 c 128,-1,24
 187 343 187 343 170.5 337 c 128,-1,25
 154 331 154 331 141 320 c 0,26,27
 128 310 128 310 123 294 c 128,-1,28
 118 278 118 278 118 259 c 0,29,30
 118 219 118 219 134.5 184 c 128,-1,31
 151 149 151 149 181 123.5 c 128,-1,32
 211 98 211 98 252 83.5 c 128,-1,33
 293 69 293 69 341 69 c 0,34,35
 400 69 400 69 428.5 82.5 c 128,-1,36
 457 96 457 96 457 124 c 0,37,38
 457 143 457 143 440 154.5 c 128,-1,39
 423 166 423 166 388 166 c 0,40,41
 350 166 350 166 316 151.5 c 128,-1,42
 282 137 282 137 254 114.5 c 128,-1,43
 226 92 226 92 204 67 c 1,44,-1
 144 100 l 1,45,46
 169 133 169 133 204.5 164.5 c 128,-1,47
 240 196 240 196 287.5 216.5 c 128,-1,48
 335 237 335 237 396 237 c 0,49,50
 445 237 445 237 476 222 c 128,-1,51
 507 207 507 207 522 182 c 128,-1,52
 537 157 537 157 537 127 c 0,53,54
 537 98 537 98 526 74.5 c 128,-1,55
 515 51 515 51 491 34.5 c 128,-1,56
 467 18 467 18 429 9 c 128,-1,57
 391 0 391 0 336 0 c 0,0,1
EndSplineSet
EndChar

StartChar: baguru
Encoding: 2604 2604 39
Width: 608
GlyphClass: 2
Flags: W
AnchorPoint: "Anchor-2" 608 0 basechar 0
LayerCount: 2
Fore
SplineSet
41 248 m 1,0,1
 56 271 56 271 78 292.5 c 128,-1,2
 100 314 100 314 128 332 c 128,-1,3
 156 350 156 350 189 361 c 1,4,-1
 196 343 l 1,5,6
 153 358 153 358 122 384 c 128,-1,7
 91 410 91 410 75 452 c 128,-1,8
 59 494 59 494 59 555 c 1,9,-1
 95 551 l 1,10,-1
 -7 551 l 1,11,-1
 -7 622 l 1,12,-1
 569 622 l 1,13,-1
 569 551 l 1,14,-1
 105 551 l 1,15,-1
 141 554 l 1,16,17
 141 511 141 511 150.5 477.5 c 128,-1,18
 160 444 160 444 182 423 c 0,19,20
 200 407 200 407 224.5 399.5 c 128,-1,21
 249 392 249 392 296 392 c 2,22,-1
 456 392 l 1,23,-1
 454 322 l 1,24,-1
 313 322 l 2,25,26
 272 322 272 322 238 312 c 128,-1,27
 204 302 204 302 175 281 c 128,-1,28
 146 260 146 260 120 225 c 1,29,-1
 122 268 l 1,30,31
 142 226 142 226 168 198 c 128,-1,32
 194 170 194 170 228.5 156.5 c 128,-1,33
 263 143 263 143 307 143 c 0,34,35
 345 143 345 143 380 151 c 128,-1,36
 415 159 415 159 446 176 c 1,37,-1
 452 100 l 1,38,39
 420 85 420 85 384 77 c 128,-1,40
 348 69 348 69 307 69 c 0,41,42
 240 69 240 69 189 92.5 c 128,-1,43
 138 116 138 116 101.5 156.5 c 128,-1,44
 65 197 65 197 41 248 c 1,0,1
438 0 m 1,45,-1
 438 551 l 1,46,-1
 342 551 l 1,47,-1
 342 622 l 1,48,-1
 616 622 l 1,49,-1
 616 551 l 1,50,-1
 519 551 l 1,51,-1
 519 0 l 1,52,-1
 438 0 l 1,45,-1
EndSplineSet
EndChar

StartChar: bhaguru
Encoding: 2605 2605 40
Width: 577
GlyphClass: 2
Flags: W
AnchorPoint: "Anchor-3" 359 0 basechar 0
AnchorPoint: "Anchor-2" 448 0 basechar 0
AnchorPoint: "Anchor-1" 261 0 basechar 0
AnchorPoint: "Anchor-0" 478 622 basechar 0
LayerCount: 2
Fore
SplineSet
255 0 m 0,0,1
 184 0 184 0 123 18 c 128,-1,2
 62 36 62 36 13 64 c 1,3,-1
 45 138 l 1,4,5
 94 107 94 107 143.5 89.5 c 128,-1,6
 193 72 193 72 258 72 c 0,7,8
 341 72 341 72 386.5 104 c 128,-1,9
 432 136 432 136 432 207 c 0,10,11
 432 261 432 261 403 303 c 128,-1,12
 374 345 374 345 327.5 368.5 c 128,-1,13
 281 392 281 392 228 392 c 0,14,15
 180 392 180 392 161 377.5 c 128,-1,16
 142 363 142 363 142 345 c 0,17,18
 142 323 142 323 162.5 310 c 128,-1,19
 183 297 183 297 229 297 c 0,20,21
 289 297 289 297 327 314.5 c 128,-1,22
 365 332 365 332 386.5 358.5 c 128,-1,23
 408 385 408 385 416 414 c 128,-1,24
 424 443 424 443 424 467 c 0,25,26
 424 499 424 499 417.5 525.5 c 128,-1,27
 411 552 411 552 401 567 c 1,28,-1
 445 551 l 1,29,-1
 -7 551 l 1,30,-1
 -7 622 l 1,31,-1
 584 622 l 1,32,-1
 584 551 l 1,33,-1
 456 551 l 1,34,-1
 487 565 l 1,35,36
 493 552 493 552 498 525 c 128,-1,37
 503 498 503 498 503 463 c 256,38,39
 503 428 503 428 490.5 391 c 128,-1,40
 478 354 478 354 448 322 c 2,41,-1
 437 312 l 1,42,43
 402 272 402 272 351.5 249 c 128,-1,44
 301 226 301 226 230 226 c 0,45,46
 146 226 146 226 104 258.5 c 128,-1,47
 62 291 62 291 62 344 c 0,48,49
 62 378 62 378 80 405 c 128,-1,50
 98 432 98 432 135 447.5 c 128,-1,51
 172 463 172 463 227 463 c 0,52,53
 294 463 294 463 344.5 439.5 c 128,-1,54
 395 416 395 416 431 377 c 1,55,-1
 444 366 l 1,56,57
 479 327 479 327 495.5 286 c 128,-1,58
 512 245 512 245 512 203 c 0,59,60
 512 101 512 101 443 50.5 c 128,-1,61
 374 0 374 0 255 0 c 0,0,1
EndSplineSet
EndChar

StartChar: maguru
Encoding: 2606 2606 41
Width: 596
GlyphClass: 2
Flags: W
AnchorPoint: "Anchor-2" 596 0 basechar 0
LayerCount: 2
Fore
SplineSet
426 0 m 1,0,-1
 426 261 l 1,1,-1
 192 261 l 1,2,3
 190 206 190 206 179.5 165.5 c 128,-1,4
 169 125 169 125 150.5 103 c 128,-1,5
 132 81 132 81 105 81 c 0,6,7
 85 81 85 81 71.5 93 c 128,-1,8
 58 105 58 105 58 139 c 0,9,10
 58 154 58 154 63 178.5 c 128,-1,11
 68 203 68 203 81.5 232 c 128,-1,12
 95 261 95 261 119 288 c 1,13,14
 117 331 117 331 110.5 376.5 c 128,-1,15
 104 422 104 422 93 466.5 c 128,-1,16
 82 511 82 511 67 551 c 1,17,-1
 -7 551 l 1,18,-1
 -7 622 l 1,19,-1
 130 622 l 1,20,21
 149 576 149 576 163 526 c 128,-1,22
 177 476 177 476 185 427 c 128,-1,23
 193 378 193 378 193 332 c 1,24,-1
 426 332 l 1,25,-1
 426 622 l 1,26,-1
 603 622 l 1,27,-1
 603 551 l 1,28,-1
 507 551 l 1,29,-1
 507 0 l 1,30,-1
 426 0 l 1,0,-1
EndSplineSet
EndChar

StartChar: yaguru
Encoding: 2607 2607 42
Width: 695
GlyphClass: 2
Flags: W
AnchorPoint: "Anchor-2" 695 0 basechar 0
LayerCount: 2
Fore
SplineSet
525 0 m 1,0,-1
 525 299 l 1,1,-1
 396 299 l 1,2,-1
 396 136 l 1,3,4
 374 129 374 129 344.5 124.5 c 128,-1,5
 315 120 315 120 284 120 c 0,6,7
 196 120 196 120 136 176.5 c 128,-1,8
 76 233 76 233 38 327 c 1,9,10
 68 353 68 353 88 384 c 128,-1,11
 108 415 108 415 108 457 c 0,12,13
 108 479 108 479 101.5 505.5 c 128,-1,14
 95 532 95 532 84 551 c 1,15,-1
 -7 551 l 1,16,-1
 -7 622 l 1,17,-1
 703 622 l 1,18,-1
 703 551 l 1,19,-1
 606 551 l 1,20,-1
 606 0 l 1,21,-1
 525 0 l 1,0,-1
315 371 m 1,22,-1
 525 371 l 1,23,-1
 525 551 l 1,24,-1
 169 551 l 1,25,26
 179 526 179 526 183.5 502 c 128,-1,27
 188 478 188 478 188 457 c 0,28,29
 188 403 188 403 167.5 367 c 128,-1,30
 147 331 147 331 115 307 c 1,31,-1
 119 352 l 1,32,33
 151 273 151 273 188.5 233 c 128,-1,34
 226 193 226 193 284 193 c 0,35,36
 295 193 295 193 302 193.5 c 128,-1,37
 309 194 309 194 315 195 c 1,38,-1
 315 371 l 1,22,-1
EndSplineSet
EndChar

StartChar: raguru
Encoding: 2608 2608 43
Width: 579
GlyphClass: 2
Flags: W
AnchorPoint: "Anchor-3" 360 0 basechar 0
AnchorPoint: "Anchor-2" 525 0 basechar 0
LayerCount: 2
Fore
SplineSet
310 0 m 0,0,1
 256 0 256 0 207 21.5 c 128,-1,2
 158 43 158 43 119.5 79.5 c 128,-1,3
 81 116 81 116 59 162.5 c 128,-1,4
 37 209 37 209 37 258 c 0,5,6
 37 294 37 294 49.5 319.5 c 128,-1,7
 62 345 62 345 82 363 c 0,8,9
 109 386 109 386 150.5 397 c 128,-1,10
 192 408 192 408 272 408 c 2,11,-1
 409 408 l 1,12,-1
 409 551 l 1,13,-1
 -7 551 l 1,14,-1
 -7 622 l 1,15,-1
 586 622 l 1,16,-1
 586 551 l 1,17,-1
 490 551 l 1,18,-1
 490 172 l 2,19,20
 490 114 490 114 470.5 76 c 128,-1,21
 451 38 451 38 411.5 19 c 128,-1,22
 372 0 372 0 310 0 c 0,0,1
317 73 m 0,23,24
 340 73 340 73 359 78 c 128,-1,25
 378 83 378 83 390 96 c 0,26,27
 399 107 399 107 404 124.5 c 128,-1,28
 409 142 409 142 409 183 c 2,29,-1
 409 337 l 1,30,-1
 282 337 l 2,31,32
 220 337 220 337 189 331.5 c 128,-1,33
 158 326 158 326 141 311 c 0,34,35
 128 300 128 300 123 285 c 128,-1,36
 118 270 118 270 118 252 c 0,37,38
 118 220 118 220 135 188 c 128,-1,39
 152 156 152 156 180.5 130 c 128,-1,40
 209 104 209 104 244.5 88.5 c 128,-1,41
 280 73 280 73 317 73 c 0,23,24
EndSplineSet
EndChar

StartChar: laguru
Encoding: 2610 2610 44
Width: 674
GlyphClass: 2
Flags: W
AnchorPoint: "Anchor-3" 479 0 basechar 0
AnchorPoint: "Anchor-2" 528 0 basechar 0
AnchorPoint: "Anchor-1" 337 0 basechar 0
AnchorPoint: "Anchor-0" 557 622 basechar 0
LayerCount: 2
Fore
SplineSet
337 250 m 1,0,1
 282 281 282 281 236 328.5 c 128,-1,2
 190 376 190 376 159 433.5 c 128,-1,3
 128 491 128 491 117 551 c 1,4,-1
 -7 551 l 1,5,-1
 -7 622 l 1,6,-1
 681 622 l 1,7,-1
 681 551 l 1,8,-1
 557 551 l 1,9,10
 549 504 549 504 529.5 460.5 c 128,-1,11
 510 417 510 417 481.5 378 c 128,-1,12
 453 339 453 339 416.5 306.5 c 128,-1,13
 380 274 380 274 337 250 c 1,0,1
475 551 m 1,14,-1
 199 551 l 1,15,16
 207 498 207 498 229.5 455 c 128,-1,17
 252 412 252 412 285 379 c 128,-1,18
 318 346 318 346 356 322 c 1,19,-1
 318 323 l 1,20,21
 357 345 357 345 389.5 378 c 128,-1,22
 422 411 422 411 444.5 454.5 c 128,-1,23
 467 498 467 498 475 551 c 1,14,-1
39 193 m 0,24,25
 39 261 39 261 83 317.5 c 128,-1,26
 127 374 127 374 206 408 c 1,27,-1
 246 353 l 1,28,29
 194 329 194 329 156.5 289.5 c 128,-1,30
 119 250 119 250 119 195 c 0,31,32
 119 141 119 141 151 107 c 128,-1,33
 183 73 183 73 254 73 c 2,34,-1
 259 73 l 1,35,-1
 254 0 l 1,36,-1
 248 0 l 2,37,38
 186 0 186 0 145.5 19 c 128,-1,39
 105 38 105 38 81.5 67.5 c 128,-1,40
 58 97 58 97 48.5 130.5 c 128,-1,41
 39 164 39 164 39 193 c 0,24,25
635 194 m 0,42,43
 635 165 635 165 625 131.5 c 128,-1,44
 615 98 615 98 592 68 c 128,-1,45
 569 38 569 38 528.5 19 c 128,-1,46
 488 0 488 0 426 0 c 2,47,-1
 420 0 l 1,48,-1
 415 73 l 1,49,-1
 426 73 l 2,50,51
 493 73 493 73 524 106.5 c 128,-1,52
 555 140 555 140 555 191 c 0,53,54
 555 241 555 241 522.5 283 c 128,-1,55
 490 325 490 325 421 353 c 1,56,-1
 464 412 l 1,57,58
 556 370 556 370 595.5 312.5 c 128,-1,59
 635 255 635 255 635 194 c 0,42,43
EndSplineSet
EndChar

StartChar: vaguru
Encoding: 2613 2613 46
Width: 567
GlyphClass: 2
Flags: W
AnchorPoint: "Anchor-2" 485 0 basechar 0
AnchorPoint: "Anchor-1" 292 0 basechar 0
AnchorPoint: "Anchor-0" 478 622 basechar 0
LayerCount: 2
Fore
SplineSet
493 196 m 1,0,-1
 255 196 l 2,1,2
 223 196 223 196 191.5 200.5 c 128,-1,3
 160 205 160 205 134 213.5 c 128,-1,4
 108 222 108 222 90 233 c 0,5,6
 61 253 61 253 49 278 c 128,-1,7
 37 303 37 303 37 336 c 0,8,9
 37 373 37 373 53.5 397.5 c 128,-1,10
 70 422 70 422 97 436 c 0,11,12
 123 449 123 449 153.5 452.5 c 128,-1,13
 184 456 184 456 239 456 c 2,14,-1
 397 456 l 1,15,-1
 397 551 l 1,16,-1
 -7 551 l 1,17,-1
 -7 622 l 1,18,-1
 575 622 l 1,19,-1
 575 551 l 1,20,-1
 478 551 l 1,21,-1
 478 414 l 1,22,-1
 449 385 l 1,23,-1
 213 385 l 2,24,25
 186 385 186 385 169.5 382.5 c 128,-1,26
 153 380 153 380 142 375 c 0,27,28
 131 369 131 369 124.5 359 c 128,-1,29
 118 349 118 349 118 333 c 256,30,31
 118 317 118 317 124.5 304.5 c 128,-1,32
 131 292 131 292 146 284 c 0,33,34
 163 274 163 274 192.5 270.5 c 128,-1,35
 222 267 222 267 283 267 c 2,36,-1
 493 267 l 1,37,-1
 493 196 l 1,0,-1
314 0 m 0,38,39
 241 0 241 0 197 18.5 c 128,-1,40
 153 37 153 37 133.5 68 c 128,-1,41
 114 99 114 99 114 134 c 0,42,43
 114 168 114 168 137.5 196.5 c 128,-1,44
 161 225 161 225 210 231 c 1,45,-1
 354 196 l 1,46,-1
 314 196 l 2,47,48
 272 196 272 196 252 194.5 c 128,-1,49
 232 193 232 193 216 184 c 0,50,51
 206 177 206 177 200 166 c 128,-1,52
 194 155 194 155 194 141 c 0,53,54
 194 109 194 109 225.5 90.5 c 128,-1,55
 257 72 257 72 324 72 c 0,56,57
 353 72 353 72 378.5 74.5 c 128,-1,58
 404 77 404 77 429 83 c 128,-1,59
 454 89 454 89 480 97 c 1,60,-1
 500 25 l 1,61,62
 458 14 458 14 412 7 c 128,-1,63
 366 0 366 0 314 0 c 0,38,39
EndSplineSet
EndChar

StartChar: sanuktaguru
Encoding: 2614 2614 47
Width: 603
GlyphClass: 2
Flags: W
AnchorPoint: "Anchor-2" 603 0 basechar 0
LayerCount: 2
Fore
SplineSet
433 0 m 1,0,-1
 433 261 l 1,1,-1
 192 261 l 1,2,3
 190 206 190 206 179.5 165.5 c 128,-1,4
 169 125 169 125 150.5 103 c 128,-1,5
 132 81 132 81 105 81 c 0,6,7
 85 81 85 81 71.5 93 c 128,-1,8
 58 105 58 105 58 139 c 0,9,10
 58 154 58 154 63 178.5 c 128,-1,11
 68 203 68 203 81.5 232 c 128,-1,12
 95 261 95 261 119 288 c 1,13,14
 117 331 117 331 110.5 376.5 c 128,-1,15
 104 422 104 422 93 466.5 c 128,-1,16
 82 511 82 511 67 551 c 1,17,-1
 -7 551 l 1,18,-1
 -7 622 l 1,19,-1
 610 622 l 1,20,-1
 610 551 l 1,21,-1
 514 551 l 1,22,-1
 514 0 l 1,23,-1
 433 0 l 1,0,-1
193 332 m 1,24,-1
 433 332 l 1,25,-1
 433 551 l 1,26,-1
 153 551 l 1,27,28
 166 511 166 511 174.5 472.5 c 128,-1,29
 183 434 183 434 188 399 c 128,-1,30
 193 364 193 364 193 332 c 1,24,-1
281 -9 m 0,31,32
 258 -9 258 -9 242 6 c 128,-1,33
 226 21 226 21 226 48 c 256,34,35
 226 75 226 75 242 90 c 128,-1,36
 258 105 258 105 281 105 c 256,37,38
 304 105 304 105 320 90 c 128,-1,39
 336 75 336 75 336 48 c 256,40,41
 336 21 336 21 320.5 6 c 128,-1,42
 305 -9 305 -9 281 -9 c 0,31,32
EndSplineSet
Ligature2: "'nukt' Nukta Forms in Gurmukhi2 lookup 2 subtable" saguru nuktaguru
EndChar

StartChar: saguru
Encoding: 2616 2616 48
Width: 596
GlyphClass: 2
Flags: W
AnchorPoint: "Anchor-2" 596 0 basechar 0
LayerCount: 2
Fore
SplineSet
426 0 m 1,0,-1
 426 261 l 1,1,-1
 192 261 l 1,2,3
 190 206 190 206 179.5 165.5 c 128,-1,4
 169 125 169 125 150.5 103 c 128,-1,5
 132 81 132 81 105 81 c 0,6,7
 85 81 85 81 71.5 93 c 128,-1,8
 58 105 58 105 58 139 c 0,9,10
 58 154 58 154 63 178.5 c 128,-1,11
 68 203 68 203 81.5 232 c 128,-1,12
 95 261 95 261 119 288 c 1,13,14
 117 331 117 331 110.5 376.5 c 128,-1,15
 104 422 104 422 93 466.5 c 128,-1,16
 82 511 82 511 67 551 c 1,17,-1
 -7 551 l 1,18,-1
 -7 622 l 1,19,-1
 603 622 l 1,20,-1
 603 551 l 1,21,-1
 507 551 l 1,22,-1
 507 0 l 1,23,-1
 426 0 l 1,0,-1
193 332 m 1,24,-1
 426 332 l 1,25,-1
 426 551 l 1,26,-1
 153 551 l 1,27,28
 166 511 166 511 174.5 472.5 c 128,-1,29
 183 434 183 434 188 399 c 128,-1,30
 193 364 193 364 193 332 c 1,24,-1
EndSplineSet
EndChar

StartChar: haguru
Encoding: 2617 2617 49
Width: 576
GlyphClass: 2
Flags: W
AnchorPoint: "Anchor-3" 357 0 basechar 0
AnchorPoint: "Anchor-2" 522 0 basechar 0
LayerCount: 2
Fore
SplineSet
309 0 m 0,0,1
 255 0 255 0 206.5 21.5 c 128,-1,2
 158 43 158 43 119.5 79.5 c 128,-1,3
 81 116 81 116 59 162.5 c 128,-1,4
 37 209 37 209 37 258 c 0,5,6
 37 310 37 310 60 343 c 128,-1,7
 83 376 83 376 125.5 392 c 128,-1,8
 168 408 168 408 228 408 c 0,9,10
 239 408 239 408 251 407.5 c 128,-1,11
 263 407 263 407 270 405 c 1,12,-1
 264 333 l 1,13,14
 256 335 256 335 245 335 c 128,-1,15
 234 335 234 335 226 335 c 0,16,17
 175 335 175 335 146.5 317.5 c 128,-1,18
 118 300 118 300 118 253 c 0,19,20
 118 220 118 220 135 188 c 128,-1,21
 152 156 152 156 180.5 130 c 128,-1,22
 209 104 209 104 244.5 88.5 c 128,-1,23
 280 73 280 73 317 73 c 0,24,25
 338 73 338 73 357 78 c 128,-1,26
 376 83 376 83 387 96 c 0,27,28
 396 107 396 107 401 124.5 c 128,-1,29
 406 142 406 142 406 183 c 2,30,-1
 406 551 l 1,31,-1
 -7 551 l 1,32,-1
 -7 622 l 1,33,-1
 583 622 l 1,34,-1
 583 551 l 1,35,-1
 487 551 l 1,36,-1
 487 172 l 2,37,38
 487 113 487 113 467.5 75 c 128,-1,39
 448 37 448 37 408.5 18.5 c 128,-1,40
 369 0 369 0 309 0 c 0,0,1
EndSplineSet
EndChar

StartChar: nuktaguru
Encoding: 2620 2620 50
Width: 0
GlyphClass: 4
Flags: W
AnchorPoint: "Anchor-5" -283 0 mark 0
AnchorPoint: "Anchor-1" -283 0 mark 0
LayerCount: 2
Fore
SplineSet
-283 -191 m 0,0,1
 -305 -191 -305 -191 -321.5 -176 c 128,-1,2
 -338 -161 -338 -161 -338 -134 c 256,3,4
 -338 -107 -338 -107 -321.5 -92 c 128,-1,5
 -305 -77 -305 -77 -283 -77 c 0,6,7
 -260 -77 -260 -77 -244 -92 c 128,-1,8
 -228 -107 -228 -107 -228 -134 c 256,9,10
 -228 -161 -228 -161 -243.5 -176 c 128,-1,11
 -259 -191 -259 -191 -283 -191 c 0,0,1
EndSplineSet
EndChar

StartChar: aamatraguru
Encoding: 2622 2622 51
Width: 235
GlyphClass: 2
Flags: W
AnchorPoint: "Anchor-0" 154 622 basechar 0
LayerCount: 2
Fore
SplineSet
74 261 m 1,0,-1
 74 551 l 1,1,-1
 -7 551 l 1,2,-1
 -7 622 l 1,3,-1
 242 622 l 1,4,-1
 242 551 l 1,5,-1
 154 551 l 1,6,-1
 154 261 l 1,7,-1
 74 261 l 1,0,-1
EndSplineSet
EndChar

StartChar: imatraguru
Encoding: 2623 2623 52
Width: 259
Flags: W
LayerCount: 2
Fore
SplineSet
89 0 m 1,0,-1
 89 551 l 1,1,-1
 -7 551 l 1,2,-1
 -7 622 l 1,3,-1
 89 622 l 1,4,-1
 89 668 l 2,5,6
 89 774 89 774 130 835 c 128,-1,7
 171 896 171 896 271 896 c 0,8,9
 320 896 320 896 358 877 c 128,-1,10
 396 858 396 858 417.5 819.5 c 128,-1,11
 439 781 439 781 439 721 c 0,12,13
 439 705 439 705 437.5 688.5 c 128,-1,14
 436 672 436 672 433 655 c 1,15,-1
 355 663 l 1,16,17
 357 674 357 674 358.5 689.5 c 128,-1,18
 360 705 360 705 360 724 c 0,19,20
 360 772 360 772 339.5 799 c 128,-1,21
 319 826 319 826 271 826 c 0,22,23
 230 826 230 826 208 805.5 c 128,-1,24
 186 785 186 785 178 750 c 128,-1,25
 170 715 170 715 170 670 c 2,26,-1
 170 622 l 1,27,-1
 266 622 l 1,28,-1
 266 551 l 1,29,-1
 170 551 l 1,30,-1
 170 0 l 1,31,-1
 89 0 l 1,0,-1
EndSplineSet
EndChar

StartChar: iimatraguru
Encoding: 2624 2624 53
Width: 259
Flags: W
LayerCount: 2
Fore
SplineSet
89 0 m 1,0,-1
 89 551 l 1,1,-1
 -7 551 l 1,2,-1
 -7 622 l 1,3,-1
 89 622 l 1,4,-1
 89 654 l 2,5,6
 89 693 89 693 86 725 c 128,-1,7
 83 757 83 757 73 779.5 c 128,-1,8
 63 802 63 802 44.5 814 c 128,-1,9
 26 826 26 826 -6 826 c 0,10,11
 -58 826 -58 826 -80.5 798.5 c 128,-1,12
 -103 771 -103 771 -103 721 c 0,13,14
 -103 705 -103 705 -101 690 c 128,-1,15
 -99 675 -99 675 -97 663 c 1,16,-1
 -175 655 l 1,17,18
 -178 671 -178 671 -180 688 c 128,-1,19
 -182 705 -182 705 -182 722 c 0,20,21
 -182 778 -182 778 -159.5 816.5 c 128,-1,22
 -137 855 -137 855 -97 875.5 c 128,-1,23
 -57 896 -57 896 -4 896 c 0,24,25
 64 896 64 896 102 868 c 128,-1,26
 140 840 140 840 155 791.5 c 128,-1,27
 170 743 170 743 170 679 c 2,28,-1
 170 622 l 1,29,-1
 266 622 l 1,30,-1
 266 551 l 1,31,-1
 170 551 l 1,32,-1
 170 0 l 1,33,-1
 89 0 l 1,0,-1
EndSplineSet
EndChar

StartChar: umatraguru
Encoding: 2625 2625 54
Width: 0
GlyphClass: 4
Flags: W
AnchorPoint: "Anchor-5" -305 0 mark 0
AnchorPoint: "Anchor-1" -305 0 mark 0
LayerCount: 2
Fore
SplineSet
-305 -182 m 256,0,1
 -366 -182 -366 -182 -415.5 -166.5 c 128,-1,2
 -465 -151 -465 -151 -497 -131 c 1,3,-1
 -482 -63 l 1,4,5
 -448 -82 -448 -82 -406 -96.5 c 128,-1,6
 -364 -111 -364 -111 -305 -111 c 0,7,8
 -247 -111 -247 -111 -204 -96.5 c 128,-1,9
 -161 -82 -161 -82 -127 -63 c 1,10,-1
 -113 -131 l 1,11,12
 -145 -151 -145 -151 -194.5 -166.5 c 128,-1,13
 -244 -182 -244 -182 -305 -182 c 256,0,1
EndSplineSet
Substitution2: "Single Substitution lookup 8 subtable" umatralowguru
EndChar

StartChar: uumatraguru
Encoding: 2626 2626 55
Width: 0
GlyphClass: 4
Flags: W
AnchorPoint: "Anchor-5" -305 0 mark 0
AnchorPoint: "Anchor-1" -305 0 mark 0
LayerCount: 2
Fore
SplineSet
-305 -156 m 256,0,1
 -366 -156 -366 -156 -415.5 -140.5 c 128,-1,2
 -465 -125 -465 -125 -497 -105 c 1,3,-1
 -482 -44 l 1,4,5
 -448 -63 -448 -63 -406.5 -77 c 128,-1,6
 -365 -91 -365 -91 -305 -91 c 256,7,8
 -245 -91 -245 -91 -203 -77 c 128,-1,9
 -161 -63 -161 -63 -127 -44 c 1,10,-1
 -113 -105 l 1,11,12
 -145 -125 -145 -125 -194.5 -140.5 c 128,-1,13
 -244 -156 -244 -156 -305 -156 c 256,0,1
-305 -287 m 256,14,15
 -366 -287 -366 -287 -415.5 -271.5 c 128,-1,16
 -465 -256 -465 -256 -497 -236 c 1,17,-1
 -482 -174 l 1,18,19
 -448 -193 -448 -193 -406.5 -207.5 c 128,-1,20
 -365 -222 -365 -222 -305 -222 c 256,21,22
 -245 -222 -245 -222 -203 -207.5 c 128,-1,23
 -161 -193 -161 -193 -127 -174 c 1,24,-1
 -113 -236 l 1,25,26
 -145 -256 -145 -256 -194.5 -271.5 c 128,-1,27
 -244 -287 -244 -287 -305 -287 c 256,14,15
EndSplineSet
Substitution2: "Single Substitution lookup 8 subtable" uumatralowguru
EndChar

StartChar: eematraguru
Encoding: 2631 2631 56
Width: 0
GlyphClass: 4
Flags: W
AnchorPoint: "Anchor-4" -89 622 mark 0
AnchorPoint: "Anchor-0" -89 622 mark 0
LayerCount: 2
Fore
SplineSet
-167 615 m 1,0,1
 -186 695 -186 695 -215 739.5 c 128,-1,2
 -244 784 -244 784 -282 802 c 128,-1,3
 -320 820 -320 820 -366 820 c 0,4,5
 -374 820 -374 820 -381.5 820 c 128,-1,6
 -389 820 -389 820 -394 819 c 1,7,-1
 -398 895 l 1,8,9
 -390 896 -390 896 -383.5 896 c 128,-1,10
 -377 896 -377 896 -373 896 c 0,11,12
 -299 896 -299 896 -243 866 c 128,-1,13
 -187 836 -187 836 -149 774 c 128,-1,14
 -111 712 -111 712 -90 615 c 1,15,-1
 -167 615 l 1,0,1
EndSplineSet
EndChar

StartChar: aimatraguru
Encoding: 2632 2632 57
Width: 0
GlyphClass: 4
Flags: W
AnchorPoint: "Anchor-4" -89 622 mark 0
AnchorPoint: "Anchor-0" -89 622 mark 0
LayerCount: 2
Fore
SplineSet
-143 610 m 1,0,1
 -162 690 -162 690 -191.5 736.5 c 128,-1,2
 -221 783 -221 783 -262.5 802.5 c 128,-1,3
 -304 822 -304 822 -359 822 c 0,4,5
 -363 822 -363 822 -367 822 c 128,-1,6
 -371 822 -371 822 -374 822 c 2,7,-1
 -378 896 l 1,8,9
 -374 896 -374 896 -368.5 896 c 128,-1,10
 -363 896 -363 896 -359 896 c 0,11,12
 -283 896 -283 896 -228.5 867 c 128,-1,13
 -174 838 -174 838 -138 776 c 128,-1,14
 -102 714 -102 714 -83 615 c 1,15,-1
 -143 610 l 1,0,1
-159 577 m 1,16,17
 -183 618 -183 618 -214.5 642 c 128,-1,18
 -246 666 -246 666 -285.5 676 c 128,-1,19
 -325 686 -325 686 -374 686 c 0,20,21
 -378 686 -378 686 -383 686 c 128,-1,22
 -388 686 -388 686 -393 686 c 1,23,-1
 -398 759 l 1,24,25
 -393 760 -393 760 -387 760 c 128,-1,26
 -381 760 -381 760 -377 760 c 0,27,28
 -314 760 -314 760 -265.5 742 c 128,-1,29
 -217 724 -217 724 -180.5 688 c 128,-1,30
 -144 652 -144 652 -117 598 c 1,31,-1
 -159 577 l 1,16,17
EndSplineSet
EndChar

StartChar: oomatraguru
Encoding: 2635 2635 58
Width: 0
GlyphClass: 4
Flags: W
AnchorPoint: "Anchor-4" -89 622 mark 0
AnchorPoint: "Anchor-0" -89 622 mark 0
LayerCount: 2
Fore
SplineSet
-168 615 m 1,0,1
 -171 656 -171 656 -180 681 c 128,-1,2
 -189 706 -189 706 -204.5 717.5 c 128,-1,3
 -220 729 -220 729 -246 729 c 0,4,5
 -263 729 -263 729 -281.5 726.5 c 128,-1,6
 -300 724 -300 724 -320 724 c 0,7,8
 -355 724 -355 724 -383.5 737.5 c 128,-1,9
 -412 751 -412 751 -434 784.5 c 128,-1,10
 -456 818 -456 818 -472 877 c 1,11,-1
 -400 896 l 1,12,13
 -389 863 -389 863 -379 840.5 c 128,-1,14
 -369 818 -369 818 -354 806.5 c 128,-1,15
 -339 795 -339 795 -313 795 c 0,16,17
 -296 795 -296 795 -275.5 797.5 c 128,-1,18
 -255 800 -255 800 -238 800 c 0,19,20
 -202 800 -202 800 -170 785 c 128,-1,21
 -138 770 -138 770 -117.5 730 c 128,-1,22
 -97 690 -97 690 -95 615 c 1,23,-1
 -168 615 l 1,0,1
EndSplineSet
Substitution2: "Single Substitution lookup 11 subtable" oomatra1guru
EndChar

StartChar: aumatraguru
Encoding: 2636 2636 59
Width: 0
GlyphClass: 4
Flags: W
AnchorPoint: "Anchor-4" -89 622 mark 0
AnchorPoint: "Anchor-0" -89 622 mark 0
LayerCount: 2
Fore
SplineSet
-253 679 m 1,0,1
 -260 696 -260 696 -264.5 717 c 128,-1,2
 -269 738 -269 738 -269 755 c 0,3,4
 -269 810 -269 810 -229.5 842.5 c 128,-1,5
 -190 875 -190 875 -130 875 c 0,6,7
 -65 875 -65 875 -27.5 842.5 c 128,-1,8
 10 810 10 810 10 754 c 0,9,10
 10 738 10 738 5.5 717 c 128,-1,11
 1 696 1 696 -6 679 c 1,12,-1
 -75 689 l 1,13,14
 -68 704 -68 704 -65 718 c 128,-1,15
 -62 732 -62 732 -62 747 c 0,16,17
 -62 778 -62 778 -79.5 794.5 c 128,-1,18
 -97 811 -97 811 -130 811 c 0,19,20
 -162 811 -162 811 -179.5 794 c 128,-1,21
 -197 777 -197 777 -197 747 c 0,22,23
 -197 732 -197 732 -194 718 c 128,-1,24
 -191 704 -191 704 -185 689 c 1,25,-1
 -253 679 l 1,0,1
-290 764 m 256,26,27
 -321 764 -321 764 -350 773.5 c 128,-1,28
 -379 783 -379 783 -401 807.5 c 128,-1,29
 -423 832 -423 832 -435 877 c 1,30,-1
 -364 896 l 1,31,32
 -351 859 -351 859 -335.5 844 c 128,-1,33
 -320 829 -320 829 -286 829 c 0,34,35
 -261 829 -261 829 -248 834 c 128,-1,36
 -235 839 -235 839 -213 854 c 1,37,-1
 -197 802 l 1,38,39
 -209 789 -209 789 -234 776.5 c 128,-1,40
 -259 764 -259 764 -290 764 c 256,26,27
EndSplineSet
Position2: "Single Positioning lookup 0 subtable" dx=20 dy=0 dh=0 dv=0
EndChar

StartChar: halantguru
Encoding: 2637 2637 60
Width: 0
GlyphClass: 4
Flags: W
AnchorPoint: "Anchor-2" 0 0 mark 0
LayerCount: 2
Fore
SplineSet
26 -246 m 1,0,1
 2 -185 2 -185 -29.5 -156.5 c 128,-1,2
 -61 -128 -61 -128 -94 -119.5 c 128,-1,3
 -127 -111 -127 -111 -156 -111 c 0,4,5
 -161 -111 -161 -111 -166.5 -111 c 128,-1,6
 -172 -111 -172 -111 -178 -112 c 1,7,-1
 -183 -36 l 1,8,9
 -175 -35 -175 -35 -168.5 -35 c 128,-1,10
 -162 -35 -162 -35 -158 -35 c 0,11,12
 -106 -35 -106 -35 -58.5 -52 c 128,-1,13
 -11 -69 -11 -69 29 -110.5 c 128,-1,14
 69 -152 69 -152 96 -225 c 1,15,-1
 26 -246 l 1,0,1
EndSplineSet
EndChar

StartChar: udaatguru
Encoding: 2641 2641 61
Width: 0
GlyphClass: 4
Flags: W
AnchorPoint: "Anchor-6" -170 0 mark 0
AnchorPoint: "Anchor-3" -170 0 mark 0
LayerCount: 2
Fore
SplineSet
114 -310 m 2,0,1
 111 -311 111 -311 105.5 -311.5 c 128,-1,2
 100 -312 100 -312 95 -312 c 0,3,4
 -5 -312 -5 -312 -71 -248.5 c 128,-1,5
 -137 -185 -137 -185 -169 -52 c 1,6,-1
 -98 -30 l 1,7,8
 -78 -109 -78 -109 -49 -154 c 128,-1,9
 -20 -199 -20 -199 18.5 -217 c 128,-1,10
 57 -235 57 -235 102 -235 c 0,11,12
 107 -235 107 -235 110.5 -235 c 128,-1,13
 114 -235 114 -235 118 -234 c 1,14,-1
 114 -310 l 2,0,1
EndSplineSet
EndChar

StartChar: januktaguru
Encoding: 2651 2651 64
Width: 626
GlyphClass: 2
Flags: W
AnchorPoint: "Anchor-2" 626 0 basechar 0
LayerCount: 2
Fore
SplineSet
106 0 m 1,0,-1
 106 291 l 1,1,-1
 88 291 l 2,2,3
 60 291 60 291 48.5 302 c 128,-1,4
 37 313 37 313 37 329 c 0,5,6
 37 347 37 347 47.5 366.5 c 128,-1,7
 58 386 58 386 74.5 403.5 c 128,-1,8
 91 421 91 421 109.5 431.5 c 128,-1,9
 128 442 128 442 144 442 c 0,10,11
 168 442 168 442 177.5 425.5 c 128,-1,12
 187 409 187 409 187 387 c 2,13,-1
 187 362 l 1,14,-1
 456 362 l 1,15,-1
 456 551 l 1,16,-1
 -7 551 l 1,17,-1
 -7 622 l 1,18,-1
 634 622 l 1,19,-1
 634 551 l 1,20,-1
 537 551 l 1,21,-1
 537 0 l 1,22,-1
 456 0 l 1,23,-1
 456 291 l 1,24,-1
 187 291 l 1,25,-1
 187 0 l 1,26,-1
 106 0 l 1,0,-1
321 -9 m 0,27,28
 299 -9 299 -9 282.5 6 c 128,-1,29
 266 21 266 21 266 48 c 256,30,31
 266 75 266 75 282.5 90 c 128,-1,32
 299 105 299 105 321 105 c 0,33,34
 344 105 344 105 360 90 c 128,-1,35
 376 75 376 75 376 48 c 256,36,37
 376 21 376 21 360.5 6 c 128,-1,38
 345 -9 345 -9 321 -9 c 0,27,28
EndSplineSet
Ligature2: "'nukt' Nukta Forms in Gurmukhi2 lookup 2 subtable" jaguru nuktaguru
EndChar

StartChar: rraguru
Encoding: 2652 2652 65
Width: 569
GlyphClass: 2
Flags: W
AnchorPoint: "Anchor-3" 386 0 basechar 0
AnchorPoint: "Anchor-2" 515 0 basechar 0
AnchorPoint: "Anchor-0" 477 622 basechar 0
LayerCount: 2
Fore
SplineSet
283 81 m 0,0,1
 225 81 225 81 180.5 92 c 128,-1,2
 136 103 136 103 104 120 c 1,3,-1
 26 150 l 1,4,-1
 63 207 l 1,5,6
 120 179 120 179 169.5 166 c 128,-1,7
 219 153 219 153 277 153 c 0,8,9
 350 153 350 153 391.5 172.5 c 128,-1,10
 433 192 433 192 433 235 c 0,11,12
 433 270 433 270 405 295 c 128,-1,13
 377 320 377 320 323 334 c 1,14,15
 301 330 301 330 270 326 c 128,-1,16
 239 322 239 322 208 322 c 0,17,18
 162 322 162 322 138 330.5 c 128,-1,19
 114 339 114 339 105 352 c 128,-1,20
 96 365 96 365 96 378 c 0,21,22
 96 407 96 407 121.5 418 c 128,-1,23
 147 429 147 429 184 429 c 0,24,25
 224 429 224 429 259.5 422 c 128,-1,26
 295 415 295 415 329 403 c 1,27,28
 364 417 364 417 386.5 445.5 c 128,-1,29
 409 474 409 474 409 521 c 0,30,31
 409 532 409 532 408 541 c 128,-1,32
 407 550 407 550 405 560 c 1,33,-1
 430 551 l 1,34,-1
 -7 551 l 1,35,-1
 -7 622 l 1,36,-1
 576 622 l 1,37,-1
 576 551 l 1,38,-1
 458 551 l 1,39,-1
 485 560 l 1,40,41
 487 549 487 549 488.5 539 c 128,-1,42
 490 529 490 529 490 520 c 0,43,44
 490 459 490 459 466.5 426.5 c 128,-1,45
 443 394 443 394 408 374 c 1,46,47
 459 349 459 349 487 317 c 128,-1,48
 515 285 515 285 515 232 c 0,49,50
 515 183 515 183 485.5 149.5 c 128,-1,51
 456 116 456 116 404 98.5 c 128,-1,52
 352 81 352 81 283 81 c 0,0,1
117 -19 m 1,53,54
 106 6 106 6 89 38 c 128,-1,55
 72 70 72 70 55 100.5 c 128,-1,56
 38 131 38 131 26 150 c 1,57,-1
 83 167 l 1,58,59
 104 143 104 143 122 120 c 128,-1,60
 140 97 140 97 157 71.5 c 128,-1,61
 174 46 174 46 192 14 c 1,62,-1
 117 -19 l 1,53,54
421 -20 m 1,63,64
 405 10 405 10 386.5 39 c 128,-1,65
 368 68 368 68 348 96 c 128,-1,66
 328 124 328 124 306 150 c 1,67,-1
 372 139 l 1,68,-1
 400 139 l 1,69,70
 418 119 418 119 434 99.5 c 128,-1,71
 450 80 450 80 465.5 59 c 128,-1,72
 481 38 481 38 496 15 c 1,73,-1
 421 -20 l 1,63,64
EndSplineSet
Ligature2: "'nukt' Nukta Forms in Gurmukhi2 lookup 2 subtable" ddaguru nuktaguru
EndChar

StartChar: zeroguru
Encoding: 2662 2662 67
Width: 551
Flags: W
LayerCount: 2
Fore
SplineSet
276 78 m 0,0,1
 202 78 202 78 149 107.5 c 128,-1,2
 96 137 96 137 67.5 190.5 c 128,-1,3
 39 244 39 244 39 316 c 256,4,5
 39 388 39 388 69 441 c 128,-1,6
 99 494 99 494 152.5 523.5 c 128,-1,7
 206 553 206 553 275 553 c 0,8,9
 347 553 347 553 400.5 523.5 c 128,-1,10
 454 494 454 494 483.5 440.5 c 128,-1,11
 513 387 513 387 513 315 c 256,12,13
 513 243 513 243 484 190 c 128,-1,14
 455 137 455 137 402 107.5 c 128,-1,15
 349 78 349 78 276 78 c 0,0,1
273 151 m 0,16,17
 325 151 325 151 360 172 c 128,-1,18
 395 193 395 193 413 230.5 c 128,-1,19
 431 268 431 268 431 317 c 0,20,21
 431 367 431 367 412.5 403.5 c 128,-1,22
 394 440 394 440 359.5 460 c 128,-1,23
 325 480 325 480 277 480 c 0,24,25
 227 480 227 480 192 459 c 128,-1,26
 157 438 157 438 139 400.5 c 128,-1,27
 121 363 121 363 121 313 c 0,28,29
 121 264 121 264 139 227.5 c 128,-1,30
 157 191 157 191 191 171 c 128,-1,31
 225 151 225 151 273 151 c 0,16,17
EndSplineSet
EndChar

StartChar: oneguru
Encoding: 2663 2663 68
Width: 551
Flags: W
LayerCount: 2
Fore
SplineSet
500 0 m 1,0,1
 459 0 459 0 432 11 c 128,-1,2
 405 22 405 22 389 40 c 0,3,4
 367 66 367 66 361 98 c 128,-1,5
 355 130 355 130 355 164 c 2,6,-1
 355 445 l 2,7,8
 355 479 355 479 346.5 502 c 128,-1,9
 338 525 338 525 320 538 c 0,10,11
 306 549 306 549 286 554.5 c 128,-1,12
 266 560 266 560 243 560 c 0,13,14
 193 560 193 560 167 534 c 128,-1,15
 141 508 141 508 141 464 c 0,16,17
 141 419 141 419 166.5 394.5 c 128,-1,18
 192 370 192 370 236 370 c 0,19,20
 283 370 283 370 312 383.5 c 128,-1,21
 341 397 341 397 363 418 c 1,22,-1
 377 342 l 1,23,24
 345 320 345 320 312.5 309 c 128,-1,25
 280 298 280 298 236 298 c 0,26,27
 185 298 185 298 145 317 c 128,-1,28
 105 336 105 336 82.5 373 c 128,-1,29
 60 410 60 410 60 464 c 0,30,31
 60 510 60 510 82 548 c 128,-1,32
 104 586 104 586 146 609 c 128,-1,33
 188 632 188 632 247 632 c 0,34,35
 289 632 289 632 322 621.5 c 128,-1,36
 355 611 355 611 380 591 c 0,37,38
 401 574 401 574 413.5 552.5 c 128,-1,39
 426 531 426 531 431 506 c 128,-1,40
 436 481 436 481 436 451 c 2,41,-1
 436 165 l 2,42,43
 436 130 436 130 441.5 110 c 128,-1,44
 447 90 447 90 463 81.5 c 128,-1,45
 479 73 479 73 510 73 c 1,46,-1
 500 0 l 1,0,1
EndSplineSet
EndChar

StartChar: twoguru
Encoding: 2664 2664 69
Width: 551
Flags: W
LayerCount: 2
Fore
SplineSet
200 148 m 0,0,1
 163 148 163 148 132 154 c 128,-1,2
 101 160 101 160 83 174.5 c 128,-1,3
 65 189 65 189 65 214 c 0,4,5
 65 237 65 237 84 251 c 128,-1,6
 103 265 103 265 143 265 c 0,7,8
 181 265 181 265 215 253 c 128,-1,9
 249 241 249 241 286 218 c 1,10,-1
 237 199 l 1,11,-1
 189 218 l 1,12,13
 251 219 251 219 297.5 242.5 c 128,-1,14
 344 266 344 266 370.5 307 c 128,-1,15
 397 348 397 348 397 402 c 0,16,17
 397 451 397 451 378.5 486 c 128,-1,18
 360 521 360 521 322.5 540 c 128,-1,19
 285 559 285 559 228 559 c 0,20,21
 181 559 181 559 142 549 c 128,-1,22
 103 539 103 539 71 524 c 1,23,-1
 43 590 l 1,24,25
 86 610 86 610 132 621 c 128,-1,26
 178 632 178 632 235 632 c 0,27,28
 315 632 315 632 369 604 c 128,-1,29
 423 576 423 576 451 524.5 c 128,-1,30
 479 473 479 473 479 404 c 0,31,32
 479 344 479 344 458 296.5 c 128,-1,33
 437 249 437 249 399 216 c 128,-1,34
 361 183 361 183 310.5 165.5 c 128,-1,35
 260 148 260 148 200 148 c 0,0,1
443 -18 m 1,36,37
 406 19 406 19 364.5 54.5 c 128,-1,38
 323 90 323 90 280 120.5 c 128,-1,39
 237 151 237 151 194 173 c 1,40,-1
 254 191 l 1,41,-1
 288 201 l 1,42,43
 311 188 311 188 338.5 169 c 128,-1,44
 366 150 366 150 394.5 127.5 c 128,-1,45
 423 105 423 105 450.5 81.5 c 128,-1,46
 478 58 478 58 501 35 c 1,47,-1
 443 -18 l 1,36,37
EndSplineSet
EndChar

StartChar: threeguru
Encoding: 2665 2665 70
Width: 551
Flags: W
LayerCount: 2
Fore
SplineSet
422 -66 m 1,0,1
 398 -43 398 -43 364 -13 c 128,-1,2
 330 17 330 17 292 45.5 c 128,-1,3
 254 74 254 74 216 93 c 1,4,-1
 274 134 l 1,5,6
 307 121 307 121 344 96.5 c 128,-1,7
 381 72 381 72 416.5 43 c 128,-1,8
 452 14 452 14 480 -14 c 1,9,-1
 422 -66 l 1,0,1
364 349 m 1,10,-1
 365 371 l 1,11,12
 413 354 413 354 447.5 321.5 c 128,-1,13
 482 289 482 289 482 236 c 0,14,15
 482 181 482 181 445 145 c 128,-1,16
 408 109 408 109 342 91.5 c 128,-1,17
 276 74 276 74 187 74 c 0,18,19
 132 74 132 74 93 87 c 128,-1,20
 54 100 54 100 54 135 c 0,21,22
 54 155 54 155 72.5 168.5 c 128,-1,23
 91 182 91 182 131 182 c 0,24,25
 175 182 175 182 212.5 170 c 128,-1,26
 250 158 250 158 292 134 c 1,27,-1
 227 144 l 1,28,29
 318 146 318 146 359 173 c 128,-1,30
 400 200 400 200 400 237 c 0,31,32
 400 272 400 272 367 298.5 c 128,-1,33
 334 325 334 325 266 333 c 1,34,-1
 326 334 l 1,35,36
 294 324 294 324 262 319 c 128,-1,37
 230 314 230 314 199 314 c 0,38,39
 156 314 156 314 133 322.5 c 128,-1,40
 110 331 110 331 101.5 344 c 128,-1,41
 93 357 93 357 93 371 c 0,42,43
 93 400 93 400 117.5 410.5 c 128,-1,44
 142 421 142 421 173 421 c 0,45,46
 215 421 215 421 252.5 410.5 c 128,-1,47
 290 400 290 400 328 386 c 1,48,-1
 267 386 l 1,49,50
 335 397 335 397 365.5 422 c 128,-1,51
 396 447 396 447 396 481 c 0,52,53
 396 521 396 521 360 540 c 128,-1,54
 324 559 324 559 253 559 c 0,55,56
 201 559 201 559 151 548 c 128,-1,57
 101 537 101 537 69 523 c 1,58,-1
 42 590 l 1,59,60
 85 608 85 608 137.5 620 c 128,-1,61
 190 632 190 632 257 632 c 0,62,63
 328 632 328 632 377.5 614 c 128,-1,64
 427 596 427 596 452.5 563 c 128,-1,65
 478 530 478 530 478 485 c 0,66,67
 478 436 478 436 446 403.5 c 128,-1,68
 414 371 414 371 364 349 c 1,10,-1
EndSplineSet
EndChar

StartChar: fourguru
Encoding: 2666 2666 71
Width: 551
Flags: W
LayerCount: 2
Fore
SplineSet
275 276 m 0,0,1
 199 276 199 276 147.5 299.5 c 128,-1,2
 96 323 96 323 70.5 363.5 c 128,-1,3
 45 404 45 404 45 454 c 0,4,5
 45 489 45 489 62.5 525.5 c 128,-1,6
 80 562 80 562 118.5 590.5 c 128,-1,7
 157 619 157 619 219 627 c 1,8,-1
 229 558 l 1,9,10
 174 548 174 548 150 517.5 c 128,-1,11
 126 487 126 487 126 449 c 0,12,13
 126 420 126 420 139.5 394.5 c 128,-1,14
 153 369 153 369 185.5 353.5 c 128,-1,15
 218 338 218 338 274 338 c 0,16,17
 356 338 356 338 390.5 368 c 128,-1,18
 425 398 425 398 425 449 c 0,19,20
 425 487 425 487 402.5 516.5 c 128,-1,21
 380 546 380 546 322 558 c 1,22,-1
 332 627 l 1,23,24
 395 618 395 618 433 589.5 c 128,-1,25
 471 561 471 561 488.5 525 c 128,-1,26
 506 489 506 489 506 454 c 0,27,28
 506 404 506 404 480.5 363.5 c 128,-1,29
 455 323 455 323 403.5 299.5 c 128,-1,30
 352 276 352 276 275 276 c 0,0,1
276 -8 m 256,31,32
 208 -8 208 -8 160.5 14 c 128,-1,33
 113 36 113 36 88.5 75.5 c 128,-1,34
 64 115 64 115 64 167 c 0,35,36
 64 218 64 218 91 252.5 c 128,-1,37
 118 287 118 287 166 304.5 c 128,-1,38
 214 322 214 322 275 322 c 0,39,40
 337 322 337 322 384.5 304 c 128,-1,41
 432 286 432 286 459 251.5 c 128,-1,42
 486 217 486 217 486 165 c 256,43,44
 486 113 486 113 461.5 74.5 c 128,-1,45
 437 36 437 36 390.5 14 c 128,-1,46
 344 -8 344 -8 276 -8 c 256,31,32
274 64 m 0,47,48
 321 64 321 64 349.5 77 c 128,-1,49
 378 90 378 90 391 113.5 c 128,-1,50
 404 137 404 137 404 167 c 0,51,52
 404 213 404 213 370.5 239.5 c 128,-1,53
 337 266 337 266 278 266 c 0,54,55
 211 266 211 266 178.5 238 c 128,-1,56
 146 210 146 210 146 165 c 0,57,58
 146 135 146 135 160 112 c 128,-1,59
 174 89 174 89 202.5 76.5 c 128,-1,60
 231 64 231 64 274 64 c 0,47,48
EndSplineSet
EndChar

StartChar: fiveguru
Encoding: 2667 2667 72
Width: 551
Flags: W
LayerCount: 2
Fore
SplineSet
389 0 m 1,0,-1
 389 194 l 1,1,-1
 415 190 l 1,2,3
 381 174 381 174 348 165.5 c 128,-1,4
 315 157 315 157 273 157 c 0,5,6
 216 157 216 157 171 180.5 c 128,-1,7
 126 204 126 204 92 247.5 c 128,-1,8
 58 291 58 291 34 349 c 1,9,10
 64 373 64 373 84 403 c 128,-1,11
 104 433 104 433 104 474 c 0,12,13
 104 509 104 509 93.5 540 c 128,-1,14
 83 571 83 571 64 604 c 1,15,-1
 139 632 l 1,16,17
 160 593 160 593 172 554.5 c 128,-1,18
 184 516 184 516 184 475 c 0,19,20
 184 419 184 419 163.5 386.5 c 128,-1,21
 143 354 143 354 112 328 c 1,22,-1
 113 373 l 1,23,24
 145 303 145 303 181.5 267 c 128,-1,25
 218 231 218 231 275 231 c 0,26,27
 314 231 314 231 349 242.5 c 128,-1,28
 384 254 384 254 417 276 c 1,29,-1
 389 240 l 1,30,-1
 389 622 l 1,31,-1
 470 622 l 1,32,-1
 470 0 l 1,33,-1
 389 0 l 1,0,-1
EndSplineSet
EndChar

StartChar: sixguru
Encoding: 2668 2668 73
Width: 551
Flags: W
LayerCount: 2
Fore
SplineSet
343 511 m 1,0,1
 315 542 315 542 296 577 c 128,-1,2
 277 612 277 612 277 659 c 0,3,4
 277 693 277 693 293.5 722 c 128,-1,5
 310 751 310 751 345 769 c 128,-1,6
 380 787 380 787 435 787 c 0,7,8
 449 787 449 787 466.5 786 c 128,-1,9
 484 785 484 785 497 783 c 1,10,-1
 487 714 l 1,11,12
 477 716 477 716 466 716.5 c 128,-1,13
 455 717 455 717 441 717 c 0,14,15
 412 717 412 717 393 708 c 128,-1,16
 374 699 374 699 365.5 683.5 c 128,-1,17
 357 668 357 668 357 647 c 0,18,19
 357 614 357 614 374 583 c 128,-1,20
 391 552 391 552 434 521 c 1,21,-1
 343 511 l 1,0,1
481 97 m 1,22,-1
 510 32 l 1,23,24
 467 14 467 14 417.5 2.5 c 128,-1,25
 368 -9 368 -9 300 -9 c 0,26,27
 224 -9 224 -9 173.5 11 c 128,-1,28
 123 31 123 31 98.5 68.5 c 128,-1,29
 74 106 74 106 74 156 c 0,30,31
 74 188 74 188 87 214 c 128,-1,32
 100 240 100 240 124 261.5 c 128,-1,33
 148 283 148 283 180 298 c 1,34,-1
 179 276 l 1,35,36
 150 286 150 286 126 303 c 128,-1,37
 102 320 102 320 87.5 345.5 c 128,-1,38
 73 371 73 371 73 405 c 0,39,40
 73 458 73 458 107.5 492.5 c 128,-1,41
 142 527 142 527 201 544.5 c 128,-1,42
 260 562 260 562 333 562 c 0,43,44
 388 562 388 562 425 554.5 c 128,-1,45
 462 547 462 547 481 532 c 128,-1,46
 500 517 500 517 500 493 c 0,47,48
 500 468 500 468 480.5 456 c 128,-1,49
 461 444 461 444 432 444 c 0,50,51
 395 444 395 444 367 463.5 c 128,-1,52
 339 483 339 483 322 511 c 1,53,-1
 400 486 l 1,54,55
 380 490 380 490 365.5 491.5 c 128,-1,56
 351 493 351 493 341 493 c 0,57,58
 245 493 245 493 200 468 c 128,-1,59
 155 443 155 443 155 402 c 0,60,61
 155 381 155 381 165.5 363.5 c 128,-1,62
 176 346 176 346 204.5 332.5 c 128,-1,63
 233 319 233 319 285 311 c 1,64,-1
 218 314 l 1,65,66
 249 322 249 322 281.5 327.5 c 128,-1,67
 314 333 314 333 348 333 c 0,68,69
 391 333 391 333 413.5 324.5 c 128,-1,70
 436 316 436 316 444.5 303 c 128,-1,71
 453 290 453 290 453 276 c 0,72,73
 453 248 453 248 428.5 237 c 128,-1,74
 404 226 404 226 373 226 c 0,75,76
 333 226 333 226 293.5 235 c 128,-1,77
 254 244 254 244 216 260 c 1,78,-1
 274 260 l 1,79,80
 211 247 211 247 183 220 c 128,-1,81
 155 193 155 193 155 158 c 0,82,83
 155 125 155 125 172 104 c 128,-1,84
 189 83 189 83 223 73 c 128,-1,85
 257 63 257 63 309 63 c 0,86,87
 362 63 362 63 406 73 c 128,-1,88
 450 83 450 83 481 97 c 1,22,-1
EndSplineSet
EndChar

StartChar: sevenguru
Encoding: 2669 2669 74
Width: 551
Flags: W
LayerCount: 2
Fore
SplineSet
28 -9 m 1,0,-1
 28 64 l 1,1,2
 112 70 112 70 183 93 c 128,-1,3
 254 116 254 116 307 154.5 c 128,-1,4
 360 193 360 193 389.5 246.5 c 128,-1,5
 419 300 419 300 419 368 c 0,6,7
 419 421 419 421 402.5 464.5 c 128,-1,8
 386 508 386 508 352 534 c 128,-1,9
 318 560 318 560 266 560 c 256,10,11
 214 560 214 560 182.5 535 c 128,-1,12
 151 510 151 510 151 461 c 0,13,14
 151 428 151 428 164.5 402.5 c 128,-1,15
 178 377 178 377 200 355 c 1,16,-1
 132 317 l 1,17,18
 104 350 104 350 87.5 386.5 c 128,-1,19
 71 423 71 423 71 469 c 0,20,21
 71 511 71 511 93.5 548.5 c 128,-1,22
 116 586 116 586 160.5 609 c 128,-1,23
 205 632 205 632 269 632 c 0,24,25
 344 632 344 632 395.5 598 c 128,-1,26
 447 564 447 564 474 505 c 128,-1,27
 501 446 501 446 501 369 c 0,28,29
 501 284 501 284 465 217 c 128,-1,30
 429 150 429 150 364 102 c 128,-1,31
 299 54 299 54 213 26 c 128,-1,32
 127 -2 127 -2 28 -9 c 1,0,-1
EndSplineSet
EndChar

StartChar: eightguru
Encoding: 2670 2670 75
Width: 551
Flags: W
LayerCount: 2
Fore
SplineSet
415 0 m 0,0,1
 349 0 349 0 303 10 c 128,-1,2
 257 20 257 20 225 39.5 c 128,-1,3
 193 59 193 59 170 86 c 0,4,5
 150 111 150 111 136.5 140 c 128,-1,6
 123 169 123 169 116.5 207.5 c 128,-1,7
 110 246 110 246 110 297 c 2,8,-1
 110 476 l 1,9,-1
 87 476 l 2,10,11
 59 476 59 476 47.5 487 c 128,-1,12
 36 498 36 498 36 514 c 0,13,14
 36 534 36 534 46.5 554.5 c 128,-1,15
 57 575 57 575 74 592.5 c 128,-1,16
 91 610 91 610 110.5 621 c 128,-1,17
 130 632 130 632 147 632 c 0,18,19
 172 632 172 632 181.5 615 c 128,-1,20
 191 598 191 598 191 577 c 2,21,-1
 191 547 l 1,22,-1
 510 547 l 1,23,-1
 510 476 l 1,24,-1
 191 476 l 1,25,-1
 191 314 l 2,26,27
 191 259 191 259 197 223.5 c 128,-1,28
 203 188 203 188 214 166 c 128,-1,29
 225 144 225 144 241 127 c 0,30,31
 259 109 259 109 282 96.5 c 128,-1,32
 305 84 305 84 340.5 78 c 128,-1,33
 376 72 376 72 431 72 c 0,34,35
 448 72 448 72 468 74 c 128,-1,36
 488 76 488 76 506 78 c 1,37,-1
 513 5 l 1,38,39
 489 2 489 2 463 1 c 128,-1,40
 437 0 437 0 415 0 c 0,0,1
EndSplineSet
EndChar

StartChar: nineguru
Encoding: 2671 2671 76
Width: 551
Flags: W
LayerCount: 2
Fore
SplineSet
415 0 m 0,0,1
 349 0 349 0 303 10 c 128,-1,2
 257 20 257 20 225 39.5 c 128,-1,3
 193 59 193 59 170 86 c 0,4,5
 150 111 150 111 136.5 140 c 128,-1,6
 123 169 123 169 116.5 207.5 c 128,-1,7
 110 246 110 246 110 297 c 2,8,-1
 110 476 l 1,9,-1
 87 476 l 2,10,11
 59 476 59 476 47.5 487 c 128,-1,12
 36 498 36 498 36 514 c 0,13,14
 36 534 36 534 46.5 554.5 c 128,-1,15
 57 575 57 575 74 592.5 c 128,-1,16
 91 610 91 610 110.5 621 c 128,-1,17
 130 632 130 632 147 632 c 0,18,19
 172 632 172 632 181.5 615 c 128,-1,20
 191 598 191 598 191 577 c 2,21,-1
 191 547 l 1,22,-1
 510 547 l 1,23,-1
 510 476 l 1,24,-1
 191 476 l 1,25,-1
 191 314 l 2,26,27
 191 259 191 259 197 223.5 c 128,-1,28
 203 188 203 188 214 165.5 c 128,-1,29
 225 143 225 143 241 127 c 0,30,31
 259 109 259 109 282 96.5 c 128,-1,32
 305 84 305 84 340.5 78 c 128,-1,33
 376 72 376 72 431 72 c 0,34,35
 451 72 451 72 469 74 c 128,-1,36
 487 76 487 76 506 78 c 1,37,-1
 513 5 l 1,38,39
 488 2 488 2 462.5 1 c 128,-1,40
 437 0 437 0 415 0 c 0,0,1
418 511 m 1,41,42
 390 542 390 542 371 577 c 128,-1,43
 352 612 352 612 352 659 c 0,44,45
 352 693 352 693 368.5 722 c 128,-1,46
 385 751 385 751 420 769 c 128,-1,47
 455 787 455 787 510 787 c 0,48,49
 524 787 524 787 541.5 786 c 128,-1,50
 559 785 559 785 572 783 c 1,51,-1
 562 714 l 1,52,53
 552 716 552 716 541.5 716.5 c 128,-1,54
 531 717 531 717 517 717 c 0,55,56
 488 717 488 717 469 708 c 128,-1,57
 450 699 450 699 441.5 683.5 c 128,-1,58
 433 668 433 668 433 647 c 0,59,60
 433 614 433 614 449.5 583 c 128,-1,61
 466 552 466 552 509 521 c 1,62,-1
 418 511 l 1,41,42
EndSplineSet
EndChar

StartChar: tippiguru
Encoding: 2672 2672 77
Width: 0
GlyphClass: 4
Flags: W
AnchorPoint: "Anchor-4" -89 622 mark 0
AnchorPoint: "Anchor-0" -89 622 mark 0
LayerCount: 2
Fore
SplineSet
-259 679 m 1,0,1
 -266 696 -266 696 -270.5 717 c 128,-1,2
 -275 738 -275 738 -275 755 c 0,3,4
 -275 810 -275 810 -234.5 842.5 c 128,-1,5
 -194 875 -194 875 -130 875 c 0,6,7
 -63 875 -63 875 -23.5 842.5 c 128,-1,8
 16 810 16 810 16 754 c 0,9,10
 16 738 16 738 11.5 717 c 128,-1,11
 7 696 7 696 0 679 c 1,12,-1
 -69 689 l 1,13,14
 -62 704 -62 704 -59 718 c 128,-1,15
 -56 732 -56 732 -56 747 c 0,16,17
 -56 778 -56 778 -75.5 794.5 c 128,-1,18
 -95 811 -95 811 -130 811 c 256,19,20
 -165 811 -165 811 -184 794 c 128,-1,21
 -203 777 -203 777 -203 747 c 0,22,23
 -203 732 -203 732 -200 718 c 128,-1,24
 -197 704 -197 704 -190 689 c 1,25,-1
 -259 679 l 1,0,1
EndSplineSet
EndChar

StartChar: addakguru
Encoding: 2673 2673 78
Width: 0
GlyphClass: 4
Flags: W
LayerCount: 2
Fore
SplineSet
-129 685 m 256,0,1
 -176 685 -176 685 -208.5 704.5 c 128,-1,2
 -241 724 -241 724 -258.5 763.5 c 128,-1,3
 -276 803 -276 803 -278 863 c 1,4,-1
 -203 868 l 1,5,6
 -203 800 -203 800 -184.5 776 c 128,-1,7
 -166 752 -166 752 -130 752 c 0,8,9
 -93 752 -93 752 -75 776.5 c 128,-1,10
 -57 801 -57 801 -57 868 c 1,11,-1
 19 863 l 1,12,13
 17 803 17 803 -0.5 763.5 c 128,-1,14
 -18 724 -18 724 -50 704.5 c 128,-1,15
 -82 685 -82 685 -129 685 c 256,0,1
EndSplineSet
Substitution2: "Single Substitution lookup 11 subtable" addakbaraltguru
Position2: "Single Positioning lookup 0 subtable" dx=93 dy=0 dh=0 dv=0
EndChar

StartChar: iriguru
Encoding: 2674 2674 79
Width: 557
Flags: W
LayerCount: 2
Fore
SplineSet
36 200 m 1,0,1
 53 226 53 226 76.5 250.5 c 128,-1,2
 100 275 100 275 132 296 c 128,-1,3
 164 317 164 317 204 332 c 1,4,-1
 201 312 l 1,5,6
 150 329 150 329 117.5 361.5 c 128,-1,7
 85 394 85 394 69.5 442 c 128,-1,8
 54 490 54 490 54 551 c 1,9,-1
 -7 551 l 1,10,-1
 -7 622 l 1,11,-1
 564 622 l 1,12,-1
 564 551 l 1,13,-1
 474 551 l 1,14,-1
 474 320 l 1,15,-1
 444 291 l 1,16,-1
 316 291 l 2,17,18
 286 291 286 291 265 285.5 c 128,-1,19
 244 280 244 280 226 272 c 0,20,21
 191 256 191 256 163.5 230 c 128,-1,22
 136 204 136 204 116 175 c 1,23,-1
 116 219 l 1,24,25
 141 174 141 174 167 141.5 c 128,-1,26
 193 109 193 109 227.5 91 c 128,-1,27
 262 73 262 73 310 73 c 0,28,29
 361 73 361 73 399.5 84 c 128,-1,30
 438 95 438 95 483 117 c 1,31,-1
 511 46 l 1,32,33
 468 25 468 25 417.5 12.5 c 128,-1,34
 367 0 367 0 309 0 c 0,35,36
 239 0 239 0 187.5 26 c 128,-1,37
 136 52 136 52 99.5 97.5 c 128,-1,38
 63 143 63 143 36 200 c 1,0,1
294 362 m 2,39,-1
 393 362 l 1,40,-1
 393 551 l 1,41,-1
 136 551 l 1,42,43
 136 502 136 502 147 462 c 128,-1,44
 158 422 158 422 183 397 c 0,45,46
 200 381 200 381 225.5 371.5 c 128,-1,47
 251 362 251 362 294 362 c 2,39,-1
EndSplineSet
EndChar

StartChar: uraguru
Encoding: 2675 2675 80
Width: 662
Flags: W
LayerCount: 2
Fore
SplineSet
359 0 m 0,0,1
 270 0 270 0 204 44 c 128,-1,2
 138 88 138 88 102 181 c 128,-1,3
 66 274 66 274 66 421 c 0,4,5
 66 469 66 469 68.5 506 c 128,-1,6
 71 543 71 543 77 576 c 2,7,-1
 80 595 l 1,8,9
 102 695 102 695 147.5 751.5 c 128,-1,10
 193 808 193 808 253.5 831.5 c 128,-1,11
 314 855 314 855 378 855 c 0,12,13
 434 855 434 855 480 837 c 128,-1,14
 526 819 526 819 559.5 783 c 128,-1,15
 593 747 593 747 611 692.5 c 128,-1,16
 629 638 629 638 629 566 c 0,17,18
 629 482 629 482 600.5 428 c 128,-1,19
 572 374 572 374 524 345.5 c 128,-1,20
 476 317 476 317 418 309 c 1,21,-1
 431 331 l 1,22,23
 482 318 482 318 510.5 291.5 c 128,-1,24
 539 265 539 265 551 234 c 128,-1,25
 563 203 563 203 563 174 c 0,26,27
 563 120 563 120 540.5 81 c 128,-1,28
 518 42 518 42 472.5 21 c 128,-1,29
 427 0 427 0 359 0 c 0,0,1
355 73 m 0,30,31
 421 73 421 73 451 98.5 c 128,-1,32
 481 124 481 124 481 174 c 0,33,34
 481 203 481 203 470 225.5 c 128,-1,35
 459 248 459 248 437 261 c 0,36,37
 421 271 421 271 402.5 277.5 c 128,-1,38
 384 284 384 284 352.5 287.5 c 128,-1,39
 321 291 321 291 265 291 c 2,40,-1
 130 291 l 1,41,-1
 120 362 l 1,42,-1
 281 362 l 2,43,44
 332 362 332 362 366.5 365 c 128,-1,45
 401 368 401 368 425.5 374.5 c 128,-1,46
 450 381 450 381 469 391 c 0,47,48
 514 415 514 415 531 457.5 c 128,-1,49
 548 500 548 500 548 556 c 2,50,-1
 548 574 l 2,51,52
 548 671 548 671 502.5 726.5 c 128,-1,53
 457 782 457 782 371 782 c 0,54,55
 322 782 322 782 280 762 c 128,-1,56
 238 742 238 742 207.5 698.5 c 128,-1,57
 177 655 177 655 161 584 c 1,58,-1
 159 571 l 2,59,60
 153 537 153 537 150.5 501.5 c 128,-1,61
 148 466 148 466 148 424 c 0,62,63
 148 315 148 315 165.5 246 c 128,-1,64
 183 177 183 177 213 139.5 c 128,-1,65
 243 102 243 102 280 87.5 c 128,-1,66
 317 73 317 73 355 73 c 0,30,31
-7 551 m 1,67,-1
 -7 622 l 1,68,-1
 679 622 l 1,69,-1
 679 551 l 1,70,-1
 -7 551 l 1,67,-1
EndSplineSet
EndChar

StartChar: ekonkarguru
Encoding: 2676 2676 81
Width: 1484
Flags: W
LayerCount: 2
Fore
SplineSet
843 0 m 0,0,1
 754 0 754 0 688 44 c 128,-1,2
 622 88 622 88 585.5 181 c 128,-1,3
 549 274 549 274 549 421 c 0,4,5
 549 469 549 469 551.5 506 c 128,-1,6
 554 543 554 543 560 576 c 2,7,-1
 563 595 l 1,8,9
 585 695 585 695 630.5 751.5 c 128,-1,10
 676 808 676 808 736 831.5 c 128,-1,11
 796 855 796 855 860 855 c 0,12,13
 946 855 946 855 1007.5 812.5 c 128,-1,14
 1069 770 1069 770 1090 690 c 1,15,-1
 1041 733 l 1,16,17
 1082 807 1082 807 1144 844.5 c 128,-1,18
 1206 882 1206 882 1287 882 c 0,19,20
 1363 882 1363 882 1413.5 853 c 128,-1,21
 1464 824 1464 824 1493 777 c 128,-1,22
 1522 730 1522 730 1532 676 c 1,23,-1
 1452 667 l 1,24,25
 1436 735 1436 735 1392.5 772 c 128,-1,26
 1349 809 1349 809 1281 809 c 0,27,28
 1210 809 1210 809 1165 770.5 c 128,-1,29
 1120 732 1120 732 1091 673 c 1,30,-1
 1023 667 l 1,31,32
 999 729 999 729 955.5 755.5 c 128,-1,33
 912 782 912 782 854 782 c 0,34,35
 805 782 805 782 763 762 c 128,-1,36
 721 742 721 742 690.5 698.5 c 128,-1,37
 660 655 660 655 644 584 c 1,38,-1
 642 571 l 2,39,40
 636 537 636 537 633.5 501.5 c 128,-1,41
 631 466 631 466 631 424 c 0,42,43
 631 315 631 315 649 246 c 128,-1,44
 667 177 667 177 697 139.5 c 128,-1,45
 727 102 727 102 763.5 87.5 c 128,-1,46
 800 73 800 73 838 73 c 0,47,48
 905 73 905 73 934.5 98.5 c 128,-1,49
 964 124 964 124 964 176 c 0,50,51
 964 204 964 204 952 226 c 128,-1,52
 940 248 940 248 920 261 c 0,53,54
 904 271 904 271 885.5 277.5 c 128,-1,55
 867 284 867 284 835.5 287.5 c 128,-1,56
 804 291 804 291 748 291 c 2,57,-1
 613 291 l 1,58,-1
 603 362 l 1,59,-1
 764 362 l 2,60,61
 816 362 816 362 850.5 365 c 128,-1,62
 885 368 885 368 909 374.5 c 128,-1,63
 933 381 933 381 952 391 c 0,64,65
 997 415 997 415 1014 452 c 128,-1,66
 1031 489 1031 489 1031 556 c 2,67,-1
 1031 570 l 1,68,-1
 1112 584 l 1,69,-1
 1112 566 l 2,70,71
 1112 482 1112 482 1083.5 428 c 128,-1,72
 1055 374 1055 374 1007 345.5 c 128,-1,73
 959 317 959 317 901 309 c 1,74,-1
 914 331 l 1,75,76
 965 318 965 318 993.5 292 c 128,-1,77
 1022 266 1022 266 1034 235 c 128,-1,78
 1046 204 1046 204 1046 175 c 0,79,80
 1046 120 1046 120 1023.5 81 c 128,-1,81
 1001 42 1001 42 956 21 c 128,-1,82
 911 0 911 0 843 0 c 0,0,1
510 551 m 1,83,-1
 510 622 l 1,84,-1
 1159 622 l 1,85,-1
 1159 551 l 1,86,-1
 510 551 l 1,83,-1
500 0 m 1,87,88
 459 0 459 0 432 11 c 128,-1,89
 405 22 405 22 389 40 c 0,90,91
 367 66 367 66 361 98 c 128,-1,92
 355 130 355 130 355 164 c 2,93,-1
 355 445 l 2,94,95
 355 479 355 479 346.5 502 c 128,-1,96
 338 525 338 525 320 538 c 0,97,98
 306 549 306 549 286 554.5 c 128,-1,99
 266 560 266 560 243 560 c 0,100,101
 193 560 193 560 167 534 c 128,-1,102
 141 508 141 508 141 464 c 0,103,104
 141 419 141 419 166.5 394.5 c 128,-1,105
 192 370 192 370 236 370 c 0,106,107
 283 370 283 370 312 383.5 c 128,-1,108
 341 397 341 397 363 418 c 1,109,-1
 377 342 l 1,110,111
 345 320 345 320 312.5 309 c 128,-1,112
 280 298 280 298 236 298 c 0,113,114
 185 298 185 298 145 317 c 128,-1,115
 105 336 105 336 82.5 373 c 128,-1,116
 60 410 60 410 60 464 c 0,117,118
 60 510 60 510 82 548 c 128,-1,119
 104 586 104 586 146 609 c 128,-1,120
 188 632 188 632 247 632 c 0,121,122
 289 632 289 632 322 621.5 c 128,-1,123
 355 611 355 611 380 591 c 0,124,125
 401 574 401 574 413.5 552.5 c 128,-1,126
 426 531 426 531 431 506 c 128,-1,127
 436 481 436 481 436 451 c 2,128,-1
 436 165 l 2,129,130
 436 130 436 130 441.5 110 c 128,-1,131
 447 90 447 90 463 81.5 c 128,-1,132
 479 73 479 73 510 73 c 1,133,-1
 500 0 l 1,87,88
EndSplineSet
EndChar

StartChar: yakashguru
Encoding: 2677 2677 82
Width: 0
GlyphClass: 4
Flags: W
AnchorPoint: "Anchor-6" -170 0 mark 0
AnchorPoint: "Anchor-3" -170 0 mark 0
LayerCount: 2
Fore
SplineSet
-129 -312 m 0,0,1
 -151 -312 -151 -312 -172.5 -304.5 c 128,-1,2
 -194 -297 -194 -297 -211.5 -278.5 c 128,-1,3
 -229 -260 -229 -260 -239.5 -228 c 128,-1,4
 -250 -196 -250 -196 -250 -147 c 0,5,6
 -250 -115 -250 -115 -248 -89 c 128,-1,7
 -246 -63 -246 -63 -242 -41 c 1,8,-1
 -168 -49 l 1,9,10
 -170 -65 -170 -65 -172 -94 c 128,-1,11
 -174 -123 -174 -123 -174 -148 c 0,12,13
 -174 -194 -174 -194 -162.5 -219 c 128,-1,14
 -151 -244 -151 -244 -121 -244 c 0,15,16
 -100 -244 -100 -244 -86.5 -232.5 c 128,-1,17
 -73 -221 -73 -221 -60 -190 c 1,18,-1
 -3 -220 l 1,19,20
 -15 -245 -15 -245 -31 -266 c 128,-1,21
 -47 -287 -47 -287 -70.5 -299.5 c 128,-1,22
 -94 -312 -94 -312 -129 -312 c 0,0,1
EndSplineSet
EndChar

StartChar: uni0A76
Encoding: 2678 2678 83
Width: 280
Flags: W
LayerCount: 2
Fore
SplineSet
72 338 m 0,0,1
 72 379 72 379 91.5 395.5 c 128,-1,2
 111 412 111 412 139 412 c 256,3,4
 167 412 167 412 187.5 395.5 c 128,-1,5
 208 379 208 379 208 338 c 0,6,7
 208 298 208 298 187.5 280.5 c 128,-1,8
 167 263 167 263 139 263 c 256,9,10
 111 263 111 263 91.5 280.5 c 128,-1,11
 72 298 72 298 72 338 c 0,0,1
EndSplineSet
EndChar

StartChar: uni262C
Encoding: 9772 9772 84
Width: 949
Flags: W
LayerCount: 2
Fore
SplineSet
475 -198 m 256,0,1
 446 -198 446 -198 424.5 -175.5 c 128,-1,2
 403 -153 403 -153 403 -120 c 0,3,4
 403 -88 403 -88 412.5 -68.5 c 128,-1,5
 422 -49 422 -49 431 -28.5 c 128,-1,6
 440 -8 440 -8 440 25 c 0,7,8
 440 43 440 43 432 56.5 c 128,-1,9
 424 70 424 70 415.5 77 c 128,-1,10
 407 84 407 84 407 84 c 1,11,12
 391 67 391 67 373 45 c 128,-1,13
 355 23 355 23 343 1 c 128,-1,14
 331 -21 331 -21 331 -38 c 0,15,16
 331 -46 331 -46 337 -52 c 128,-1,17
 343 -58 343 -58 343 -79 c 0,18,19
 343 -98 343 -98 330 -114 c 128,-1,20
 317 -130 317 -130 291 -130 c 0,21,22
 266 -130 266 -130 254 -114.5 c 128,-1,23
 242 -99 242 -99 242 -76 c 0,24,25
 242 -56 242 -56 258.5 -25.5 c 128,-1,26
 275 5 275 5 304 39 c 128,-1,27
 333 73 333 73 371 103 c 1,28,29
 357 108 357 108 342 111 c 128,-1,30
 327 114 327 114 311 114 c 0,31,32
 269 114 269 114 241.5 95 c 128,-1,33
 214 76 214 76 199.5 47 c 128,-1,34
 185 18 185 18 183 -13 c 1,35,36
 174 -1 174 -1 154.5 31 c 128,-1,37
 135 63 135 63 113.5 113.5 c 128,-1,38
 92 164 92 164 76.5 235 c 128,-1,39
 61 306 61 306 61 396 c 0,40,41
 61 464 61 464 78.5 518.5 c 128,-1,42
 96 573 96 573 122 613.5 c 128,-1,43
 148 654 148 654 175 680 c 128,-1,44
 202 706 202 706 221 718 c 1,45,46
 193 668 193 668 176.5 611 c 128,-1,47
 160 554 160 554 160 468 c 0,48,49
 160 393 160 393 191 324.5 c 128,-1,50
 222 256 222 256 284.5 210.5 c 128,-1,51
 347 165 347 165 440 158 c 1,52,-1
 440 236 l 1,53,54
 415 239 415 239 391.5 245.5 c 128,-1,55
 368 252 368 252 357 256 c 1,56,57
 362 265 362 265 368 274 c 128,-1,58
 374 283 374 283 378 292 c 1,59,60
 314 323 314 323 274.5 382.5 c 128,-1,61
 235 442 235 442 235 517 c 0,62,63
 235 573 235 573 258 620.5 c 128,-1,64
 281 668 281 668 321 702 c 128,-1,65
 361 736 361 736 411 750 c 1,66,67
 406 779 406 779 395 790.5 c 128,-1,68
 384 802 384 802 361 802 c 1,69,-1
 361 830 l 1,70,71
 389 830 389 830 405 842.5 c 128,-1,72
 421 855 421 855 435.5 867.5 c 128,-1,73
 450 880 450 880 471 880 c 256,74,75
 492 880 492 880 508 867.5 c 128,-1,76
 524 855 524 855 542.5 842.5 c 128,-1,77
 561 830 561 830 588 830 c 1,78,-1
 588 802 l 1,79,80
 566 802 566 802 555 790.5 c 128,-1,81
 544 779 544 779 539 750 c 1,82,83
 590 736 590 736 629.5 702 c 128,-1,84
 669 668 669 668 692 620.5 c 128,-1,85
 715 573 715 573 715 517 c 0,86,87
 715 442 715 442 675 382.5 c 128,-1,88
 635 323 635 323 572 292 c 1,89,90
 581 274 581 274 593 256 c 1,91,92
 582 252 582 252 558.5 245.5 c 128,-1,93
 535 239 535 239 510 236 c 1,94,-1
 510 158 l 1,95,96
 604 165 604 165 666 210.5 c 128,-1,97
 728 256 728 256 759 324.5 c 128,-1,98
 790 393 790 393 790 468 c 0,99,100
 790 554 790 554 774 611 c 128,-1,101
 758 668 758 668 729 718 c 1,102,103
 748 706 748 706 775 680 c 128,-1,104
 802 654 802 654 828 613.5 c 128,-1,105
 854 573 854 573 871.5 518.5 c 128,-1,106
 889 464 889 464 889 396 c 0,107,108
 889 306 889 306 873.5 235 c 128,-1,109
 858 164 858 164 836.5 113.5 c 128,-1,110
 815 63 815 63 795.5 31 c 128,-1,111
 776 -1 776 -1 767 -13 c 1,112,113
 766 18 766 18 751.5 47 c 128,-1,114
 737 76 737 76 709 95 c 128,-1,115
 681 114 681 114 639 114 c 0,116,117
 623 114 623 114 608.5 111 c 128,-1,118
 594 108 594 108 580 103 c 1,119,120
 618 73 618 73 646.5 39 c 128,-1,121
 675 5 675 5 691.5 -25.5 c 128,-1,122
 708 -56 708 -56 708 -76 c 0,123,124
 708 -99 708 -99 696 -114.5 c 128,-1,125
 684 -130 684 -130 659 -130 c 256,126,127
 634 -130 634 -130 620.5 -114 c 128,-1,128
 607 -98 607 -98 607 -79 c 0,129,130
 607 -58 607 -58 613 -52 c 128,-1,131
 619 -46 619 -46 619 -38 c 0,132,133
 619 -21 619 -21 607 1 c 128,-1,134
 595 23 595 23 577.5 45 c 128,-1,135
 560 67 560 67 543 84 c 1,136,137
 543 84 543 84 535 77 c 128,-1,138
 527 70 527 70 518.5 56.5 c 128,-1,139
 510 43 510 43 510 25 c 0,140,141
 510 -8 510 -8 519.5 -28.5 c 128,-1,142
 529 -49 529 -49 538 -68.5 c 128,-1,143
 547 -88 547 -88 547 -120 c 0,144,145
 547 -153 547 -153 525.5 -175.5 c 128,-1,146
 504 -198 504 -198 475 -198 c 256,0,1
403 351 m 1,147,148
 415 387 415 387 423.5 434 c 128,-1,149
 432 481 432 481 432 544 c 0,150,151
 432 591 432 591 429 627 c 128,-1,152
 426 663 426 663 422 688 c 1,153,154
 367 671 367 671 332 624.5 c 128,-1,155
 297 578 297 578 297 517 c 0,156,157
 297 461 297 461 326.5 416 c 128,-1,158
 356 371 356 371 403 351 c 1,147,148
547 351 m 1,159,160
 594 371 594 371 623 416 c 128,-1,161
 652 461 652 461 652 517 c 0,162,163
 652 578 652 578 617.5 624.5 c 128,-1,164
 583 671 583 671 527 688 c 1,165,166
 524 663 524 663 521.5 627 c 128,-1,167
 519 591 519 591 519 544 c 0,168,169
 519 481 519 481 526.5 434 c 128,-1,170
 534 387 534 387 547 351 c 1,159,160
EndSplineSet
EndChar

StartChar: manuktaguru
Encoding: 65558 -1 106
Width: 596
GlyphClass: 2
Flags: W
AnchorPoint: "Anchor-2" 596 0 basechar 0
LayerCount: 2
Fore
SplineSet
426 0 m 1,0,-1
 426 261 l 1,1,-1
 192 261 l 1,2,3
 190 206 190 206 179.5 165.5 c 128,-1,4
 169 125 169 125 150.5 103 c 128,-1,5
 132 81 132 81 105 81 c 0,6,7
 85 81 85 81 71.5 93 c 128,-1,8
 58 105 58 105 58 139 c 0,9,10
 58 154 58 154 63 178.5 c 128,-1,11
 68 203 68 203 81.5 232 c 128,-1,12
 95 261 95 261 119 288 c 1,13,14
 117 331 117 331 110.5 376.5 c 128,-1,15
 104 422 104 422 93 466.5 c 128,-1,16
 82 511 82 511 67 551 c 1,17,-1
 -7 551 l 1,18,-1
 -7 622 l 1,19,-1
 130 622 l 1,20,21
 149 576 149 576 163 526 c 128,-1,22
 177 476 177 476 185 427 c 128,-1,23
 193 378 193 378 193 332 c 1,24,-1
 426 332 l 1,25,-1
 426 622 l 1,26,-1
 603 622 l 1,27,-1
 603 551 l 1,28,-1
 507 551 l 1,29,-1
 507 0 l 1,30,-1
 426 0 l 1,0,-1
274 -8 m 0,31,32
 252 -8 252 -8 235.5 7 c 128,-1,33
 219 22 219 22 219 49 c 256,34,35
 219 76 219 76 235.5 91 c 128,-1,36
 252 106 252 106 274 106 c 0,37,38
 297 106 297 106 313 91 c 128,-1,39
 329 76 329 76 329 49 c 256,40,41
 329 22 329 22 313.5 7 c 128,-1,42
 298 -8 298 -8 274 -8 c 0,31,32
EndSplineSet
Ligature2: "'nukt' Nukta Forms in Gurmukhi2 lookup 2 subtable" maguru nuktaguru
EndChar

StartChar: rasubscriptguru
Encoding: 65563 -1 111
Width: 0
GlyphClass: 4
Flags: W
AnchorPoint: "Anchor-6" -170 0 mark 0
AnchorPoint: "Anchor-3" -170 0 mark 0
LayerCount: 2
Fore
SplineSet
-14 -268 m 1,0,1
 -38 -233 -38 -233 -67.5 -203 c 128,-1,2
 -97 -173 -97 -173 -135 -154 c 1,3,4
 -152 -172 -152 -172 -176 -182.5 c 128,-1,5
 -200 -193 -200 -193 -233 -193 c 0,6,7
 -268 -193 -268 -193 -293 -179 c 128,-1,8
 -318 -165 -318 -165 -318 -131 c 256,9,10
 -318 -97 -318 -97 -290.5 -83.5 c 128,-1,11
 -263 -70 -263 -70 -226 -70 c 0,12,13
 -212 -70 -212 -70 -198.5 -72 c 128,-1,14
 -185 -74 -185 -74 -172 -76 c 1,15,16
 -171 -72 -171 -72 -170.5 -67.5 c 128,-1,17
 -170 -63 -170 -63 -170 -56 c 2,18,-1
 -170 0 l 1,19,-1
 -89 0 l 1,20,-1
 -89 -17 l 2,21,22
 -89 -47 -89 -47 -91.5 -65 c 128,-1,23
 -94 -83 -94 -83 -100 -97 c 1,24,25
 -58 -116 -58 -116 -23 -149.5 c 128,-1,26
 12 -183 12 -183 45 -229 c 1,27,-1
 -14 -268 l 1,0,1
EndSplineSet
Substitution2: "Single Substitution lookup 8 subtable" rasubscript1guru
Ligature2: "'blwf' Below Base Forms in Gurmukhi2 lookup 3 subtable" halantguru raguru
MultipleSubs2: "Multiple Substitution lookup 0 subtable" halantguru raguru
EndChar

StartChar: hasubscriptguru
Encoding: 65564 -1 112
Width: 0
GlyphClass: 4
Flags: W
AnchorPoint: "Anchor-6" -170 0 mark 0
AnchorPoint: "Anchor-3" -170 0 mark 0
LayerCount: 2
Fore
SplineSet
-210 -312 m 0,0,1
 -259 -312 -259 -312 -298.5 -291 c 128,-1,2
 -338 -270 -338 -270 -361.5 -236 c 128,-1,3
 -385 -202 -385 -202 -385 -163 c 0,4,5
 -385 -142 -385 -142 -376 -125.5 c 128,-1,6
 -367 -109 -367 -109 -353 -99 c 0,7,8
 -340 -90 -340 -90 -326 -84.5 c 128,-1,9
 -312 -79 -312 -79 -291.5 -76.5 c 128,-1,10
 -271 -74 -271 -74 -241 -74 c 2,11,-1
 -235 -74 l 1,12,-1
 -238 -137 l 1,13,14
 -271 -137 -271 -137 -291.5 -142.5 c 128,-1,15
 -312 -148 -312 -148 -312 -172 c 0,16,17
 -312 -191 -312 -191 -297.5 -209 c 128,-1,18
 -283 -227 -283 -227 -261 -238.5 c 128,-1,19
 -239 -250 -239 -250 -217 -250 c 0,20,21
 -187 -250 -187 -250 -178.5 -238.5 c 128,-1,22
 -170 -227 -170 -227 -170 -202 c 2,23,-1
 -170 0 l 1,24,-1
 -89 0 l 1,25,-1
 -89 -189 l 2,26,27
 -89 -229 -89 -229 -96.5 -249.5 c 128,-1,28
 -104 -270 -104 -270 -119 -284 c 0,29,30
 -133 -297 -133 -297 -154 -304.5 c 128,-1,31
 -175 -312 -175 -312 -210 -312 c 0,0,1
EndSplineSet
Substitution2: "Single Substitution lookup 8 subtable" hasubscript1guru
Ligature2: "'blwf' Below Base Forms in Gurmukhi2 lookup 3 subtable" halantguru haguru
MultipleSubs2: "Multiple Substitution lookup 0 subtable" halantguru haguru
EndChar

StartChar: vasubscriptguru
Encoding: 65565 -1 113
Width: 0
GlyphClass: 4
Flags: W
AnchorPoint: "Anchor-6" -170 0 mark 0
AnchorPoint: "Anchor-3" -170 0 mark 0
LayerCount: 2
Fore
SplineSet
-235 -197 m 2,0,1
 -288 -197 -288 -197 -316.5 -184 c 128,-1,2
 -345 -171 -345 -171 -356 -150 c 128,-1,3
 -367 -129 -367 -129 -367 -104 c 256,4,5
 -367 -79 -367 -79 -353.5 -63 c 128,-1,6
 -340 -47 -340 -47 -316 -39 c 128,-1,7
 -292 -31 -292 -31 -260 -31 c 2,8,-1
 -170 -31 l 1,9,-1
 -170 0 l 1,10,-1
 -89 0 l 1,11,-1
 -89 -64 l 1,12,-1
 -113 -88 l 1,13,-1
 -259 -88 l 2,14,15
 -277 -88 -277 -88 -288.5 -92 c 128,-1,16
 -300 -96 -300 -96 -300 -112 c 0,17,18
 -300 -131 -300 -131 -281.5 -135.5 c 128,-1,19
 -263 -140 -263 -140 -241 -140 c 2,20,-1
 -85 -140 l 1,21,-1
 -85 -197 l 1,22,-1
 -235 -197 l 2,0,1
-183 -312 m 0,23,24
 -231 -312 -231 -312 -259.5 -300.5 c 128,-1,25
 -288 -289 -288 -289 -300.5 -270 c 128,-1,26
 -313 -251 -313 -251 -313 -229 c 0,27,28
 -313 -203 -313 -203 -301 -190.5 c 128,-1,29
 -289 -178 -289 -178 -270 -171 c 1,30,-1
 -187 -197 l 1,31,-1
 -210 -197 l 2,32,33
 -224 -197 -224 -197 -236 -200.5 c 128,-1,34
 -248 -204 -248 -204 -248 -220 c 256,35,36
 -248 -236 -248 -236 -232 -245.5 c 128,-1,37
 -216 -255 -216 -255 -179 -255 c 0,38,39
 -148 -255 -148 -255 -129.5 -252.5 c 128,-1,40
 -111 -250 -111 -250 -86 -244 c 1,41,-1
 -69 -298 l 1,42,43
 -100 -307 -100 -307 -130 -309.5 c 128,-1,44
 -160 -312 -160 -312 -183 -312 c 0,23,24
EndSplineSet
Substitution2: "Single Substitution lookup 8 subtable" vasubscript1guru
Ligature2: "'blwf' Below Base Forms in Gurmukhi2 lookup 3 subtable" halantguru vaguru
MultipleSubs2: "Multiple Substitution lookup 0 subtable" halantguru vaguru
EndChar

StartChar: yapostformguru
Encoding: 65566 -1 114
Width: 666
Flags: W
LayerCount: 2
Fore
SplineSet
-7 551 m 1,0,-1
 -7 622 l 1,1,-1
 673 622 l 1,2,-1
 673 551 l 1,3,-1
 577 551 l 1,4,-1
 577 0 l 1,5,-1
 496 0 l 1,6,-1
 496 299 l 1,7,-1
 367 299 l 1,8,-1
 367 136 l 1,9,10
 346 129 346 129 316.5 124.5 c 128,-1,11
 287 120 287 120 257 120 c 0,12,13
 203 120 203 120 159 142 c 128,-1,14
 115 164 115 164 79.5 208.5 c 128,-1,15
 44 253 44 253 14 320 c 1,16,-1
 85 354 l 1,17,18
 116 285 116 285 143.5 250.5 c 128,-1,19
 171 216 171 216 199.5 204.5 c 128,-1,20
 228 193 228 193 262 193 c 0,21,22
 267 193 267 193 275 193.5 c 128,-1,23
 283 194 283 194 286 195 c 2,24,-1
 286 371 l 1,25,-1
 496 371 l 1,26,-1
 496 551 l 1,27,-1
 -7 551 l 1,0,-1
EndSplineSet
Ligature2: "'pstf' Post Base Forms in Gurmukhi2 lookup 4 subtable" halantguru yaguru
EndChar

StartChar: rasubscripthalantguru
Encoding: 65567 -1 115
Width: 0
GlyphClass: 4
Flags: W
AnchorPoint: "Anchor-6" -170 0 mark 0
AnchorPoint: "Anchor-3" -170 0 mark 0
LayerCount: 2
Fore
SplineSet
-14 -238 m 1,0,1
 -38 -203 -38 -203 -67.5 -173.5 c 128,-1,2
 -97 -144 -97 -144 -135 -125 c 1,3,4
 -152 -142 -152 -142 -176 -153 c 128,-1,5
 -200 -164 -200 -164 -233 -164 c 0,6,7
 -268 -164 -268 -164 -293 -149.5 c 128,-1,8
 -318 -135 -318 -135 -318 -101 c 256,9,10
 -318 -67 -318 -67 -290.5 -54 c 128,-1,11
 -263 -41 -263 -41 -226 -41 c 0,12,13
 -212 -41 -212 -41 -199 -42.5 c 128,-1,14
 -186 -44 -186 -44 -173 -46 c 1,15,16
 -171 -41 -171 -41 -170.5 -35.5 c 128,-1,17
 -170 -30 -170 -30 -170 -26 c 2,18,-1
 -170 0 l 1,19,-1
 -89 0 l 1,20,-1
 -89 -1 l 2,21,22
 -89 -17 -89 -17 -92 -34.5 c 128,-1,23
 -95 -52 -95 -52 -100 -67 c 1,24,25
 -58 -86 -58 -86 -23 -120 c 128,-1,26
 12 -154 12 -154 45 -199 c 1,27,-1
 -14 -238 l 1,0,1
16 -394 m 1,28,29
 -10 -345 -10 -345 -44.5 -321.5 c 128,-1,30
 -79 -298 -79 -298 -116.5 -290 c 128,-1,31
 -154 -282 -154 -282 -189 -282 c 0,32,33
 -202 -282 -202 -282 -207.5 -282 c 128,-1,34
 -213 -282 -213 -282 -217 -283 c 1,35,-1
 -222 -207 l 1,36,37
 -217 -207 -217 -207 -211 -206.5 c 128,-1,38
 -205 -206 -205 -206 -197 -206 c 0,39,40
 -140 -206 -140 -206 -87.5 -221 c 128,-1,41
 -35 -236 -35 -236 9 -271.5 c 128,-1,42
 53 -307 53 -307 83 -371 c 1,43,-1
 16 -394 l 1,28,29
EndSplineSet
Ligature2: "'blws' Below Base Substitutions in Gurmukhi2 lookup 6 subtable" rasubscriptguru halantguru
EndChar

StartChar: hasubscripthalantguru
Encoding: 65568 -1 116
Width: 0
GlyphClass: 4
Flags: W
AnchorPoint: "Anchor-6" -170 0 mark 0
AnchorPoint: "Anchor-3" -170 0 mark 0
LayerCount: 2
Fore
SplineSet
-210 -287 m 0,0,1
 -259 -287 -259 -287 -298.5 -266 c 128,-1,2
 -338 -245 -338 -245 -361.5 -211 c 128,-1,3
 -385 -177 -385 -177 -385 -138 c 0,4,5
 -385 -117 -385 -117 -376 -100.5 c 128,-1,6
 -367 -84 -367 -84 -353 -74 c 0,7,8
 -340 -65 -340 -65 -326 -59.5 c 128,-1,9
 -312 -54 -312 -54 -291.5 -51.5 c 128,-1,10
 -271 -49 -271 -49 -241 -49 c 2,11,-1
 -235 -49 l 1,12,-1
 -238 -112 l 1,13,14
 -271 -112 -271 -112 -291.5 -117.5 c 128,-1,15
 -312 -123 -312 -123 -312 -147 c 0,16,17
 -312 -166 -312 -166 -297.5 -184 c 128,-1,18
 -283 -202 -283 -202 -261 -213.5 c 128,-1,19
 -239 -225 -239 -225 -217 -225 c 0,20,21
 -187 -225 -187 -225 -178.5 -213.5 c 128,-1,22
 -170 -202 -170 -202 -170 -177 c 2,23,-1
 -170 0 l 1,24,-1
 -89 0 l 1,25,-1
 -89 -164 l 2,26,27
 -89 -203 -89 -203 -96.5 -224 c 128,-1,28
 -104 -245 -104 -245 -119 -259 c 0,29,30
 -133 -272 -133 -272 -154 -279.5 c 128,-1,31
 -175 -287 -175 -287 -210 -287 c 0,0,1
108 -398 m 1,32,33
 83 -352 83 -352 55 -329 c 128,-1,34
 27 -306 27 -306 -3 -298 c 128,-1,35
 -33 -290 -33 -290 -65 -290 c 0,36,37
 -71 -290 -71 -290 -78 -290 c 128,-1,38
 -85 -290 -85 -290 -88 -290 c 2,39,-1
 -93 -217 l 1,40,41
 -88 -216 -88 -216 -82.5 -215.5 c 128,-1,42
 -77 -215 -77 -215 -69 -215 c 0,43,44
 -20 -215 -20 -215 25 -229.5 c 128,-1,45
 70 -244 70 -244 109 -279.5 c 128,-1,46
 148 -315 148 -315 176 -378 c 1,47,-1
 108 -398 l 1,32,33
EndSplineSet
Ligature2: "'blws' Below Base Substitutions in Gurmukhi2 lookup 6 subtable" hasubscriptguru halantguru
EndChar

StartChar: vasubscripthalantguru
Encoding: 65569 -1 117
Width: 0
GlyphClass: 4
Flags: W
LayerCount: 2
Fore
SplineSet
-274 -193 m 2,0,1
 -327 -193 -327 -193 -355.5 -180.5 c 128,-1,2
 -384 -168 -384 -168 -395 -147.5 c 128,-1,3
 -406 -127 -406 -127 -406 -104 c 0,4,5
 -406 -74 -406 -74 -390.5 -58 c 128,-1,6
 -375 -42 -375 -42 -350.5 -35.5 c 128,-1,7
 -326 -29 -326 -29 -301 -29 c 2,8,-1
 -229 -29 l 1,9,-1
 -229 -10 l 1,10,-1
 -148 -10 l 1,11,-1
 -148 -62 l 1,12,-1
 -172 -86 l 1,13,-1
 -298 -86 l 2,14,15
 -316 -86 -316 -86 -327.5 -89.5 c 128,-1,16
 -339 -93 -339 -93 -339 -109 c 0,17,18
 -339 -127 -339 -127 -322.5 -131.5 c 128,-1,19
 -306 -136 -306 -136 -280 -136 c 2,20,-1
 -144 -136 l 1,21,-1
 -144 -193 l 1,22,-1
 -274 -193 l 2,0,1
-232 -306 m 0,23,24
 -279 -306 -279 -306 -305.5 -294.5 c 128,-1,25
 -332 -283 -332 -283 -342.5 -264.5 c 128,-1,26
 -353 -246 -353 -246 -353 -226 c 0,27,28
 -353 -201 -353 -201 -340.5 -187.5 c 128,-1,29
 -328 -174 -328 -174 -309 -167 c 1,30,-1
 -226 -193 l 1,31,-1
 -237 -193 l 2,32,33
 -260 -193 -260 -193 -273.5 -196 c 128,-1,34
 -287 -199 -287 -199 -287 -216 c 0,35,36
 -287 -230 -287 -230 -272 -239.5 c 128,-1,37
 -257 -249 -257 -249 -220 -249 c 0,38,39
 -197 -249 -197 -249 -181.5 -246.5 c 128,-1,40
 -166 -244 -166 -244 -145 -238 c 1,41,-1
 -128 -292 l 1,42,43
 -156 -301 -156 -301 -183.5 -303.5 c 128,-1,44
 -211 -306 -211 -306 -232 -306 c 0,23,24
90 -398 m 1,45,46
 65 -352 65 -352 37 -329 c 128,-1,47
 9 -306 9 -306 -21 -298 c 128,-1,48
 -51 -290 -51 -290 -83 -290 c 0,49,50
 -89 -290 -89 -290 -96 -290 c 128,-1,51
 -103 -290 -103 -290 -106 -290 c 2,52,-1
 -111 -217 l 1,53,54
 -106 -216 -106 -216 -100.5 -215.5 c 128,-1,55
 -95 -215 -95 -215 -87 -215 c 0,56,57
 -38 -215 -38 -215 7 -229.5 c 128,-1,58
 52 -244 52 -244 91 -279.5 c 128,-1,59
 130 -315 130 -315 158 -378 c 1,60,-1
 90 -398 l 1,45,46
EndSplineSet
Ligature2: "'blws' Below Base Substitutions in Gurmukhi2 lookup 6 subtable" vasubscriptguru halantguru
EndChar

StartChar: udaathalantguru
Encoding: 65570 -1 118
Width: 0
GlyphClass: 4
Flags: W
LayerCount: 2
Fore
SplineSet
55 -243 m 1,0,1
 7 -233 7 -233 -34.5 -216 c 128,-1,2
 -76 -199 -76 -199 -110 -161.5 c 128,-1,3
 -144 -124 -144 -124 -170 -51 c 1,4,-1
 -99 -29 l 1,5,6
 -76 -85 -76 -85 -52.5 -113.5 c 128,-1,7
 -29 -142 -29 -142 1 -153.5 c 128,-1,8
 31 -165 31 -165 72 -171 c 1,9,-1
 55 -243 l 1,0,1
24 -398 m 1,10,11
 -1 -352 -1 -352 -29 -329 c 128,-1,12
 -57 -306 -57 -306 -87 -298 c 128,-1,13
 -117 -290 -117 -290 -149 -290 c 0,14,15
 -155 -290 -155 -290 -162 -290 c 128,-1,16
 -169 -290 -169 -290 -172 -290 c 2,17,-1
 -177 -217 l 1,18,19
 -172 -216 -172 -216 -166.5 -215.5 c 128,-1,20
 -161 -215 -161 -215 -153 -215 c 0,21,22
 -104 -215 -104 -215 -59 -229.5 c 128,-1,23
 -14 -244 -14 -244 25 -279.5 c 128,-1,24
 64 -315 64 -315 92 -378 c 1,25,-1
 24 -398 l 1,10,11
EndSplineSet
Ligature2: "'blws' Below Base Substitutions in Gurmukhi2 lookup 6 subtable" udaatguru halantguru
EndChar

StartChar: yakashhalantguru
Encoding: 65571 -1 119
Width: 0
GlyphClass: 4
Flags: W
LayerCount: 2
Fore
SplineSet
-139 -244 m 0,0,1
 -160 -244 -160 -244 -181.5 -237.5 c 128,-1,2
 -203 -231 -203 -231 -220.5 -216 c 128,-1,3
 -238 -201 -238 -201 -249 -174 c 128,-1,4
 -260 -147 -260 -147 -260 -105 c 0,5,6
 -260 -85 -260 -85 -258 -64.5 c 128,-1,7
 -256 -44 -256 -44 -253 -25 c 1,8,-1
 -179 -34 l 1,9,10
 -182 -46 -182 -46 -183 -64 c 128,-1,11
 -184 -82 -184 -82 -184 -99 c 0,12,13
 -184 -134 -184 -134 -172.5 -155.5 c 128,-1,14
 -161 -177 -161 -177 -130 -177 c 0,15,16
 -110 -177 -110 -177 -96 -164.5 c 128,-1,17
 -82 -152 -82 -152 -69 -123 c 1,18,-1
 -13 -152 l 1,19,20
 -25 -177 -25 -177 -41 -198 c 128,-1,21
 -57 -219 -57 -219 -80.5 -231.5 c 128,-1,22
 -104 -244 -104 -244 -139 -244 c 0,0,1
116 -398 m 1,23,24
 91 -352 91 -352 63 -329 c 128,-1,25
 35 -306 35 -306 5 -298 c 128,-1,26
 -25 -290 -25 -290 -57 -290 c 0,27,28
 -63 -290 -63 -290 -70 -290 c 128,-1,29
 -77 -290 -77 -290 -80 -290 c 2,30,-1
 -85 -217 l 1,31,32
 -80 -216 -80 -216 -74.5 -215.5 c 128,-1,33
 -69 -215 -69 -215 -61 -215 c 0,34,35
 -13 -215 -13 -215 32.5 -229.5 c 128,-1,36
 78 -244 78 -244 117 -279.5 c 128,-1,37
 156 -315 156 -315 184 -378 c 1,38,-1
 116 -398 l 1,23,24
EndSplineSet
Ligature2: "'blws' Below Base Substitutions in Gurmukhi2 lookup 6 subtable" yakashguru halantguru
EndChar

StartChar: rasubscriptuguru
Encoding: 65572 -1 120
Width: 0
GlyphClass: 4
Flags: W
AnchorPoint: "Anchor-6" -170 0 mark 0
AnchorPoint: "Anchor-3" -170 0 mark 0
LayerCount: 2
Fore
SplineSet
-14 -268 m 1,0,1
 -38 -233 -38 -233 -67.5 -203 c 128,-1,2
 -97 -173 -97 -173 -135 -154 c 1,3,4
 -152 -172 -152 -172 -176 -182.5 c 128,-1,5
 -200 -193 -200 -193 -233 -193 c 0,6,7
 -268 -193 -268 -193 -293 -179 c 128,-1,8
 -318 -165 -318 -165 -318 -131 c 256,9,10
 -318 -97 -318 -97 -290.5 -83.5 c 128,-1,11
 -263 -70 -263 -70 -226 -70 c 0,12,13
 -212 -70 -212 -70 -198 -72 c 128,-1,14
 -184 -74 -184 -74 -171 -76 c 1,15,16
 -170 -71 -170 -71 -170 -65.5 c 128,-1,17
 -170 -60 -170 -60 -170 -56 c 2,18,-1
 -170 0 l 1,19,-1
 -89 0 l 1,20,-1
 -89 -31 l 2,21,22
 -89 -48 -89 -48 -92 -65 c 128,-1,23
 -95 -82 -95 -82 -100 -97 c 1,24,25
 -58 -116 -58 -116 -23 -149.5 c 128,-1,26
 12 -183 12 -183 45 -229 c 1,27,-1
 -14 -268 l 1,0,1
-305 -335 m 256,28,29
 -366 -335 -366 -335 -415.5 -319.5 c 128,-1,30
 -465 -304 -465 -304 -497 -284 c 1,31,-1
 -482 -217 l 1,32,33
 -448 -236 -448 -236 -406 -250 c 128,-1,34
 -364 -264 -364 -264 -305 -264 c 0,35,36
 -247 -264 -247 -264 -204 -250 c 128,-1,37
 -161 -236 -161 -236 -127 -217 c 1,38,-1
 -113 -284 l 1,39,40
 -145 -304 -145 -304 -194.5 -319.5 c 128,-1,41
 -244 -335 -244 -335 -305 -335 c 256,28,29
EndSplineSet
Ligature2: "'blws' Below Base Substitutions in Gurmukhi2 lookup 6 subtable" rasubscriptguru umatraguru
EndChar

StartChar: hasubscriptuguru
Encoding: 65573 -1 121
Width: 0
GlyphClass: 4
Flags: W
LayerCount: 2
Fore
SplineSet
-210 -287 m 0,0,1
 -259 -287 -259 -287 -298.5 -266 c 128,-1,2
 -338 -245 -338 -245 -361.5 -211 c 128,-1,3
 -385 -177 -385 -177 -385 -138 c 0,4,5
 -385 -117 -385 -117 -376 -100.5 c 128,-1,6
 -367 -84 -367 -84 -353 -74 c 0,7,8
 -340 -65 -340 -65 -326 -59.5 c 128,-1,9
 -312 -54 -312 -54 -291.5 -51.5 c 128,-1,10
 -271 -49 -271 -49 -241 -49 c 2,11,-1
 -235 -49 l 1,12,-1
 -238 -112 l 1,13,14
 -271 -112 -271 -112 -291.5 -117.5 c 128,-1,15
 -312 -123 -312 -123 -312 -147 c 0,16,17
 -312 -166 -312 -166 -297.5 -184 c 128,-1,18
 -283 -202 -283 -202 -261 -213.5 c 128,-1,19
 -239 -225 -239 -225 -217 -225 c 0,20,21
 -187 -225 -187 -225 -178.5 -213.5 c 128,-1,22
 -170 -202 -170 -202 -170 -177 c 2,23,-1
 -170 0 l 1,24,-1
 -89 0 l 1,25,-1
 -89 -164 l 2,26,27
 -89 -204 -89 -204 -95.5 -224 c 128,-1,28
 -102 -244 -102 -244 -119 -259 c 0,29,30
 -133 -272 -133 -272 -154 -279.5 c 128,-1,31
 -175 -287 -175 -287 -210 -287 c 0,0,1
-305 -394 m 256,32,33
 -366 -394 -366 -394 -415.5 -378.5 c 128,-1,34
 -465 -363 -465 -363 -497 -343 c 1,35,-1
 -482 -275 l 1,36,37
 -448 -294 -448 -294 -406 -308.5 c 128,-1,38
 -364 -323 -364 -323 -305 -323 c 0,39,40
 -264 -323 -264 -323 -235 -318.5 c 128,-1,41
 -206 -314 -206 -314 -180.5 -304 c 128,-1,42
 -155 -294 -155 -294 -127 -280 c 1,43,-1
 -113 -345 l 1,44,45
 -145 -365 -145 -365 -194.5 -379.5 c 128,-1,46
 -244 -394 -244 -394 -305 -394 c 256,32,33
EndSplineSet
Ligature2: "'blws' Below Base Substitutions in Gurmukhi2 lookup 6 subtable" hasubscriptguru umatraguru
EndChar

StartChar: vasubscriptuguru
Encoding: 65574 -1 122
Width: 0
GlyphClass: 4
Flags: W
LayerCount: 2
Fore
SplineSet
-235 -193 m 2,0,1
 -288 -193 -288 -193 -316.5 -180 c 128,-1,2
 -345 -167 -345 -167 -356 -146 c 128,-1,3
 -367 -125 -367 -125 -367 -101 c 256,4,5
 -367 -77 -367 -77 -353.5 -61 c 128,-1,6
 -340 -45 -340 -45 -316 -37 c 128,-1,7
 -292 -29 -292 -29 -260 -29 c 2,8,-1
 -170 -29 l 1,9,-1
 -170 0 l 1,10,-1
 -89 0 l 1,11,-1
 -89 -62 l 1,12,-1
 -113 -86 l 1,13,-1
 -259 -86 l 2,14,15
 -277 -86 -277 -86 -288.5 -90 c 128,-1,16
 -300 -94 -300 -94 -300 -109 c 0,17,18
 -300 -128 -300 -128 -281.5 -132 c 128,-1,19
 -263 -136 -263 -136 -241 -136 c 2,20,-1
 -85 -136 l 1,21,-1
 -85 -193 l 1,22,-1
 -235 -193 l 2,0,1
-183 -306 m 0,23,24
 -231 -306 -231 -306 -259.5 -294.5 c 128,-1,25
 -288 -283 -288 -283 -300.5 -264.5 c 128,-1,26
 -313 -246 -313 -246 -313 -225 c 0,27,28
 -313 -199 -313 -199 -301 -186.5 c 128,-1,29
 -289 -174 -289 -174 -270 -167 c 1,30,-1
 -187 -193 l 1,31,-1
 -210 -193 l 2,32,33
 -224 -193 -224 -193 -236 -196.5 c 128,-1,34
 -248 -200 -248 -200 -248 -216 c 0,35,36
 -248 -230 -248 -230 -232 -239.5 c 128,-1,37
 -216 -249 -216 -249 -179 -249 c 0,38,39
 -148 -249 -148 -249 -129.5 -246.5 c 128,-1,40
 -111 -244 -111 -244 -86 -238 c 1,41,-1
 -69 -292 l 1,42,43
 -100 -301 -100 -301 -130 -303.5 c 128,-1,44
 -160 -306 -160 -306 -183 -306 c 0,23,24
-331 -394 m 0,45,46
 -388 -394 -388 -394 -436.5 -378.5 c 128,-1,47
 -485 -363 -485 -363 -517 -343 c 1,48,-1
 -502 -275 l 1,49,50
 -468 -294 -468 -294 -427 -308.5 c 128,-1,51
 -386 -323 -386 -323 -331 -323 c 0,52,53
 -278 -323 -278 -323 -235.5 -309.5 c 128,-1,54
 -193 -296 -193 -296 -159 -277 c 1,55,-1
 -145 -344 l 1,56,57
 -177 -364 -177 -364 -226 -379 c 128,-1,58
 -275 -394 -275 -394 -331 -394 c 0,45,46
EndSplineSet
Ligature2: "'blws' Below Base Substitutions in Gurmukhi2 lookup 6 subtable" vasubscriptguru umatraguru
EndChar

StartChar: udaatuguru
Encoding: 65575 -1 123
Width: 0
GlyphClass: 4
Flags: W
LayerCount: 2
Fore
SplineSet
114 -310 m 2,0,1
 111 -311 111 -311 105.5 -311.5 c 128,-1,2
 100 -312 100 -312 95 -312 c 0,3,4
 -5 -312 -5 -312 -71 -248.5 c 128,-1,5
 -137 -185 -137 -185 -169 -52 c 1,6,-1
 -98 -30 l 1,7,8
 -78 -109 -78 -109 -49 -154 c 128,-1,9
 -20 -199 -20 -199 18.5 -217 c 128,-1,10
 57 -235 57 -235 102 -235 c 0,11,12
 107 -235 107 -235 110.5 -235 c 128,-1,13
 114 -235 114 -235 118 -234 c 1,14,-1
 114 -310 l 2,0,1
-305 -335 m 256,15,16
 -366 -335 -366 -335 -415.5 -319.5 c 128,-1,17
 -465 -304 -465 -304 -497 -284 c 1,18,-1
 -482 -216 l 1,19,20
 -448 -235 -448 -235 -406 -249.5 c 128,-1,21
 -364 -264 -364 -264 -305 -264 c 0,22,23
 -247 -264 -247 -264 -204 -249.5 c 128,-1,24
 -161 -235 -161 -235 -127 -216 c 1,25,-1
 -113 -284 l 1,26,27
 -145 -304 -145 -304 -194.5 -319.5 c 128,-1,28
 -244 -335 -244 -335 -305 -335 c 256,15,16
EndSplineSet
Ligature2: "'blws' Below Base Substitutions in Gurmukhi2 lookup 6 subtable" udaatguru umatraguru
EndChar

StartChar: yakashuguru
Encoding: 65576 -1 124
Width: 0
GlyphClass: 4
Flags: W
LayerCount: 2
Fore
SplineSet
-129 -268 m 0,0,1
 -150 -268 -150 -268 -171.5 -261 c 128,-1,2
 -193 -254 -193 -254 -210.5 -237 c 128,-1,3
 -228 -220 -228 -220 -239 -190 c 128,-1,4
 -250 -160 -250 -160 -250 -114 c 0,5,6
 -250 -91 -250 -91 -248.5 -68.5 c 128,-1,7
 -247 -46 -247 -46 -243 -25 c 1,8,-1
 -169 -34 l 1,9,10
 -172 -47 -172 -47 -173 -68.5 c 128,-1,11
 -174 -90 -174 -90 -174 -109 c 0,12,13
 -174 -152 -174 -152 -163 -176 c 128,-1,14
 -152 -200 -152 -200 -121 -200 c 0,15,16
 -100 -200 -100 -200 -86.5 -188.5 c 128,-1,17
 -73 -177 -73 -177 -60 -146 c 1,18,-1
 -3 -176 l 1,19,20
 -15 -201 -15 -201 -31 -222 c 128,-1,21
 -47 -243 -47 -243 -70.5 -255.5 c 128,-1,22
 -94 -268 -94 -268 -129 -268 c 0,0,1
-305 -394 m 256,23,24
 -366 -394 -366 -394 -415.5 -378 c 128,-1,25
 -465 -362 -465 -362 -497 -342 c 1,26,-1
 -482 -275 l 1,27,28
 -448 -294 -448 -294 -406 -308 c 128,-1,29
 -364 -322 -364 -322 -305 -322 c 0,30,31
 -247 -322 -247 -322 -204 -308 c 128,-1,32
 -161 -294 -161 -294 -127 -275 c 1,33,-1
 -113 -342 l 1,34,35
 -145 -362 -145 -362 -194.5 -378 c 128,-1,36
 -244 -394 -244 -394 -305 -394 c 256,23,24
EndSplineSet
Ligature2: "'blws' Below Base Substitutions in Gurmukhi2 lookup 6 subtable" yakashguru umatraguru
EndChar

StartChar: rasubscriptuuguru
Encoding: 65577 -1 125
Width: 0
GlyphClass: 4
Flags: W
AnchorPoint: "Anchor-6" -170 0 mark 0
AnchorPoint: "Anchor-3" -170 0 mark 0
LayerCount: 2
Fore
SplineSet
-14 -238 m 1,0,1
 -38 -203 -38 -203 -67.5 -173.5 c 128,-1,2
 -97 -144 -97 -144 -135 -125 c 1,3,4
 -152 -142 -152 -142 -176 -153 c 128,-1,5
 -200 -164 -200 -164 -233 -164 c 0,6,7
 -268 -164 -268 -164 -293 -149.5 c 128,-1,8
 -318 -135 -318 -135 -318 -101 c 256,9,10
 -318 -67 -318 -67 -290.5 -54 c 128,-1,11
 -263 -41 -263 -41 -226 -41 c 0,12,13
 -212 -41 -212 -41 -198.5 -42.5 c 128,-1,14
 -185 -44 -185 -44 -172 -46 c 1,15,16
 -171 -41 -171 -41 -170.5 -35.5 c 128,-1,17
 -170 -30 -170 -30 -170 -26 c 2,18,-1
 -170 0 l 1,19,-1
 -89 0 l 1,20,-1
 -89 -5 l 2,21,22
 -89 -21 -89 -21 -92 -36.5 c 128,-1,23
 -95 -52 -95 -52 -100 -67 c 1,24,25
 -58 -86 -58 -86 -23 -120 c 128,-1,26
 12 -154 12 -154 45 -199 c 1,27,-1
 -14 -238 l 1,0,1
-305 -278 m 256,28,29
 -366 -278 -366 -278 -415.5 -262.5 c 128,-1,30
 -465 -247 -465 -247 -497 -227 c 1,31,-1
 -482 -166 l 1,32,33
 -448 -185 -448 -185 -406.5 -199 c 128,-1,34
 -365 -213 -365 -213 -305 -213 c 256,35,36
 -245 -213 -245 -213 -203 -199 c 128,-1,37
 -161 -185 -161 -185 -127 -166 c 1,38,-1
 -113 -227 l 1,39,40
 -145 -247 -145 -247 -194.5 -262.5 c 128,-1,41
 -244 -278 -244 -278 -305 -278 c 256,28,29
-305 -394 m 256,42,43
 -366 -394 -366 -394 -415.5 -378 c 128,-1,44
 -465 -362 -465 -362 -497 -342 c 1,45,-1
 -482 -282 l 1,46,47
 -448 -301 -448 -301 -406.5 -315 c 128,-1,48
 -365 -329 -365 -329 -305 -329 c 256,49,50
 -245 -329 -245 -329 -203 -315 c 128,-1,51
 -161 -301 -161 -301 -127 -282 c 1,52,-1
 -113 -342 l 1,53,54
 -145 -362 -145 -362 -194.5 -378 c 128,-1,55
 -244 -394 -244 -394 -305 -394 c 256,42,43
EndSplineSet
Ligature2: "'blws' Below Base Substitutions in Gurmukhi2 lookup 6 subtable" rasubscriptguru uumatraguru
EndChar

StartChar: hasubscriptuuguru
Encoding: 65578 -1 126
Width: 0
GlyphClass: 4
Flags: W
LayerCount: 2
Fore
SplineSet
-210 -263 m 0,0,1
 -259 -263 -259 -263 -298.5 -242 c 128,-1,2
 -338 -221 -338 -221 -361.5 -187 c 128,-1,3
 -385 -153 -385 -153 -385 -114 c 0,4,5
 -385 -93 -385 -93 -376 -76.5 c 128,-1,6
 -367 -60 -367 -60 -353 -50 c 0,7,8
 -340 -41 -340 -41 -326 -35.5 c 128,-1,9
 -312 -30 -312 -30 -291.5 -27.5 c 128,-1,10
 -271 -25 -271 -25 -241 -25 c 2,11,-1
 -235 -25 l 1,12,-1
 -238 -88 l 1,13,14
 -271 -88 -271 -88 -291.5 -93.5 c 128,-1,15
 -312 -99 -312 -99 -312 -123 c 0,16,17
 -312 -142 -312 -142 -297.5 -160 c 128,-1,18
 -283 -178 -283 -178 -261 -189.5 c 128,-1,19
 -239 -201 -239 -201 -217 -201 c 0,20,21
 -187 -201 -187 -201 -178.5 -189.5 c 128,-1,22
 -170 -178 -170 -178 -170 -153 c 2,23,-1
 -170 0 l 1,24,-1
 -89 0 l 1,25,-1
 -89 -140 l 2,26,27
 -89 -179 -89 -179 -96.5 -200 c 128,-1,28
 -104 -221 -104 -221 -119 -235 c 0,29,30
 -133 -248 -133 -248 -154 -255.5 c 128,-1,31
 -175 -263 -175 -263 -210 -263 c 0,0,1
-333 -278 m 256,32,33
 -394 -278 -394 -278 -444 -262.5 c 128,-1,34
 -494 -247 -494 -247 -526 -227 c 1,35,-1
 -511 -166 l 1,36,37
 -476 -185 -476 -185 -434.5 -199 c 128,-1,38
 -393 -213 -393 -213 -333 -213 c 0,39,40
 -309 -213 -309 -213 -288 -210.5 c 128,-1,41
 -267 -208 -267 -208 -249 -204 c 1,42,-1
 -142 -227 l 1,43,44
 -174 -247 -174 -247 -223 -262.5 c 128,-1,45
 -272 -278 -272 -278 -333 -278 c 256,32,33
-333 -394 m 256,46,47
 -394 -394 -394 -394 -444 -378 c 128,-1,48
 -494 -362 -494 -362 -526 -342 c 1,49,-1
 -511 -282 l 1,50,51
 -476 -301 -476 -301 -434.5 -315 c 128,-1,52
 -393 -329 -393 -329 -333 -329 c 256,53,54
 -273 -329 -273 -329 -231.5 -315 c 128,-1,55
 -190 -301 -190 -301 -156 -282 c 1,56,-1
 -142 -342 l 1,57,58
 -174 -362 -174 -362 -223 -378 c 128,-1,59
 -272 -394 -272 -394 -333 -394 c 256,46,47
EndSplineSet
Ligature2: "'blws' Below Base Substitutions in Gurmukhi2 lookup 6 subtable" hasubscriptguru uumatraguru
EndChar

StartChar: vasubscriptuuguru
Encoding: 65579 -1 127
Width: 0
GlyphClass: 4
Flags: W
LayerCount: 2
Fore
SplineSet
-215 -193 m 2,0,1
 -268 -193 -268 -193 -296.5 -180.5 c 128,-1,2
 -325 -168 -325 -168 -336 -147.5 c 128,-1,3
 -347 -127 -347 -127 -347 -104 c 0,4,5
 -347 -74 -347 -74 -331.5 -58 c 128,-1,6
 -316 -42 -316 -42 -291.5 -35.5 c 128,-1,7
 -267 -29 -267 -29 -242 -29 c 2,8,-1
 -170 -29 l 1,9,-1
 -170 0 l 1,10,-1
 -89 0 l 1,11,-1
 -89 -62 l 1,12,-1
 -113 -86 l 1,13,-1
 -239 -86 l 2,14,15
 -257 -86 -257 -86 -268.5 -89.5 c 128,-1,16
 -280 -93 -280 -93 -280 -109 c 0,17,18
 -280 -127 -280 -127 -263.5 -131.5 c 128,-1,19
 -247 -136 -247 -136 -221 -136 c 2,20,-1
 -85 -136 l 1,21,-1
 -85 -193 l 1,22,-1
 -215 -193 l 2,0,1
-173 -306 m 0,23,24
 -220 -306 -220 -306 -246.5 -294.5 c 128,-1,25
 -273 -283 -273 -283 -283.5 -264.5 c 128,-1,26
 -294 -246 -294 -246 -294 -226 c 0,27,28
 -294 -201 -294 -201 -281.5 -187.5 c 128,-1,29
 -269 -174 -269 -174 -250 -167 c 1,30,-1
 -167 -193 l 1,31,-1
 -178 -193 l 2,32,33
 -201 -193 -201 -193 -214.5 -196 c 128,-1,34
 -228 -199 -228 -199 -228 -216 c 0,35,36
 -228 -230 -228 -230 -213 -239.5 c 128,-1,37
 -198 -249 -198 -249 -161 -249 c 0,38,39
 -138 -249 -138 -249 -122.5 -246.5 c 128,-1,40
 -107 -244 -107 -244 -86 -238 c 1,41,-1
 -69 -292 l 1,42,43
 -97 -301 -97 -301 -124.5 -303.5 c 128,-1,44
 -152 -306 -152 -306 -173 -306 c 0,23,24
-337 -278 m 0,45,46
 -398 -278 -398 -278 -447.5 -262.5 c 128,-1,47
 -497 -247 -497 -247 -529 -227 c 1,48,-1
 -514 -166 l 1,49,50
 -480 -185 -480 -185 -438.5 -199 c 128,-1,51
 -397 -213 -397 -213 -337 -213 c 0,52,53
 -312 -213 -312 -213 -290.5 -210 c 128,-1,54
 -269 -207 -269 -207 -250 -203 c 1,55,-1
 -216 -260 l 1,56,57
 -242 -268 -242 -268 -272.5 -273 c 128,-1,58
 -303 -278 -303 -278 -337 -278 c 0,45,46
-337 -394 m 256,59,60
 -398 -394 -398 -394 -447.5 -378 c 128,-1,61
 -497 -362 -497 -362 -529 -342 c 1,62,-1
 -514 -282 l 1,63,64
 -480 -301 -480 -301 -438.5 -315 c 128,-1,65
 -397 -329 -397 -329 -337 -329 c 256,66,67
 -277 -329 -277 -329 -235 -315 c 128,-1,68
 -193 -301 -193 -301 -159 -282 c 1,69,-1
 -145 -342 l 1,70,71
 -177 -362 -177 -362 -226.5 -378 c 128,-1,72
 -276 -394 -276 -394 -337 -394 c 256,59,60
EndSplineSet
Ligature2: "'blws' Below Base Substitutions in Gurmukhi2 lookup 6 subtable" vasubscriptguru uumatraguru
EndChar

StartChar: udaatuuguru
Encoding: 65580 -1 128
Width: 0
GlyphClass: 4
Flags: W
LayerCount: 2
Fore
SplineSet
55 -243 m 1,0,1
 7 -233 7 -233 -34.5 -216 c 128,-1,2
 -76 -199 -76 -199 -110 -161.5 c 128,-1,3
 -144 -124 -144 -124 -170 -51 c 1,4,-1
 -99 -29 l 1,5,6
 -76 -85 -76 -85 -52.5 -113.5 c 128,-1,7
 -29 -142 -29 -142 1 -153.5 c 128,-1,8
 31 -165 31 -165 72 -171 c 1,9,-1
 55 -243 l 1,0,1
-305 -278 m 256,10,11
 -366 -278 -366 -278 -415 -262.5 c 128,-1,12
 -464 -247 -464 -247 -496 -227 c 1,13,-1
 -482 -166 l 1,14,15
 -447 -185 -447 -185 -405.5 -199 c 128,-1,16
 -364 -213 -364 -213 -305 -213 c 0,17,18
 -245 -213 -245 -213 -203 -199 c 128,-1,19
 -161 -185 -161 -185 -127 -166 c 1,20,-1
 -113 -227 l 1,21,22
 -145 -247 -145 -247 -194.5 -262.5 c 128,-1,23
 -244 -278 -244 -278 -305 -278 c 256,10,11
-305 -394 m 0,24,25
 -366 -394 -366 -394 -415 -378 c 128,-1,26
 -464 -362 -464 -362 -496 -342 c 1,27,-1
 -482 -281 l 1,28,29
 -447 -300 -447 -300 -405.5 -314 c 128,-1,30
 -364 -328 -364 -328 -305 -328 c 0,31,32
 -244 -328 -244 -328 -202.5 -314 c 128,-1,33
 -161 -300 -161 -300 -127 -281 c 1,34,-1
 -113 -342 l 1,35,36
 -145 -362 -145 -362 -194 -378 c 128,-1,37
 -243 -394 -243 -394 -305 -394 c 0,24,25
EndSplineSet
Ligature2: "'blws' Below Base Substitutions in Gurmukhi2 lookup 6 subtable" udaatguru uumatraguru
EndChar

StartChar: yakashuuguru
Encoding: 65581 -1 129
Width: 0
GlyphClass: 4
Flags: W
LayerCount: 2
Fore
SplineSet
-104 -244 m 0,0,1
 -125 -244 -125 -244 -146.5 -237.5 c 128,-1,2
 -168 -231 -168 -231 -186 -216 c 128,-1,3
 -204 -201 -204 -201 -215 -174 c 128,-1,4
 -226 -147 -226 -147 -226 -105 c 0,5,6
 -226 -85 -226 -85 -224 -64.5 c 128,-1,7
 -222 -44 -222 -44 -219 -25 c 1,8,-1
 -145 -34 l 1,9,10
 -147 -46 -147 -46 -148.5 -64 c 128,-1,11
 -150 -82 -150 -82 -150 -99 c 0,12,13
 -150 -134 -150 -134 -138.5 -155.5 c 128,-1,14
 -127 -177 -127 -177 -96 -177 c 0,15,16
 -76 -177 -76 -177 -62 -164.5 c 128,-1,17
 -48 -152 -48 -152 -35 -123 c 1,18,-1
 21 -152 l 1,19,20
 10 -177 10 -177 -6 -198 c 128,-1,21
 -22 -219 -22 -219 -45.5 -231.5 c 128,-1,22
 -69 -244 -69 -244 -104 -244 c 0,0,1
-326 -278 m 256,23,24
 -379 -278 -379 -278 -427 -262.5 c 128,-1,25
 -475 -247 -475 -247 -507 -227 c 1,26,-1
 -493 -166 l 1,27,28
 -458 -185 -458 -185 -418 -199 c 128,-1,29
 -378 -213 -378 -213 -326 -213 c 0,30,31
 -273 -213 -273 -213 -232.5 -199 c 128,-1,32
 -192 -185 -192 -185 -158 -166 c 1,33,-1
 -144 -227 l 1,34,35
 -176 -247 -176 -247 -224.5 -262.5 c 128,-1,36
 -273 -278 -273 -278 -326 -278 c 256,23,24
-326 -394 m 0,37,38
 -379 -394 -379 -394 -427 -378 c 128,-1,39
 -475 -362 -475 -362 -507 -342 c 1,40,-1
 -493 -281 l 1,41,42
 -458 -300 -458 -300 -418 -314 c 128,-1,43
 -378 -328 -378 -328 -326 -328 c 0,44,45
 -273 -328 -273 -328 -232.5 -314 c 128,-1,46
 -192 -300 -192 -300 -158 -281 c 1,47,-1
 -144 -342 l 1,48,49
 -176 -362 -176 -362 -224 -378 c 128,-1,50
 -272 -394 -272 -394 -326 -394 c 0,37,38
EndSplineSet
Ligature2: "'blws' Below Base Substitutions in Gurmukhi2 lookup 6 subtable" yakashguru uumatraguru
EndChar

StartChar: karaguru
Encoding: 65582 -1 130
Width: 622
GlyphClass: 2
Flags: W
AnchorPoint: "Anchor-0" 513 622 basechar 0
LayerCount: 2
Fore
SplineSet
383 -268 m 1,0,1
 359 -233 359 -233 329.5 -203 c 128,-1,2
 300 -173 300 -173 262 -154 c 1,3,4
 245 -172 245 -172 221 -182.5 c 128,-1,5
 197 -193 197 -193 165 -193 c 0,6,7
 129 -193 129 -193 104 -179 c 128,-1,8
 79 -165 79 -165 79 -131 c 256,9,10
 79 -97 79 -97 106.5 -83.5 c 128,-1,11
 134 -70 134 -70 172 -70 c 0,12,13
 186 -70 186 -70 199.5 -72 c 128,-1,14
 213 -74 213 -74 226 -76 c 1,15,16
 227 -71 227 -71 227 -65.5 c 128,-1,17
 227 -60 227 -60 227 -56 c 2,18,-1
 227 146 l 1,19,-1
 305 146 l 1,20,-1
 305 -16 l 2,21,22
 305 -44 305 -44 303 -63 c 128,-1,23
 301 -82 301 -82 298 -97 c 1,24,25
 339 -116 339 -116 374 -149.5 c 128,-1,26
 409 -183 409 -183 443 -229 c 1,27,-1
 383 -268 l 1,0,1
488 0 m 1,28,29
 483 68 483 68 470 126 c 128,-1,30
 457 184 457 184 435 230 c 2,31,-1
 425 254 l 1,32,33
 391 309 391 309 344 339.5 c 128,-1,34
 297 370 297 370 237 370 c 0,35,36
 185 370 185 370 151 344.5 c 128,-1,37
 117 319 117 319 117 267 c 0,38,39
 117 217 117 217 149 191.5 c 128,-1,40
 181 166 181 166 230 166 c 0,41,42
 304 166 304 166 350.5 202 c 128,-1,43
 397 238 397 238 423 286 c 1,44,-1
 430 312 l 1,45,46
 445 347 445 347 450 386 c 128,-1,47
 455 425 455 425 455 458 c 0,48,49
 455 478 455 478 452 505 c 128,-1,50
 449 532 449 532 445 551 c 1,51,-1
 -7 551 l 1,52,-1
 -7 622 l 1,53,-1
 629 622 l 1,54,-1
 629 551 l 1,55,-1
 526 551 l 1,56,57
 529 536 529 536 532 507.5 c 128,-1,58
 535 479 535 479 535 458 c 0,59,60
 535 403 535 403 521.5 347 c 128,-1,61
 508 291 508 291 475 243 c 2,62,-1
 462 221 l 2,63,64
 425 165 425 165 367 129.5 c 128,-1,65
 309 94 309 94 229 94 c 0,66,67
 170 94 170 94 126 115 c 128,-1,68
 82 136 82 136 58.5 175 c 128,-1,69
 35 214 35 214 35 268 c 0,70,71
 35 324 35 324 61.5 362.5 c 128,-1,72
 88 401 88 401 132 421 c 128,-1,73
 176 441 176 441 230 441 c 0,74,75
 307 441 307 441 362 411.5 c 128,-1,76
 417 382 417 382 458 326 c 2,77,-1
 471 309 l 2,78,79
 503 266 503 266 522.5 213.5 c 128,-1,80
 542 161 542 161 553 106 c 128,-1,81
 564 51 564 51 569 0 c 1,82,-1
 488 0 l 1,28,29
EndSplineSet
Ligature2: "'blws' Below Base Substitutions in Gurmukhi2 lookup 6 subtable" kaguru rasubscriptguru
EndChar

StartChar: rasubscript1guru
Encoding: 65583 -1 131
Width: 0
GlyphClass: 4
Flags: W
AnchorPoint: "Anchor-6" -170 0 mark 0
AnchorPoint: "Anchor-3" -170 0 mark 0
LayerCount: 2
Fore
SplineSet
-14 -268 m 1,0,1
 -38 -233 -38 -233 -67.5 -203 c 128,-1,2
 -97 -173 -97 -173 -135 -154 c 1,3,4
 -152 -172 -152 -172 -176 -182.5 c 128,-1,5
 -200 -193 -200 -193 -233 -193 c 0,6,7
 -268 -193 -268 -193 -293 -179 c 128,-1,8
 -318 -165 -318 -165 -318 -131 c 256,9,10
 -318 -97 -318 -97 -290.5 -83.5 c 128,-1,11
 -263 -70 -263 -70 -226 -70 c 0,12,13
 -212 -70 -212 -70 -198 -72 c 128,-1,14
 -184 -74 -184 -74 -171 -76 c 1,15,16
 -170 -71 -170 -71 -170 -65.5 c 128,-1,17
 -170 -60 -170 -60 -170 -56 c 2,18,-1
 -170 44 l 1,19,-1
 -92 63 l 1,20,-1
 -92 -17 l 2,21,22
 -92 -47 -92 -47 -93.5 -65 c 128,-1,23
 -95 -83 -95 -83 -100 -97 c 1,24,25
 -58 -116 -58 -116 -23 -149.5 c 128,-1,26
 12 -183 12 -183 45 -229 c 1,27,-1
 -14 -268 l 1,0,1
EndSplineSet
EndChar

StartChar: hasubscript1guru
Encoding: 65584 -1 132
Width: 0
GlyphClass: 4
Flags: W
AnchorPoint: "Anchor-6" -170 0 mark 0
AnchorPoint: "Anchor-3" -170 0 mark 0
LayerCount: 2
Fore
SplineSet
-210 -312 m 0,0,1
 -259 -312 -259 -312 -298.5 -291 c 128,-1,2
 -338 -270 -338 -270 -361.5 -235.5 c 128,-1,3
 -385 -201 -385 -201 -385 -161 c 0,4,5
 -385 -141 -385 -141 -376 -125 c 128,-1,6
 -367 -109 -367 -109 -353 -99 c 0,7,8
 -340 -90 -340 -90 -326 -84.5 c 128,-1,9
 -312 -79 -312 -79 -291.5 -76.5 c 128,-1,10
 -271 -74 -271 -74 -241 -74 c 2,11,-1
 -235 -74 l 1,12,-1
 -238 -137 l 1,13,14
 -271 -137 -271 -137 -291.5 -142.5 c 128,-1,15
 -312 -148 -312 -148 -312 -172 c 0,16,17
 -312 -191 -312 -191 -297.5 -209 c 128,-1,18
 -283 -227 -283 -227 -261 -238.5 c 128,-1,19
 -239 -250 -239 -250 -217 -250 c 0,20,21
 -187 -250 -187 -250 -178.5 -238.5 c 128,-1,22
 -170 -227 -170 -227 -170 -202 c 2,23,-1
 -170 44 l 1,24,-1
 -92 46 l 1,25,-1
 -92 -189 l 2,26,27
 -92 -222 -92 -222 -97.5 -244.5 c 128,-1,28
 -103 -267 -103 -267 -121 -284 c 0,29,30
 -134 -297 -134 -297 -155 -304.5 c 128,-1,31
 -176 -312 -176 -312 -210 -312 c 0,0,1
EndSplineSet
EndChar

StartChar: vasubscript1guru
Encoding: 65585 -1 133
Width: 0
GlyphClass: 4
Flags: W
AnchorPoint: "Anchor-6" -170 0 mark 0
AnchorPoint: "Anchor-3" -170 0 mark 0
LayerCount: 2
Fore
SplineSet
-235 -197 m 2,0,1
 -288 -197 -288 -197 -316.5 -184 c 128,-1,2
 -345 -171 -345 -171 -356 -150 c 128,-1,3
 -367 -129 -367 -129 -367 -104 c 256,4,5
 -367 -79 -367 -79 -353.5 -63 c 128,-1,6
 -340 -47 -340 -47 -316 -39 c 128,-1,7
 -292 -31 -292 -31 -260 -31 c 2,8,-1
 -167 -31 l 1,9,-1
 -167 44 l 1,10,-1
 -89 63 l 1,11,-1
 -89 -64 l 1,12,-1
 -113 -88 l 1,13,-1
 -259 -88 l 2,14,15
 -277 -88 -277 -88 -288.5 -92 c 128,-1,16
 -300 -96 -300 -96 -300 -112 c 0,17,18
 -300 -131 -300 -131 -281.5 -135.5 c 128,-1,19
 -263 -140 -263 -140 -241 -140 c 2,20,-1
 -85 -140 l 1,21,-1
 -85 -197 l 1,22,-1
 -235 -197 l 2,0,1
-183 -312 m 0,23,24
 -231 -312 -231 -312 -259.5 -300.5 c 128,-1,25
 -288 -289 -288 -289 -300.5 -270 c 128,-1,26
 -313 -251 -313 -251 -313 -229 c 0,27,28
 -313 -203 -313 -203 -301 -190.5 c 128,-1,29
 -289 -178 -289 -178 -270 -171 c 1,30,-1
 -187 -197 l 1,31,-1
 -210 -197 l 2,32,33
 -224 -197 -224 -197 -236 -200.5 c 128,-1,34
 -248 -204 -248 -204 -248 -220 c 256,35,36
 -248 -236 -248 -236 -232 -245.5 c 128,-1,37
 -216 -255 -216 -255 -179 -255 c 0,38,39
 -148 -255 -148 -255 -129.5 -252.5 c 128,-1,40
 -111 -250 -111 -250 -86 -244 c 1,41,-1
 -69 -298 l 1,42,43
 -100 -307 -100 -307 -130 -309.5 c 128,-1,44
 -160 -312 -160 -312 -183 -312 c 0,23,24
EndSplineSet
EndChar

StartChar: oobindiguru
Encoding: 65593 -1 141
Width: 662
GlyphClass: 2
Flags: W
AnchorPoint: "Anchor-1" 334 0 basechar 0
LayerCount: 2
Fore
SplineSet
359 0 m 0,0,1
 270 0 270 0 204 44 c 128,-1,2
 138 88 138 88 102 181 c 128,-1,3
 66 274 66 274 66 421 c 0,4,5
 66 520 66 520 80.5 592.5 c 128,-1,6
 95 665 95 665 125.5 714.5 c 128,-1,7
 156 764 156 764 204 794 c 0,8,9
 235 814 235 814 271 824.5 c 128,-1,10
 307 835 307 835 352 839 c 128,-1,11
 397 843 397 843 454 843 c 2,12,-1
 517 843 l 1,13,-1
 513 772 l 1,14,-1
 463 772 l 2,15,16
 407 772 407 772 367.5 768.5 c 128,-1,17
 328 765 328 765 300.5 757.5 c 128,-1,18
 273 750 273 750 252 737 c 0,19,20
 216 715 216 715 193 674.5 c 128,-1,21
 170 634 170 634 159 572.5 c 128,-1,22
 148 511 148 511 148 424 c 0,23,24
 148 315 148 315 165.5 246 c 128,-1,25
 183 177 183 177 213 139.5 c 128,-1,26
 243 102 243 102 280 87.5 c 128,-1,27
 317 73 317 73 355 73 c 0,28,29
 421 73 421 73 451 98.5 c 128,-1,30
 481 124 481 124 481 176 c 0,31,32
 481 204 481 204 470 226 c 128,-1,33
 459 248 459 248 437 261 c 0,34,35
 421 271 421 271 402.5 277.5 c 128,-1,36
 384 284 384 284 352.5 287.5 c 128,-1,37
 321 291 321 291 265 291 c 2,38,-1
 130 291 l 1,39,-1
 120 362 l 1,40,-1
 281 362 l 2,41,42
 332 362 332 362 366.5 365 c 128,-1,43
 401 368 401 368 425.5 374.5 c 128,-1,44
 450 381 450 381 469 391 c 0,45,46
 513 415 513 415 530.5 457 c 128,-1,47
 548 499 548 499 548 563 c 2,48,-1
 548 574 l 1,49,-1
 629 591 l 1,50,-1
 629 577 l 2,51,52
 629 486 629 486 600.5 429.5 c 128,-1,53
 572 373 572 373 524 345 c 128,-1,54
 476 317 476 317 418 309 c 1,55,-1
 431 331 l 1,56,57
 482 318 482 318 510.5 292 c 128,-1,58
 539 266 539 266 551 235 c 128,-1,59
 563 204 563 204 563 175 c 0,60,61
 563 120 563 120 540.5 81 c 128,-1,62
 518 42 518 42 472.5 21 c 128,-1,63
 427 0 427 0 359 0 c 0,0,1
-7 551 m 1,64,-1
 -7 622 l 1,65,-1
 679 622 l 1,66,-1
 679 551 l 1,67,-1
 -7 551 l 1,64,-1
590 672 m 0,68,69
 568 672 568 672 551.5 687 c 128,-1,70
 535 702 535 702 535 729 c 256,71,72
 535 756 535 756 551.5 771 c 128,-1,73
 568 786 568 786 590 786 c 0,74,75
 613 786 613 786 629 771 c 128,-1,76
 645 756 645 756 645 729 c 256,77,78
 645 702 645 702 629.5 687 c 128,-1,79
 614 672 614 672 590 672 c 0,68,69
EndSplineSet
Ligature2: "'abvs' Above Base Substitutions in Gurmukhi2 lookup 9 subtable" ooguru tippiguru
Ligature2: "'abvs' Above Base Substitutions in Gurmukhi2 lookup 9 subtable" ooguru bindiguru
EndChar

StartChar: eematrabindiguru
Encoding: 65596 -1 144
Width: 0
GlyphClass: 4
Flags: W
AnchorPoint: "Anchor-4" -89 622 mark 0
AnchorPoint: "Anchor-0" -89 622 mark 0
LayerCount: 2
Fore
SplineSet
-167 615 m 1,0,1
 -186 695 -186 695 -215 739.5 c 128,-1,2
 -244 784 -244 784 -282 802 c 128,-1,3
 -320 820 -320 820 -366 820 c 0,4,5
 -378 820 -378 820 -383.5 820 c 128,-1,6
 -389 820 -389 820 -394 820 c 1,7,-1
 -398 896 l 1,8,9
 -393 896 -393 896 -387 896 c 128,-1,10
 -381 896 -381 896 -373 896 c 0,11,12
 -299 896 -299 896 -243 866 c 128,-1,13
 -187 836 -187 836 -149 774 c 128,-1,14
 -111 712 -111 712 -90 615 c 1,15,-1
 -167 615 l 1,0,1
-87 782 m 0,16,17
 -109 782 -109 782 -125.5 797 c 128,-1,18
 -142 812 -142 812 -142 839 c 256,19,20
 -142 866 -142 866 -125.5 881 c 128,-1,21
 -109 896 -109 896 -87 896 c 0,22,23
 -64 896 -64 896 -48 881 c 128,-1,24
 -32 866 -32 866 -32 839 c 256,25,26
 -32 812 -32 812 -47.5 797 c 128,-1,27
 -63 782 -63 782 -87 782 c 0,16,17
EndSplineSet
Ligature2: "'abvs' Above Base Substitutions in Gurmukhi2 lookup 9 subtable" eematraguru tippiguru
Ligature2: "'abvs' Above Base Substitutions in Gurmukhi2 lookup 9 subtable" eematraguru bindiguru
EndChar

StartChar: aimatrabindiguru
Encoding: 65597 -1 145
Width: 0
GlyphClass: 4
Flags: W
AnchorPoint: "Anchor-4" -89 622 mark 0
AnchorPoint: "Anchor-0" -89 622 mark 0
LayerCount: 2
Fore
SplineSet
-143 610 m 1,0,1
 -162 690 -162 690 -191.5 736.5 c 128,-1,2
 -221 783 -221 783 -262.5 802.5 c 128,-1,3
 -304 822 -304 822 -359 822 c 0,4,5
 -363 822 -363 822 -367 822 c 128,-1,6
 -371 822 -371 822 -374 822 c 2,7,-1
 -378 896 l 1,8,9
 -374 896 -374 896 -368.5 896 c 128,-1,10
 -363 896 -363 896 -359 896 c 0,11,12
 -283 896 -283 896 -228.5 867 c 128,-1,13
 -174 838 -174 838 -138 776 c 128,-1,14
 -102 714 -102 714 -83 615 c 1,15,-1
 -143 610 l 1,0,1
-159 577 m 1,16,17
 -183 618 -183 618 -214.5 642 c 128,-1,18
 -246 666 -246 666 -285.5 676 c 128,-1,19
 -325 686 -325 686 -374 686 c 0,20,21
 -378 686 -378 686 -383 686 c 128,-1,22
 -388 686 -388 686 -393 686 c 1,23,-1
 -398 759 l 1,24,25
 -391 760 -391 760 -386 760 c 128,-1,26
 -381 760 -381 760 -377 760 c 0,27,28
 -314 760 -314 760 -265.5 742 c 128,-1,29
 -217 724 -217 724 -180.5 688 c 128,-1,30
 -144 652 -144 652 -117 598 c 1,31,-1
 -159 577 l 1,16,17
-75 782 m 0,32,33
 -97 782 -97 782 -113.5 797 c 128,-1,34
 -130 812 -130 812 -130 839 c 256,35,36
 -130 866 -130 866 -113.5 881 c 128,-1,37
 -97 896 -97 896 -75 896 c 0,38,39
 -52 896 -52 896 -36 881 c 128,-1,40
 -20 866 -20 866 -20 839 c 256,41,42
 -20 812 -20 812 -35.5 797 c 128,-1,43
 -51 782 -51 782 -75 782 c 0,32,33
EndSplineSet
Ligature2: "'abvs' Above Base Substitutions in Gurmukhi2 lookup 9 subtable" aimatraguru tippiguru
Ligature2: "'abvs' Above Base Substitutions in Gurmukhi2 lookup 9 subtable" aimatraguru bindiguru
EndChar

StartChar: oomatrabindiguru
Encoding: 65598 -1 146
Width: 0
GlyphClass: 4
Flags: W
AnchorPoint: "Anchor-4" -89 622 mark 0
AnchorPoint: "Anchor-0" -89 622 mark 0
LayerCount: 2
Fore
SplineSet
-168 615 m 1,0,1
 -171 656 -171 656 -180 681 c 128,-1,2
 -189 706 -189 706 -204.5 717.5 c 128,-1,3
 -220 729 -220 729 -246 729 c 0,4,5
 -263 729 -263 729 -281.5 726.5 c 128,-1,6
 -300 724 -300 724 -320 724 c 0,7,8
 -355 724 -355 724 -383.5 737.5 c 128,-1,9
 -412 751 -412 751 -434 784.5 c 128,-1,10
 -456 818 -456 818 -472 877 c 1,11,-1
 -400 896 l 1,12,13
 -389 863 -389 863 -379 840.5 c 128,-1,14
 -369 818 -369 818 -354 806.5 c 128,-1,15
 -339 795 -339 795 -313 795 c 0,16,17
 -296 795 -296 795 -275.5 797.5 c 128,-1,18
 -255 800 -255 800 -238 800 c 0,19,20
 -202 800 -202 800 -170 785 c 128,-1,21
 -138 770 -138 770 -117.5 730 c 128,-1,22
 -97 690 -97 690 -95 615 c 1,23,-1
 -168 615 l 1,0,1
-92 782 m 0,24,25
 -114 782 -114 782 -130.5 797 c 128,-1,26
 -147 812 -147 812 -147 839 c 256,27,28
 -147 866 -147 866 -130.5 881 c 128,-1,29
 -114 896 -114 896 -92 896 c 0,30,31
 -69 896 -69 896 -53 881 c 128,-1,32
 -37 866 -37 866 -37 839 c 256,33,34
 -37 812 -37 812 -52.5 797 c 128,-1,35
 -68 782 -68 782 -92 782 c 0,24,25
EndSplineSet
Substitution2: "Single Substitution lookup 11 subtable" oomatrabindi1guru
Ligature2: "'abvs' Above Base Substitutions in Gurmukhi2 lookup 9 subtable" oomatraguru tippiguru
Ligature2: "'abvs' Above Base Substitutions in Gurmukhi2 lookup 9 subtable" oomatraguru bindiguru
EndChar

StartChar: aumatrabindiguru
Encoding: 65599 -1 147
Width: 0
GlyphClass: 4
Flags: W
AnchorPoint: "Anchor-4" -89 622 mark 0
AnchorPoint: "Anchor-0" -89 622 mark 0
LayerCount: 2
Fore
SplineSet
-313 679 m 1,0,1
 -320 696 -320 696 -324.5 717 c 128,-1,2
 -329 738 -329 738 -329 755 c 0,3,4
 -329 810 -329 810 -289.5 842.5 c 128,-1,5
 -250 875 -250 875 -190 875 c 0,6,7
 -125 875 -125 875 -87.5 842.5 c 128,-1,8
 -50 810 -50 810 -50 754 c 0,9,10
 -50 738 -50 738 -54 717 c 128,-1,11
 -58 696 -58 696 -66 679 c 1,12,-1
 -134 689 l 1,13,14
 -127 704 -127 704 -124.5 718 c 128,-1,15
 -122 732 -122 732 -122 747 c 0,16,17
 -122 778 -122 778 -139.5 794.5 c 128,-1,18
 -157 811 -157 811 -189 811 c 256,19,20
 -221 811 -221 811 -239 794 c 128,-1,21
 -257 777 -257 777 -257 747 c 0,22,23
 -257 732 -257 732 -254 718 c 128,-1,24
 -251 704 -251 704 -244 689 c 1,25,-1
 -313 679 l 1,0,1
-349 764 m 0,26,27
 -397 764 -397 764 -436.5 786.5 c 128,-1,28
 -476 809 -476 809 -495 877 c 1,29,-1
 -423 896 l 1,30,31
 -411 859 -411 859 -395 844 c 128,-1,32
 -379 829 -379 829 -345 829 c 0,33,34
 -321 829 -321 829 -307.5 834 c 128,-1,35
 -294 839 -294 839 -272 854 c 1,36,-1
 -260 807 l 2,37,38
 -258 799 -258 799 -272 788.5 c 128,-1,39
 -286 778 -286 778 -307 771 c 128,-1,40
 -328 764 -328 764 -349 764 c 0,26,27
19 782 m 256,41,42
 -4 782 -4 782 -20.5 797 c 128,-1,43
 -37 812 -37 812 -37 839 c 256,44,45
 -37 866 -37 866 -20.5 881 c 128,-1,46
 -4 896 -4 896 19 896 c 256,47,48
 42 896 42 896 58 881 c 128,-1,49
 74 866 74 866 74 839 c 256,50,51
 74 812 74 812 58 797 c 128,-1,52
 42 782 42 782 19 782 c 256,41,42
EndSplineSet
Ligature2: "'abvs' Above Base Substitutions in Gurmukhi2 lookup 9 subtable" aumatraguru tippiguru
Ligature2: "'abvs' Above Base Substitutions in Gurmukhi2 lookup 9 subtable" aumatraguru bindiguru
Position2: "Single Positioning lookup 0 subtable" dx=54 dy=0 dh=0 dv=0
EndChar

StartChar: addakbaraltguru
Encoding: 65602 -1 150
Width: 217
Flags: W
LayerCount: 2
Fore
SplineSet
181 685 m 0,0,1
 134 685 134 685 101.5 704.5 c 128,-1,2
 69 724 69 724 51.5 763.5 c 128,-1,3
 34 803 34 803 32 863 c 1,4,-1
 107 868 l 1,5,6
 107 800 107 800 125 776 c 128,-1,7
 143 752 143 752 180 752 c 256,8,9
 217 752 217 752 235 776.5 c 128,-1,10
 253 801 253 801 253 868 c 1,11,-1
 328 863 l 1,12,13
 327 803 327 803 309.5 763.5 c 128,-1,14
 292 724 292 724 259.5 704.5 c 128,-1,15
 227 685 227 685 181 685 c 0,0,1
-7 551 m 1,16,-1
 -7 622 l 1,17,-1
 224 622 l 1,18,-1
 224 551 l 1,19,-1
 -7 551 l 1,16,-1
EndSplineSet
EndChar

StartChar: umatralowguru
Encoding: 65603 -1 151
Width: 0
GlyphClass: 4
Flags: W
LayerCount: 2
Fore
SplineSet
-309 -287 m 256,0,1
 -370 -287 -370 -287 -419.5 -271 c 128,-1,2
 -469 -255 -469 -255 -501 -235 c 1,3,-1
 -486 -168 l 1,4,5
 -452 -187 -452 -187 -410 -201 c 128,-1,6
 -368 -215 -368 -215 -309 -215 c 0,7,8
 -251 -215 -251 -215 -208 -201 c 128,-1,9
 -165 -187 -165 -187 -131 -168 c 1,10,-1
 -117 -235 l 1,11,12
 -149 -255 -149 -255 -198.5 -271 c 128,-1,13
 -248 -287 -248 -287 -309 -287 c 256,0,1
EndSplineSet
EndChar

StartChar: uumatralowguru
Encoding: 65604 -1 152
Width: 0
GlyphClass: 4
Flags: W
LayerCount: 2
Fore
SplineSet
-305 -263 m 256,0,1
 -366 -263 -366 -263 -415.5 -247 c 128,-1,2
 -465 -231 -465 -231 -497 -211 c 1,3,-1
 -482 -150 l 1,4,5
 -448 -169 -448 -169 -406.5 -183.5 c 128,-1,6
 -365 -198 -365 -198 -305 -198 c 256,7,8
 -245 -198 -245 -198 -203 -183.5 c 128,-1,9
 -161 -169 -161 -169 -127 -150 c 1,10,-1
 -113 -211 l 1,11,12
 -145 -231 -145 -231 -194.5 -247 c 128,-1,13
 -244 -263 -244 -263 -305 -263 c 256,0,1
-305 -394 m 256,14,15
 -366 -394 -366 -394 -415.5 -378 c 128,-1,16
 -465 -362 -465 -362 -497 -342 c 1,17,-1
 -482 -281 l 1,18,19
 -448 -300 -448 -300 -406.5 -314 c 128,-1,20
 -365 -328 -365 -328 -305 -328 c 256,21,22
 -245 -328 -245 -328 -203 -314 c 128,-1,23
 -161 -300 -161 -300 -127 -281 c 1,24,-1
 -113 -342 l 1,25,26
 -145 -362 -145 -362 -194.5 -378 c 128,-1,27
 -244 -394 -244 -394 -305 -394 c 256,14,15
EndSplineSet
EndChar

StartChar: oomatra1guru
Encoding: 65605 -1 153
Width: 0
GlyphClass: 4
Flags: W
AnchorPoint: "Anchor-4" -89 622 mark 0
AnchorPoint: "Anchor-0" -89 622 mark 0
LayerCount: 2
Fore
SplineSet
-168 615 m 1,0,1
 -173 676 -173 676 -188.5 702.5 c 128,-1,2
 -204 729 -204 729 -239 729 c 0,3,4
 -253 729 -253 729 -268.5 726.5 c 128,-1,5
 -284 724 -284 724 -304 724 c 0,6,7
 -333 724 -333 724 -357.5 737.5 c 128,-1,8
 -382 751 -382 751 -402 784.5 c 128,-1,9
 -422 818 -422 818 -438 877 c 1,10,-1
 -366 896 l 1,11,12
 -357 862 -357 862 -347.5 839.5 c 128,-1,13
 -338 817 -338 817 -325 806 c 128,-1,14
 -312 795 -312 795 -294 795 c 0,15,16
 -271 795 -271 795 -257 797.5 c 128,-1,17
 -243 800 -243 800 -227 800 c 0,18,19
 -194 800 -194 800 -165 784.5 c 128,-1,20
 -136 769 -136 769 -116.5 729 c 128,-1,21
 -97 689 -97 689 -95 615 c 1,22,-1
 -168 615 l 1,0,1
EndSplineSet
EndChar

StartChar: oomatrabindi1guru
Encoding: 65606 -1 154
Width: 0
GlyphClass: 4
Flags: W
AnchorPoint: "Anchor-4" -89 622 mark 0
AnchorPoint: "Anchor-0" -89 622 mark 0
LayerCount: 2
Fore
SplineSet
-168 615 m 1,0,1
 -173 676 -173 676 -188.5 702.5 c 128,-1,2
 -204 729 -204 729 -239 729 c 0,3,4
 -253 729 -253 729 -268.5 726.5 c 128,-1,5
 -284 724 -284 724 -304 724 c 0,6,7
 -333 724 -333 724 -357.5 737.5 c 128,-1,8
 -382 751 -382 751 -402 784.5 c 128,-1,9
 -422 818 -422 818 -438 877 c 1,10,-1
 -366 896 l 1,11,12
 -357 862 -357 862 -347.5 839.5 c 128,-1,13
 -338 817 -338 817 -325 806 c 128,-1,14
 -312 795 -312 795 -294 795 c 0,15,16
 -271 795 -271 795 -257 797.5 c 128,-1,17
 -243 800 -243 800 -227 800 c 0,18,19
 -194 800 -194 800 -165 784.5 c 128,-1,20
 -136 769 -136 769 -116.5 729 c 128,-1,21
 -97 689 -97 689 -95 615 c 1,22,-1
 -168 615 l 1,0,1
-92 782 m 0,23,24
 -114 782 -114 782 -130.5 797 c 128,-1,25
 -147 812 -147 812 -147 839 c 256,26,27
 -147 866 -147 866 -130.5 881 c 128,-1,28
 -114 896 -114 896 -92 896 c 0,29,30
 -69 896 -69 896 -53 881 c 128,-1,31
 -37 866 -37 866 -37 839 c 256,32,33
 -37 812 -37 812 -52.5 797 c 128,-1,34
 -68 782 -68 782 -92 782 c 0,23,24
EndSplineSet
EndChar

StartChar: ooaddakguru
Encoding: 65612 -1 160
Width: 662
GlyphClass: 2
Flags: W
AnchorPoint: "Anchor-1" 336 0 basechar 0
LayerCount: 2
Fore
SplineSet
359 0 m 0,0,1
 270 0 270 0 204 44 c 128,-1,2
 138 88 138 88 102 181 c 128,-1,3
 66 274 66 274 66 421 c 0,4,5
 66 520 66 520 80.5 592.5 c 128,-1,6
 95 665 95 665 125.5 714.5 c 128,-1,7
 156 764 156 764 204 794 c 0,8,9
 235 814 235 814 271 824.5 c 128,-1,10
 307 835 307 835 352 839 c 128,-1,11
 397 843 397 843 454 843 c 2,12,-1
 547 843 l 1,13,-1
 543 772 l 1,14,-1
 463 772 l 2,15,16
 407 772 407 772 367.5 768.5 c 128,-1,17
 328 765 328 765 300.5 757.5 c 128,-1,18
 273 750 273 750 252 737 c 0,19,20
 216 715 216 715 193 674.5 c 128,-1,21
 170 634 170 634 159 572.5 c 128,-1,22
 148 511 148 511 148 424 c 0,23,24
 148 315 148 315 165.5 246 c 128,-1,25
 183 177 183 177 213 139.5 c 128,-1,26
 243 102 243 102 280 87.5 c 128,-1,27
 317 73 317 73 355 73 c 0,28,29
 421 73 421 73 451 98.5 c 128,-1,30
 481 124 481 124 481 176 c 0,31,32
 481 204 481 204 470 226 c 128,-1,33
 459 248 459 248 437 261 c 0,34,35
 421 271 421 271 402.5 277.5 c 128,-1,36
 384 284 384 284 352.5 287.5 c 128,-1,37
 321 291 321 291 265 291 c 2,38,-1
 130 291 l 1,39,-1
 120 362 l 1,40,-1
 281 362 l 2,41,42
 332 362 332 362 366.5 365 c 128,-1,43
 401 368 401 368 425.5 374.5 c 128,-1,44
 450 381 450 381 469 391 c 0,45,46
 513 415 513 415 530.5 457 c 128,-1,47
 548 499 548 499 548 563 c 2,48,-1
 548 574 l 1,49,-1
 629 591 l 1,50,-1
 629 577 l 2,51,52
 629 486 629 486 600.5 429.5 c 128,-1,53
 572 373 572 373 524 345 c 128,-1,54
 476 317 476 317 418 309 c 1,55,-1
 431 331 l 1,56,57
 482 318 482 318 510.5 292 c 128,-1,58
 539 266 539 266 551 235 c 128,-1,59
 563 204 563 204 563 175 c 0,60,61
 563 120 563 120 540.5 81 c 128,-1,62
 518 42 518 42 472.5 21 c 128,-1,63
 427 0 427 0 359 0 c 0,0,1
-7 551 m 1,64,-1
 -7 622 l 1,65,-1
 679 622 l 1,66,-1
 679 551 l 1,67,-1
 -7 551 l 1,64,-1
646 685 m 256,68,69
 601 685 601 685 569.5 704.5 c 128,-1,70
 538 724 538 724 521 763.5 c 128,-1,71
 504 803 504 803 502 863 c 1,72,-1
 577 868 l 1,73,74
 577 800 577 800 594.5 776 c 128,-1,75
 612 752 612 752 645 752 c 0,76,77
 679 752 679 752 696 776.5 c 128,-1,78
 713 801 713 801 713 868 c 1,79,-1
 789 863 l 1,80,81
 787 803 787 803 770 763.5 c 128,-1,82
 753 724 753 724 722 704.5 c 128,-1,83
 691 685 691 685 646 685 c 256,68,69
EndSplineSet
Ligature2: "'abvs' Above Base Substitutions in Gurmukhi2 lookup 9 subtable" ooguru addakguru
EndChar

StartChar: iimatraaddakguru
Encoding: 65614 -1 162
Width: 259
Flags: W
LayerCount: 2
Fore
SplineSet
89 0 m 1,0,-1
 89 551 l 1,1,-1
 -7 551 l 1,2,-1
 -7 622 l 1,3,-1
 89 622 l 1,4,-1
 89 654 l 2,5,6
 89 693 89 693 86 725 c 128,-1,7
 83 757 83 757 73 779.5 c 128,-1,8
 63 802 63 802 44.5 814 c 128,-1,9
 26 826 26 826 -6 826 c 0,10,11
 -58 826 -58 826 -80.5 798.5 c 128,-1,12
 -103 771 -103 771 -103 721 c 0,13,14
 -103 705 -103 705 -101 690 c 128,-1,15
 -99 675 -99 675 -97 663 c 1,16,-1
 -176 655 l 1,17,18
 -178 671 -178 671 -180 688 c 128,-1,19
 -182 705 -182 705 -182 721 c 0,20,21
 -182 777 -182 777 -159.5 816 c 128,-1,22
 -137 855 -137 855 -97 875.5 c 128,-1,23
 -57 896 -57 896 -4 896 c 0,24,25
 61 896 61 896 99 867.5 c 128,-1,26
 137 839 137 839 153.5 787.5 c 128,-1,27
 170 736 170 736 170 668 c 2,28,-1
 170 622 l 1,29,-1
 266 622 l 1,30,-1
 266 551 l 1,31,-1
 170 551 l 1,32,-1
 170 0 l 1,33,-1
 89 0 l 1,0,-1
242 713 m 0,34,35
 199 713 199 713 171 734 c 128,-1,36
 143 755 143 755 126 786 c 0,37,38
 116 806 116 806 108.5 831.5 c 128,-1,39
 101 857 101 857 99 891 c 1,40,-1
 174 896 l 1,41,42
 174 829 174 829 191.5 804.5 c 128,-1,43
 209 780 209 780 241 780 c 0,44,45
 276 780 276 780 293 804.5 c 128,-1,46
 310 829 310 829 310 896 c 1,47,-1
 385 891 l 1,48,49
 384 831 384 831 367 791.5 c 128,-1,50
 350 752 350 752 318.5 732.5 c 128,-1,51
 287 713 287 713 242 713 c 0,34,35
EndSplineSet
Ligature2: "'abvs' Above Base Substitutions in Gurmukhi2 lookup 9 subtable" iimatraguru addakguru
EndChar

StartChar: eematraaddakguru
Encoding: 65615 -1 163
Width: 0
GlyphClass: 4
Flags: W
AnchorPoint: "Anchor-4" -89 622 mark 0
AnchorPoint: "Anchor-0" -89 622 mark 0
LayerCount: 2
Fore
SplineSet
-167 615 m 1,0,1
 -191 696 -191 696 -221.5 740.5 c 128,-1,2
 -252 785 -252 785 -289 802.5 c 128,-1,3
 -326 820 -326 820 -370 820 c 0,4,5
 -377 820 -377 820 -382.5 820 c 128,-1,6
 -388 820 -388 820 -394 819 c 1,7,-1
 -398 895 l 1,8,9
 -393 896 -393 896 -389.5 896 c 128,-1,10
 -386 896 -386 896 -379 896 c 0,11,12
 -305 896 -305 896 -251 869 c 128,-1,13
 -197 842 -197 842 -158 780.5 c 128,-1,14
 -119 719 -119 719 -90 615 c 1,15,-1
 -167 615 l 1,0,1
-17 685 m 0,16,17
 -61 685 -61 685 -92 704.5 c 128,-1,18
 -123 724 -123 724 -140.5 763.5 c 128,-1,19
 -158 803 -158 803 -160 863 c 1,20,-1
 -85 868 l 1,21,22
 -85 800 -85 800 -67.5 776 c 128,-1,23
 -50 752 -50 752 -18 752 c 0,24,25
 17 752 17 752 34 776.5 c 128,-1,26
 51 801 51 801 51 868 c 1,27,-1
 126 863 l 1,28,29
 125 803 125 803 108 763.5 c 128,-1,30
 91 724 91 724 59.5 704.5 c 128,-1,31
 28 685 28 685 -17 685 c 0,16,17
EndSplineSet
Substitution2: "Single Substitution lookup 13 subtable" eematraaddakaltguru
Ligature2: "'abvs' Above Base Substitutions in Gurmukhi2 lookup 9 subtable" eematraguru addakguru
MultipleSubs2: "Multiple Substitution lookup 1 subtable" eematraguru addakguru
EndChar

StartChar: aimatraaddakguru
Encoding: 65616 -1 164
Width: 0
GlyphClass: 4
Flags: W
AnchorPoint: "Anchor-4" -89 622 mark 0
AnchorPoint: "Anchor-0" -89 622 mark 0
LayerCount: 2
Fore
SplineSet
-143 610 m 1,0,1
 -166 687 -166 687 -198 733.5 c 128,-1,2
 -230 780 -230 780 -272.5 801 c 128,-1,3
 -315 822 -315 822 -370 822 c 0,4,5
 -374 822 -374 822 -377.5 822 c 128,-1,6
 -381 822 -381 822 -385 822 c 2,7,-1
 -389 896 l 1,8,9
 -384 896 -384 896 -379 896 c 128,-1,10
 -374 896 -374 896 -370 896 c 0,11,12
 -316 896 -316 896 -275.5 883 c 128,-1,13
 -235 870 -235 870 -202.5 839 c 128,-1,14
 -170 808 -170 808 -141.5 753.5 c 128,-1,15
 -113 699 -113 699 -83 615 c 1,16,-1
 -143 610 l 1,0,1
-159 577 m 1,17,18
 -185 617 -185 617 -218 641 c 128,-1,19
 -251 665 -251 665 -292 675.5 c 128,-1,20
 -333 686 -333 686 -384 686 c 0,21,22
 -389 686 -389 686 -394 686 c 128,-1,23
 -399 686 -399 686 -404 686 c 1,24,-1
 -409 759 l 1,25,26
 -402 760 -402 760 -397 760 c 128,-1,27
 -392 760 -392 760 -388 760 c 0,28,29
 -325 760 -325 760 -275 742.5 c 128,-1,30
 -225 725 -225 725 -187.5 690 c 128,-1,31
 -150 655 -150 655 -123 601 c 1,32,-1
 -159 577 l 1,17,18
-17 685 m 256,33,34
 -62 685 -62 685 -93.5 704.5 c 128,-1,35
 -125 724 -125 724 -142 763.5 c 128,-1,36
 -159 803 -159 803 -161 863 c 1,37,-1
 -85 868 l 1,38,39
 -85 800 -85 800 -68.5 776 c 128,-1,40
 -52 752 -52 752 -18 752 c 0,41,42
 17 752 17 752 34 776.5 c 128,-1,43
 51 801 51 801 51 868 c 1,44,-1
 126 863 l 1,45,46
 125 803 125 803 108 763.5 c 128,-1,47
 91 724 91 724 59.5 704.5 c 128,-1,48
 28 685 28 685 -17 685 c 256,33,34
EndSplineSet
Ligature2: "'abvs' Above Base Substitutions in Gurmukhi2 lookup 9 subtable" aimatraguru addakguru
MultipleSubs2: "Multiple Substitution lookup 1 subtable" aimatraguru addakguru
EndChar

StartChar: oomatraaddakguru
Encoding: 65617 -1 165
Width: 0
GlyphClass: 4
Flags: W
AnchorPoint: "Anchor-4" -89 622 mark 0
AnchorPoint: "Anchor-0" -89 622 mark 0
LayerCount: 2
Fore
SplineSet
-168 615 m 1,0,1
 -174 656 -174 656 -182.5 681 c 128,-1,2
 -191 706 -191 706 -205.5 717.5 c 128,-1,3
 -220 729 -220 729 -246 729 c 0,4,5
 -262 729 -262 729 -281 726.5 c 128,-1,6
 -300 724 -300 724 -320 724 c 0,7,8
 -355 724 -355 724 -383.5 737.5 c 128,-1,9
 -412 751 -412 751 -433.5 784.5 c 128,-1,10
 -455 818 -455 818 -471 877 c 1,11,-1
 -400 896 l 1,12,13
 -389 863 -389 863 -379 840.5 c 128,-1,14
 -369 818 -369 818 -353.5 806.5 c 128,-1,15
 -338 795 -338 795 -312 795 c 0,16,17
 -295 795 -295 795 -275 797.5 c 128,-1,18
 -255 800 -255 800 -238 800 c 0,19,20
 -205 800 -205 800 -174.5 783.5 c 128,-1,21
 -144 767 -144 767 -122.5 727 c 128,-1,22
 -101 687 -101 687 -95 615 c 1,23,-1
 -168 615 l 1,0,1
-17 685 m 0,24,25
 -57 685 -57 685 -89 704.5 c 128,-1,26
 -121 724 -121 724 -139.5 763.5 c 128,-1,27
 -158 803 -158 803 -161 863 c 1,28,-1
 -85 868 l 1,29,30
 -85 800 -85 800 -68.5 776 c 128,-1,31
 -52 752 -52 752 -18 752 c 0,32,33
 17 752 17 752 34 776.5 c 128,-1,34
 51 801 51 801 51 868 c 1,35,-1
 126 863 l 1,36,37
 125 803 125 803 108 763.5 c 128,-1,38
 91 724 91 724 59.5 704.5 c 128,-1,39
 28 685 28 685 -17 685 c 0,24,25
EndSplineSet
Substitution2: "Single Substitution lookup 13 subtable" oomatraaddakaltguru
Ligature2: "'abvs' Above Base Substitutions in Gurmukhi2 lookup 9 subtable" oomatraguru addakguru
MultipleSubs2: "Multiple Substitution lookup 1 subtable" oomatra1guru addakguru
EndChar

StartChar: aumatraaddakguru
Encoding: 65618 -1 166
Width: 0
GlyphClass: 4
Flags: W
AnchorPoint: "Anchor-4" -89 622 mark 0
AnchorPoint: "Anchor-0" -89 622 mark 0
LayerCount: 2
Fore
SplineSet
-316 679 m 1,0,1
 -323 696 -323 696 -328 717 c 128,-1,2
 -333 738 -333 738 -333 755 c 0,3,4
 -333 810 -333 810 -295 842.5 c 128,-1,5
 -257 875 -257 875 -199 875 c 0,6,7
 -139 875 -139 875 -103 841 c 128,-1,8
 -67 807 -67 807 -67 754 c 0,9,10
 -67 732 -67 732 -69.5 714 c 128,-1,11
 -72 696 -72 696 -80 679 c 1,12,-1
 -148 689 l 1,13,14
 -141 704 -141 704 -138 718 c 128,-1,15
 -135 732 -135 732 -135 747 c 0,16,17
 -135 778 -135 778 -151.5 794.5 c 128,-1,18
 -168 811 -168 811 -198 811 c 256,19,20
 -228 811 -228 811 -244.5 794 c 128,-1,21
 -261 777 -261 777 -261 747 c 0,22,23
 -261 732 -261 732 -258 718 c 128,-1,24
 -255 704 -255 704 -248 689 c 1,25,-1
 -316 679 l 1,0,1
-349 764 m 0,26,27
 -395 764 -395 764 -433 786.5 c 128,-1,28
 -471 809 -471 809 -489 877 c 1,29,-1
 -417 896 l 1,30,31
 -406 859 -406 859 -390.5 844 c 128,-1,32
 -375 829 -375 829 -344 829 c 0,33,34
 -321 829 -321 829 -309 834 c 128,-1,35
 -297 839 -297 839 -276 854 c 1,36,-1
 -264 807 l 2,37,38
 -262 799 -262 799 -275.5 788.5 c 128,-1,39
 -289 778 -289 778 -309 771 c 128,-1,40
 -329 764 -329 764 -349 764 c 0,26,27
27 713 m 0,41,42
 -13 713 -13 713 -45 733 c 128,-1,43
 -77 753 -77 753 -95.5 793 c 128,-1,44
 -114 833 -114 833 -116 891 c 1,45,-1
 -41 896 l 1,46,47
 -41 829 -41 829 -23.5 804.5 c 128,-1,48
 -6 780 -6 780 26 780 c 0,49,50
 61 780 61 780 78 804.5 c 128,-1,51
 95 829 95 829 95 896 c 1,52,-1
 170 891 l 1,53,54
 169 831 169 831 152 791.5 c 128,-1,55
 135 752 135 752 103.5 732.5 c 128,-1,56
 72 713 72 713 27 713 c 0,41,42
EndSplineSet
Ligature2: "'abvs' Above Base Substitutions in Gurmukhi2 lookup 9 subtable" aumatraguru addakguru
MultipleSubs2: "Multiple Substitution lookup 1 subtable" aumatraguru addakguru
Position2: "Single Positioning lookup 4 per glyph data 0" dx=-1 dy=0 dh=0 dv=0
Position2: "Single Positioning lookup 3 per glyph data 0" dx=-70 dy=0 dh=0 dv=0
EndChar

StartChar: uraaddakguru
Encoding: 65621 -1 169
Width: 662
Flags: W
LayerCount: 2
Fore
SplineSet
359 0 m 0,0,1
 270 0 270 0 204 44 c 128,-1,2
 138 88 138 88 102 181 c 128,-1,3
 66 274 66 274 66 421 c 0,4,5
 66 469 66 469 68.5 506 c 128,-1,6
 71 543 71 543 77 576 c 2,7,-1
 80 595 l 1,8,9
 102 695 102 695 148 751.5 c 128,-1,10
 194 808 194 808 254 831.5 c 128,-1,11
 314 855 314 855 377 855 c 0,12,13
 446 855 446 855 493 830 c 128,-1,14
 540 805 540 805 574 757 c 0,15,16
 599 722 599 722 614 675 c 128,-1,17
 629 628 629 628 629 566 c 0,18,19
 629 482 629 482 600.5 428 c 128,-1,20
 572 374 572 374 524 345.5 c 128,-1,21
 476 317 476 317 418 309 c 1,22,-1
 431 331 l 1,23,24
 482 318 482 318 510.5 292 c 128,-1,25
 539 266 539 266 551 235 c 128,-1,26
 563 204 563 204 563 175 c 0,27,28
 563 120 563 120 540.5 81 c 128,-1,29
 518 42 518 42 472.5 21 c 128,-1,30
 427 0 427 0 359 0 c 0,0,1
355 73 m 0,31,32
 421 73 421 73 451 98.5 c 128,-1,33
 481 124 481 124 481 174 c 0,34,35
 481 203 481 203 470 225.5 c 128,-1,36
 459 248 459 248 437 261 c 0,37,38
 421 271 421 271 402.5 277.5 c 128,-1,39
 384 284 384 284 352.5 287.5 c 128,-1,40
 321 291 321 291 265 291 c 2,41,-1
 130 291 l 1,42,-1
 120 362 l 1,43,-1
 281 362 l 2,44,45
 332 362 332 362 366.5 365 c 128,-1,46
 401 368 401 368 425.5 374.5 c 128,-1,47
 450 381 450 381 469 391 c 0,48,49
 514 415 514 415 531 457.5 c 128,-1,50
 548 500 548 500 548 556 c 2,51,-1
 548 574 l 2,52,53
 548 673 548 673 502.5 727.5 c 128,-1,54
 457 782 457 782 371 782 c 0,55,56
 322 782 322 782 280 762 c 128,-1,57
 238 742 238 742 207.5 698.5 c 128,-1,58
 177 655 177 655 161 584 c 1,59,-1
 159 571 l 2,60,61
 153 537 153 537 150.5 501.5 c 128,-1,62
 148 466 148 466 148 424 c 0,63,64
 148 315 148 315 165.5 246 c 128,-1,65
 183 177 183 177 213 139.5 c 128,-1,66
 243 102 243 102 280 87.5 c 128,-1,67
 317 73 317 73 355 73 c 0,31,32
-7 551 m 1,68,-1
 -7 622 l 1,69,-1
 679 622 l 1,70,-1
 679 551 l 1,71,-1
 -7 551 l 1,68,-1
685 685 m 0,72,73
 645 685 645 685 618 698.5 c 128,-1,74
 591 712 591 712 571 741 c 0,75,76
 557 763 557 763 547.5 792 c 128,-1,77
 538 821 538 821 536 863 c 1,78,-1
 611 868 l 1,79,80
 611 800 611 800 629.5 776 c 128,-1,81
 648 752 648 752 684 752 c 0,82,83
 721 752 721 752 739 776.5 c 128,-1,84
 757 801 757 801 757 868 c 1,85,-1
 833 863 l 1,86,87
 831 803 831 803 813.5 763.5 c 128,-1,88
 796 724 796 724 764 704.5 c 128,-1,89
 732 685 732 685 685 685 c 0,72,73
EndSplineSet
EndChar

StartChar: exclam.guru
Encoding: 33 33 170
Width: 383
Flags: W
LayerCount: 2
Fore
SplineSet
181 201 m 1,0,-1
 156 714 l 1,1,-1
 263 714 l 1,2,-1
 238 201 l 1,3,-1
 181 201 l 1,0,-1
147 54 m 0,4,5
 147 91 147 91 165 106 c 128,-1,6
 183 121 183 121 209 121 c 0,7,8
 234 121 234 121 252.5 106 c 128,-1,9
 271 91 271 91 271 54 c 0,10,11
 271 18 271 18 252.5 2 c 128,-1,12
 234 -14 234 -14 209 -14 c 0,13,14
 183 -14 183 -14 165 2 c 128,-1,15
 147 18 147 18 147 54 c 0,4,5
EndSplineSet
EndChar

StartChar: quotedbl.guru
Encoding: 34 34 171
Width: 502
Flags: W
LayerCount: 2
Fore
SplineSet
133 471 m 1,0,-1
 108 729 l 1,1,-1
 219 729 l 1,2,-1
 194 471 l 1,3,-1
 133 471 l 1,0,-1
309 471 m 1,4,-1
 284 729 l 1,5,-1
 394 729 l 1,6,-1
 369 471 l 1,7,-1
 309 471 l 1,4,-1
EndSplineSet
EndChar

StartChar: numbersign.guru
Encoding: 35 35 172
Width: 653
Flags: W
LayerCount: 2
Fore
SplineSet
159 176 m 1,0,-1
 34 176 l 1,1,-1
 34 242 l 1,2,-1
 171 242 l 1,3,-1
 202 394 l 1,4,-1
 70 394 l 1,5,-1
 70 459 l 1,6,-1
 213 459 l 1,7,-1
 247 632 l 1,8,-1
 317 632 l 1,9,-1
 284 459 l 1,10,-1
 424 459 l 1,11,-1
 458 632 l 1,12,-1
 527 632 l 1,13,-1
 493 459 l 1,14,-1
 619 459 l 1,15,-1
 619 394 l 1,16,-1
 480 394 l 1,17,-1
 451 242 l 1,18,-1
 584 242 l 1,19,-1
 584 176 l 1,20,-1
 438 176 l 1,21,-1
 404 0 l 1,22,-1
 334 0 l 1,23,-1
 369 176 l 1,24,-1
 229 176 l 1,25,-1
 195 0 l 1,26,-1
 126 0 l 1,27,-1
 159 176 l 1,0,-1
381 242 m 1,28,-1
 411 394 l 1,29,-1
 271 394 l 1,30,-1
 242 242 l 1,31,-1
 381 242 l 1,28,-1
EndSplineSet
EndChar

StartChar: percent.guru
Encoding: 37 37 173
Width: 828
Flags: W
LayerCount: 2
Fore
SplineSet
569 622 m 1,0,-1
 646 622 l 1,1,-1
 261 0 l 1,2,-1
 183 0 l 1,3,-1
 569 622 l 1,0,-1
202 271 m 0,4,5
 131 271 131 271 94 319 c 128,-1,6
 57 367 57 367 57 452 c 0,7,8
 57 538 57 538 91.5 585 c 128,-1,9
 126 632 126 632 202 632 c 0,10,11
 274 632 274 632 311.5 585 c 128,-1,12
 349 538 349 538 349 452 c 0,13,14
 349 367 349 367 314 319 c 128,-1,15
 279 271 279 271 202 271 c 0,4,5
201 334 m 256,16,17
 239 334 239 334 257.5 364 c 128,-1,18
 276 394 276 394 276 452 c 0,19,20
 276 511 276 511 257.5 540 c 128,-1,21
 239 569 239 569 201 569 c 256,22,23
 163 569 163 569 146 540 c 128,-1,24
 129 511 129 511 129 452 c 0,25,26
 129 394 129 394 146 364 c 128,-1,27
 163 334 163 334 201 334 c 256,16,17
624 -10 m 0,28,29
 552 -10 552 -10 515.5 38.5 c 128,-1,30
 479 87 479 87 479 171 c 0,31,32
 479 257 479 257 513.5 304.5 c 128,-1,33
 548 352 548 352 624 352 c 0,34,35
 697 352 697 352 733.5 304.5 c 128,-1,36
 770 257 770 257 770 171 c 0,37,38
 770 87 770 87 735.5 38.5 c 128,-1,39
 701 -10 701 -10 624 -10 c 0,28,29
624 55 m 256,40,41
 662 55 662 55 680.5 84 c 128,-1,42
 699 113 699 113 699 171 c 0,43,44
 699 230 699 230 680.5 259.5 c 128,-1,45
 662 289 662 289 624 289 c 256,46,47
 586 289 586 289 569 259.5 c 128,-1,48
 552 230 552 230 552 171 c 0,49,50
 552 113 552 113 569 84 c 128,-1,51
 586 55 586 55 624 55 c 256,40,41
EndSplineSet
EndChar

StartChar: quotesingle.guru
Encoding: 39 39 174
Width: 326
Flags: W
LayerCount: 2
Fore
SplineSet
132 471 m 1,0,-1
 107 729 l 1,1,-1
 218 729 l 1,2,-1
 193 471 l 1,3,-1
 132 471 l 1,0,-1
EndSplineSet
EndChar

StartChar: parenleft.guru
Encoding: 40 40 175
Width: 354
Flags: W
LayerCount: 2
Fore
SplineSet
213 -165 m 1,0,1
 138 -62 138 -62 103 68.5 c 128,-1,2
 68 199 68 199 68 337 c 0,3,4
 68 477 68 477 102.5 603.5 c 128,-1,5
 137 730 137 730 213 832 c 1,6,-1
 294 832 l 1,7,8
 249 762 249 762 217.5 681.5 c 128,-1,9
 186 601 186 601 169.5 514 c 128,-1,10
 153 427 153 427 153 336 c 0,11,12
 153 248 153 248 169 160 c 128,-1,13
 185 72 185 72 216.5 -10 c 128,-1,14
 248 -92 248 -92 295 -165 c 1,15,-1
 213 -165 l 1,0,1
EndSplineSet
EndChar

StartChar: parenright.guru
Encoding: 41 41 176
Width: 354
Flags: W
LayerCount: 2
Fore
SplineSet
60 -165 m 1,0,1
 105 -94 105 -94 136.5 -13 c 128,-1,2
 168 68 168 68 184 155 c 128,-1,3
 200 242 200 242 200 330 c 0,4,5
 200 419 200 419 184 506.5 c 128,-1,6
 168 594 168 594 137 676.5 c 128,-1,7
 106 759 106 759 59 832 c 1,8,-1
 141 832 l 1,9,10
 216 729 216 729 251 598 c 128,-1,11
 286 467 286 467 286 329 c 0,12,13
 286 190 286 190 251 63 c 128,-1,14
 216 -64 216 -64 141 -165 c 1,15,-1
 60 -165 l 1,0,1
EndSplineSet
EndChar

StartChar: asterisk.guru
Encoding: 42 42 177
Width: 607
Flags: W
LayerCount: 2
Fore
SplineSet
134 340 m 1,0,-1
 252 499 l 1,1,-1
 69 513 l 1,2,-1
 83 607 l 1,3,-1
 274 553 l 1,4,-1
 253 745 l 1,5,-1
 353 745 l 1,6,-1
 332 553 l 1,7,-1
 526 607 l 1,8,-1
 539 513 l 1,9,-1
 354 499 l 1,10,-1
 474 340 l 1,11,-1
 387 293 l 1,12,-1
 301 468 l 1,13,-1
 224 293 l 1,14,-1
 134 340 l 1,0,-1
EndSplineSet
EndChar

StartChar: plus.guru
Encoding: 43 43 178
Width: 551
Flags: W
LayerCount: 2
Fore
SplineSet
239 286 m 1,0,-1
 50 286 l 1,1,-1
 50 359 l 1,2,-1
 239 359 l 1,3,-1
 239 548 l 1,4,-1
 312 548 l 1,5,-1
 312 359 l 1,6,-1
 501 359 l 1,7,-1
 501 286 l 1,8,-1
 312 286 l 1,9,-1
 312 97 l 1,10,-1
 239 97 l 1,11,-1
 239 286 l 1,0,-1
EndSplineSet
EndChar

StartChar: comma.guru
Encoding: 44 44 179
Width: 268
Flags: W
LayerCount: 2
Fore
SplineSet
46 -129 m 1,0,1
 56 -89 56 -89 65.5 -45.5 c 128,-1,2
 75 -2 75 -2 82.5 40 c 128,-1,3
 90 82 90 82 95 116 c 1,4,-1
 192 116 l 1,5,-1
 199 105 l 1,6,7
 190 70 190 70 176 29.5 c 128,-1,8
 162 -11 162 -11 146 -51.5 c 128,-1,9
 130 -92 130 -92 113 -129 c 1,10,-1
 46 -129 l 1,0,1
EndSplineSet
EndChar

StartChar: hyphen.guru
Encoding: 45 45 180
Width: 340
Flags: W
LayerCount: 2
Fore
SplineSet
49 338 m 1,0,-1
 291 338 l 1,1,-1
 291 256 l 1,2,-1
 49 256 l 1,3,-1
 49 338 l 1,0,-1
EndSplineSet
EndChar

StartChar: period.guru
Encoding: 46 46 181
Width: 268
Flags: W
LayerCount: 2
Fore
SplineSet
72 54 m 0,0,1
 72 91 72 91 90 106 c 128,-1,2
 108 121 108 121 133 121 c 0,3,4
 159 121 159 121 177.5 106 c 128,-1,5
 196 91 196 91 196 54 c 0,6,7
 196 18 196 18 177.5 2 c 128,-1,8
 159 -14 159 -14 133 -14 c 0,9,10
 108 -14 108 -14 90 2 c 128,-1,11
 72 18 72 18 72 54 c 0,0,1
EndSplineSet
EndChar

StartChar: slash.guru
Encoding: 47 47 182
Width: 429
Flags: W
LayerCount: 2
Fore
SplineSet
305 833 m 1,0,-1
 387 833 l 1,1,-1
 125 -166 l 1,2,-1
 42 -166 l 1,3,-1
 305 833 l 1,0,-1
EndSplineSet
EndChar

StartChar: zero.guru
Encoding: 48 48 183
Width: 551
Flags: W
LayerCount: 2
Fore
SplineSet
275 -10 m 0,0,1
 160 -10 160 -10 104 87.5 c 128,-1,2
 48 185 48 185 48 358 c 0,3,4
 48 474 48 474 70.5 556 c 128,-1,5
 93 638 93 638 143 681.5 c 128,-1,6
 193 725 193 725 275 725 c 0,7,8
 391 725 391 725 447.5 628.5 c 128,-1,9
 504 532 504 532 504 358 c 0,10,11
 504 271 504 271 491.5 203 c 128,-1,12
 479 135 479 135 452 87.5 c 128,-1,13
 425 40 425 40 381 15 c 128,-1,14
 337 -10 337 -10 275 -10 c 0,0,1
275 66 m 256,15,16
 350 66 350 66 382 138 c 128,-1,17
 414 210 414 210 414 358 c 0,18,19
 414 504 414 504 382 576.5 c 128,-1,20
 350 649 350 649 275 649 c 256,21,22
 200 649 200 649 169 576.5 c 128,-1,23
 138 504 138 504 138 358 c 256,24,25
 138 212 138 212 169 139 c 128,-1,26
 200 66 200 66 275 66 c 256,15,16
EndSplineSet
EndChar

StartChar: one.guru
Encoding: 49 49 184
Width: 551
Flags: W
LayerCount: 2
Fore
SplineSet
261 0 m 1,0,-1
 261 446 l 2,1,2
 261 474 261 474 262 506.5 c 128,-1,3
 263 539 263 539 264 569.5 c 128,-1,4
 265 600 265 600 265 622 c 1,5,6
 249 605 249 605 237.5 594.5 c 128,-1,7
 226 584 226 584 206 567 c 2,8,-1
 134 508 l 1,9,-1
 87 568 l 1,10,-1
 274 714 l 1,11,-1
 347 714 l 1,12,-1
 347 0 l 1,13,-1
 261 0 l 1,0,-1
EndSplineSet
EndChar

StartChar: two.guru
Encoding: 50 50 185
Width: 551
Flags: W
LayerCount: 2
Fore
SplineSet
47 76 m 1,0,-1
 218 262 l 2,1,2
 267 315 267 315 301.5 357 c 128,-1,3
 336 399 336 399 355 440 c 128,-1,4
 374 481 374 481 374 530 c 0,5,6
 374 587 374 587 342 618 c 128,-1,7
 310 649 310 649 259 649 c 0,8,9
 213 649 213 649 175.5 630 c 128,-1,10
 138 611 138 611 104 582 c 1,11,-1
 54 640 l 1,12,13
 80 664 80 664 111.5 683 c 128,-1,14
 143 702 143 702 180.5 713 c 128,-1,15
 218 724 218 724 260 724 c 0,16,17
 323 724 323 724 368.5 701 c 128,-1,18
 414 678 414 678 439 635.5 c 128,-1,19
 464 593 464 593 464 533 c 0,20,21
 464 478 464 478 442 429 c 128,-1,22
 420 380 420 380 381.5 332 c 128,-1,23
 343 284 343 284 293 231 c 2,24,-1
 156 85 l 1,25,-1
 156 81 l 1,26,-1
 492 81 l 1,27,-1
 492 0 l 1,28,-1
 47 0 l 1,29,-1
 47 76 l 1,0,-1
EndSplineSet
EndChar

StartChar: three.guru
Encoding: 51 51 186
Width: 551
Flags: W
LayerCount: 2
Fore
SplineSet
229 -10 m 0,0,1
 176 -10 176 -10 128.5 -1.5 c 128,-1,2
 81 7 81 7 40 29 c 1,3,-1
 40 112 l 1,4,5
 83 90 83 90 132 77.5 c 128,-1,6
 181 65 181 65 227 65 c 0,7,8
 317 65 317 65 358.5 102.5 c 128,-1,9
 400 140 400 140 400 206 c 0,10,11
 400 250 400 250 377.5 278 c 128,-1,12
 355 306 355 306 313.5 319 c 128,-1,13
 272 332 272 332 214 332 c 2,14,-1
 149 332 l 1,15,-1
 149 406 l 1,16,-1
 214 406 l 2,17,18
 267 406 267 406 303.5 423 c 128,-1,19
 340 440 340 440 359 470.5 c 128,-1,20
 378 501 378 501 378 541 c 0,21,22
 378 575 378 575 362.5 599 c 128,-1,23
 347 623 347 623 320 636 c 128,-1,24
 293 649 293 649 256 649 c 0,25,26
 204 649 204 649 164 632.5 c 128,-1,27
 124 616 124 616 88 590 c 1,28,-1
 43 651 l 1,29,30
 80 681 80 681 134 702.5 c 128,-1,31
 188 724 188 724 256 724 c 0,32,33
 326 724 326 724 373.5 701 c 128,-1,34
 421 678 421 678 445 638.5 c 128,-1,35
 469 599 469 599 469 547 c 0,36,37
 469 499 469 499 449.5 463.5 c 128,-1,38
 430 428 430 428 395.5 406 c 128,-1,39
 361 384 361 384 315 376 c 1,40,-1
 315 373 l 1,41,42
 401 363 401 363 446 318.5 c 128,-1,43
 491 274 491 274 491 203 c 0,44,45
 491 141 491 141 463 92.5 c 128,-1,46
 435 44 435 44 377 17 c 128,-1,47
 319 -10 319 -10 229 -10 c 0,0,1
EndSplineSet
EndChar

StartChar: four.guru
Encoding: 52 52 187
Width: 551
Flags: W
LayerCount: 2
Fore
SplineSet
341 160 m 1,0,-1
 11 160 l 1,1,-1
 11 238 l 1,2,-1
 335 718 l 1,3,-1
 427 718 l 1,4,-1
 427 241 l 1,5,-1
 531 241 l 1,6,-1
 531 160 l 1,7,-1
 427 160 l 1,8,-1
 427 0 l 1,9,-1
 341 0 l 1,10,-1
 341 160 l 1,0,-1
341 241 m 1,11,-1
 341 415 l 2,12,13
 341 452 341 452 342.5 492.5 c 128,-1,14
 344 533 344 533 345.5 568.5 c 128,-1,15
 347 604 347 604 347 626 c 1,16,-1
 343 626 l 1,17,18
 336 607 336 607 323 581 c 128,-1,19
 310 555 310 555 299 538 c 2,20,-1
 98 241 l 1,21,-1
 341 241 l 1,11,-1
EndSplineSet
EndChar

StartChar: five.guru
Encoding: 53 53 188
Width: 551
Flags: W
LayerCount: 2
Fore
SplineSet
238 -10 m 0,0,1
 188 -10 188 -10 142 -0.5 c 128,-1,2
 96 9 96 9 64 29 c 1,3,-1
 64 113 l 1,4,5
 86 98 86 98 116.5 87.5 c 128,-1,6
 147 77 147 77 180 71.5 c 128,-1,7
 213 66 213 66 240 66 c 0,8,9
 317 66 317 66 360.5 103 c 128,-1,10
 404 140 404 140 404 219 c 0,11,12
 404 290 404 290 361 326.5 c 128,-1,13
 318 363 318 363 236 363 c 0,14,15
 210 363 210 363 176.5 358.5 c 128,-1,16
 143 354 143 354 123 350 c 1,17,-1
 79 378 l 1,18,-1
 106 714 l 1,19,-1
 443 714 l 1,20,-1
 443 633 l 1,21,-1
 183 633 l 1,22,-1
 164 428 l 1,23,24
 180 432 180 432 207.5 435 c 128,-1,25
 235 438 235 438 266 438 c 0,26,27
 331 438 331 438 382.5 414.5 c 128,-1,28
 434 391 434 391 464.5 344.5 c 128,-1,29
 495 298 495 298 495 229 c 0,30,31
 495 117 495 117 429 53.5 c 128,-1,32
 363 -10 363 -10 238 -10 c 0,0,1
EndSplineSet
EndChar

StartChar: six.guru
Encoding: 54 54 189
Width: 551
Flags: W
LayerCount: 2
Fore
SplineSet
290 -10 m 0,0,1
 225 -10 225 -10 172 24 c 128,-1,2
 119 58 119 58 88 128 c 128,-1,3
 57 198 57 198 57 305 c 0,4,5
 57 367 57 367 64.5 427 c 128,-1,6
 72 487 72 487 92 540.5 c 128,-1,7
 112 594 112 594 147 635.5 c 128,-1,8
 182 677 182 677 236.5 700.5 c 128,-1,9
 291 724 291 724 369 724 c 0,10,11
 388 724 388 724 412.5 722 c 128,-1,12
 437 720 437 720 453 715 c 1,13,-1
 453 639 l 1,14,15
 436 645 436 645 414.5 648 c 128,-1,16
 393 651 393 651 372 651 c 0,17,18
 306 651 306 651 263.5 628 c 128,-1,19
 221 605 221 605 196.5 565.5 c 128,-1,20
 172 526 172 526 161 474 c 128,-1,21
 150 422 150 422 148 364 c 1,22,-1
 154 364 l 1,23,24
 174 399 174 399 210 423 c 128,-1,25
 246 447 246 447 304 447 c 0,26,27
 366 447 366 447 411.5 421.5 c 128,-1,28
 457 396 457 396 482 347.5 c 128,-1,29
 507 299 507 299 507 230 c 0,30,31
 507 156 507 156 480.5 102 c 128,-1,32
 454 48 454 48 405.5 19 c 128,-1,33
 357 -10 357 -10 290 -10 c 0,0,1
289 65 m 0,34,35
 348 65 348 65 384.5 105 c 128,-1,36
 421 145 421 145 421 230 c 0,37,38
 421 298 421 298 389 337.5 c 128,-1,39
 357 377 357 377 292 377 c 0,40,41
 248 377 248 377 215 357.5 c 128,-1,42
 182 338 182 338 164 308.5 c 128,-1,43
 146 279 146 279 146 247 c 0,44,45
 146 204 146 204 162 162 c 128,-1,46
 178 120 178 120 209.5 92.5 c 128,-1,47
 241 65 241 65 289 65 c 0,34,35
EndSplineSet
EndChar

StartChar: seven.guru
Encoding: 55 55 190
Width: 551
Flags: W
LayerCount: 2
Fore
SplineSet
412 633 m 1,0,-1
 44 633 l 1,1,-1
 44 714 l 1,2,-1
 503 714 l 1,3,-1
 503 643 l 1,4,-1
 232 0 l 1,5,-1
 137 0 l 1,6,-1
 412 633 l 1,0,-1
EndSplineSet
EndChar

StartChar: eight.guru
Encoding: 56 56 191
Width: 551
Flags: W
LayerCount: 2
Fore
SplineSet
276 -10 m 0,0,1
 169 -10 169 -10 110.5 41.5 c 128,-1,2
 52 93 52 93 52 182 c 0,3,4
 52 231 52 231 70.5 267 c 128,-1,5
 89 303 89 303 120.5 329.5 c 128,-1,6
 152 356 152 356 190 374 c 1,7,8
 158 395 158 395 132 420 c 128,-1,9
 106 445 106 445 90.5 478 c 128,-1,10
 75 511 75 511 75 554 c 0,11,12
 75 611 75 611 103 649 c 128,-1,13
 131 687 131 687 177 706 c 128,-1,14
 223 725 223 725 276 725 c 0,15,16
 331 725 331 725 376.5 706 c 128,-1,17
 422 687 422 687 449.5 649 c 128,-1,18
 477 611 477 611 477 553 c 0,19,20
 477 510 477 510 460 477.5 c 128,-1,21
 443 445 443 445 414.5 421 c 128,-1,22
 386 397 386 397 349 378 c 1,23,24
 387 358 387 358 421.5 331.5 c 128,-1,25
 456 305 456 305 478 269.5 c 128,-1,26
 500 234 500 234 500 186 c 0,27,28
 500 126 500 126 471.5 82 c 128,-1,29
 443 38 443 38 393 14 c 128,-1,30
 343 -10 343 -10 276 -10 c 0,0,1
274 64 m 0,31,32
 343 64 343 64 378 97 c 128,-1,33
 413 130 413 130 413 185 c 0,34,35
 413 233 413 233 376.5 268.5 c 128,-1,36
 340 304 340 304 263 340 c 1,37,38
 222 321 222 321 194.5 297.5 c 128,-1,39
 167 274 167 274 153 245.5 c 128,-1,40
 139 217 139 217 139 181 c 0,41,42
 139 129 139 129 171.5 96.5 c 128,-1,43
 204 64 204 64 274 64 c 0,31,32
277 414 m 1,44,45
 309 429 309 429 334.5 447 c 128,-1,46
 360 465 360 465 375 490 c 128,-1,47
 390 515 390 515 390 550 c 0,48,49
 390 600 390 600 359.5 625.5 c 128,-1,50
 329 651 329 651 275 651 c 0,51,52
 241 651 241 651 215.5 639.5 c 128,-1,53
 190 628 190 628 176 605.5 c 128,-1,54
 162 583 162 583 162 550 c 0,55,56
 162 514 162 514 177 489.5 c 128,-1,57
 192 465 192 465 218 447.5 c 128,-1,58
 244 430 244 430 277 414 c 1,44,45
EndSplineSet
EndChar

StartChar: nine.guru
Encoding: 57 57 192
Width: 551
Flags: W
LayerCount: 2
Fore
SplineSet
182 -10 m 0,0,1
 163 -10 163 -10 139 -7.5 c 128,-1,2
 115 -5 115 -5 98 -1 c 1,3,-1
 98 75 l 1,4,5
 115 69 115 69 136.5 66 c 128,-1,6
 158 63 158 63 179 63 c 0,7,8
 245 63 245 63 288 86 c 128,-1,9
 331 109 331 109 355 148.5 c 128,-1,10
 379 188 379 188 390 240 c 128,-1,11
 401 292 401 292 403 350 c 1,12,-1
 397 350 l 1,13,14
 384 327 384 327 363.5 308 c 128,-1,15
 343 289 343 289 314.5 278 c 128,-1,16
 286 267 286 267 247 267 c 0,17,18
 186 267 186 267 140 292.5 c 128,-1,19
 94 318 94 318 69 366.5 c 128,-1,20
 44 415 44 415 44 484 c 0,21,22
 44 559 44 559 70.5 612.5 c 128,-1,23
 97 666 97 666 146 695 c 128,-1,24
 195 724 195 724 261 724 c 256,25,26
 327 724 327 724 379.5 690 c 128,-1,27
 432 656 432 656 463 586 c 128,-1,28
 494 516 494 516 494 409 c 0,29,30
 494 348 494 348 486.5 287.5 c 128,-1,31
 479 227 479 227 459 173.5 c 128,-1,32
 439 120 439 120 404 78.5 c 128,-1,33
 369 37 369 37 314.5 13.5 c 128,-1,34
 260 -10 260 -10 182 -10 c 0,0,1
259 337 m 0,35,36
 303 337 303 337 336 356.5 c 128,-1,37
 369 376 369 376 387 406 c 128,-1,38
 405 436 405 436 405 467 c 0,39,40
 405 500 405 500 396 532 c 128,-1,41
 387 564 387 564 369 590.5 c 128,-1,42
 351 617 351 617 324.5 633 c 128,-1,43
 298 649 298 649 262 649 c 0,44,45
 204 649 204 649 167 609 c 128,-1,46
 130 569 130 569 130 484 c 0,47,48
 130 416 130 416 162.5 376.5 c 128,-1,49
 195 337 195 337 259 337 c 0,35,36
EndSplineSet
EndChar

StartChar: colon.guru
Encoding: 58 58 193
Width: 294
Flags: W
LayerCount: 2
Fore
SplineSet
147 414 m 256,0,1
 121 414 121 414 103 430 c 128,-1,2
 85 446 85 446 85 482 c 0,3,4
 85 520 85 520 103 535 c 128,-1,5
 121 550 121 550 147 550 c 256,6,7
 173 550 173 550 191 535 c 128,-1,8
 209 520 209 520 209 482 c 0,9,10
 209 446 209 446 191 430 c 128,-1,11
 173 414 173 414 147 414 c 256,0,1
147 -14 m 256,12,13
 121 -14 121 -14 103 2 c 128,-1,14
 85 18 85 18 85 54 c 0,15,16
 85 92 85 92 103 107 c 128,-1,17
 121 122 121 122 147 122 c 256,18,19
 173 122 173 122 191 107 c 128,-1,20
 209 92 209 92 209 54 c 0,21,22
 209 18 209 18 191 2 c 128,-1,23
 173 -14 173 -14 147 -14 c 256,12,13
EndSplineSet
EndChar

StartChar: semicolon.guru
Encoding: 59 59 194
Width: 294
Flags: W
LayerCount: 2
Fore
SplineSet
190 116 m 1,0,-1
 197 105 l 1,1,2
 188 70 188 70 174 29.5 c 128,-1,3
 160 -11 160 -11 144 -51.5 c 128,-1,4
 128 -92 128 -92 111 -129 c 1,5,-1
 44 -129 l 1,6,7
 54 -89 54 -89 63.5 -45.5 c 128,-1,8
 73 -2 73 -2 80.5 40 c 128,-1,9
 88 82 88 82 93 116 c 1,10,-1
 190 116 l 1,0,-1
147 414 m 256,11,12
 121 414 121 414 103 430 c 128,-1,13
 85 446 85 446 85 482 c 0,14,15
 85 520 85 520 103 535 c 128,-1,16
 121 550 121 550 147 550 c 256,17,18
 173 550 173 550 191 535 c 128,-1,19
 209 520 209 520 209 482 c 0,20,21
 209 446 209 446 191 430 c 128,-1,22
 173 414 173 414 147 414 c 256,11,12
EndSplineSet
EndChar

StartChar: less.guru
Encoding: 60 60 195
Width: 551
Flags: W
LayerCount: 2
Fore
SplineSet
50 284 m 1,0,-1
 50 333 l 1,1,-1
 501 568 l 1,2,-1
 501 490 l 1,3,-1
 142 313 l 1,4,-1
 501 155 l 1,5,-1
 501 77 l 1,6,-1
 50 284 l 1,0,-1
EndSplineSet
EndChar

StartChar: equal.guru
Encoding: 61 61 196
Width: 551
Flags: W
LayerCount: 2
Fore
SplineSet
50 459 m 1,0,-1
 501 459 l 1,1,-1
 501 386 l 1,2,-1
 50 386 l 1,3,-1
 50 459 l 1,0,-1
50 259 m 1,4,-1
 501 259 l 1,5,-1
 501 186 l 1,6,-1
 50 186 l 1,7,-1
 50 259 l 1,4,-1
EndSplineSet
EndChar

StartChar: greater.guru
Encoding: 62 62 197
Width: 551
Flags: W
LayerCount: 2
Fore
SplineSet
50 155 m 1,0,-1
 409 313 l 1,1,-1
 50 490 l 1,2,-1
 50 568 l 1,3,-1
 501 333 l 1,4,-1
 501 284 l 1,5,-1
 50 77 l 1,6,-1
 50 155 l 1,0,-1
EndSplineSet
EndChar

StartChar: question.guru
Encoding: 63 63 198
Width: 518
Flags: W
LayerCount: 2
Fore
SplineSet
190 202 m 1,0,-1
 190 220 l 2,1,2
 190 258 190 258 197 285.5 c 128,-1,3
 204 313 204 313 222.5 338 c 128,-1,4
 241 363 241 363 273 390 c 0,5,6
 304 417 304 417 323.5 438 c 128,-1,7
 343 459 343 459 352 483 c 128,-1,8
 361 507 361 507 361 541 c 0,9,10
 361 588 361 588 332.5 617 c 128,-1,11
 304 646 304 646 250 646 c 0,12,13
 210 646 210 646 173 633.5 c 128,-1,14
 136 621 136 621 102 604 c 1,15,-1
 71 675 l 1,16,17
 111 695 111 695 157 709.5 c 128,-1,18
 203 724 203 724 250 724 c 0,19,20
 341 724 341 724 393.5 676 c 128,-1,21
 446 628 446 628 446 542 c 0,22,23
 446 499 446 499 434.5 467 c 128,-1,24
 423 435 423 435 399.5 408 c 128,-1,25
 376 381 376 381 341 350 c 0,26,27
 308 321 308 321 290 300.5 c 128,-1,28
 272 280 272 280 265 260 c 128,-1,29
 258 240 258 240 258 211 c 2,30,-1
 258 202 l 1,31,-1
 190 202 l 1,0,-1
167 54 m 0,32,33
 167 92 167 92 185 107 c 128,-1,34
 203 122 203 122 229 122 c 256,35,36
 255 122 255 122 273 107 c 128,-1,37
 291 92 291 92 291 54 c 0,38,39
 291 18 291 18 273 2 c 128,-1,40
 255 -14 255 -14 229 -14 c 256,41,42
 203 -14 203 -14 185 2 c 128,-1,43
 167 18 167 18 167 54 c 0,32,33
EndSplineSet
EndChar

StartChar: bracketleft.guru
Encoding: 91 91 199
Width: 356
Flags: W
LayerCount: 2
Fore
SplineSet
108 832 m 1,0,-1
 302 832 l 1,1,-1
 302 762 l 1,2,-1
 188 762 l 1,3,-1
 188 -96 l 1,4,-1
 302 -96 l 1,5,-1
 302 -166 l 1,6,-1
 108 -166 l 1,7,-1
 108 832 l 1,0,-1
EndSplineSet
EndChar

StartChar: backslash.guru
Encoding: 92 92 200
Width: 429
Flags: W
LayerCount: 2
Fore
SplineSet
42 832 m 1,0,-1
 124 832 l 1,1,-1
 387 -166 l 1,2,-1
 305 -166 l 1,3,-1
 42 832 l 1,0,-1
EndSplineSet
EndChar

StartChar: bracketright.guru
Encoding: 93 93 201
Width: 356
Flags: W
LayerCount: 2
Fore
SplineSet
54 -96 m 1,0,-1
 167 -96 l 1,1,-1
 167 762 l 1,2,-1
 54 762 l 1,3,-1
 54 832 l 1,4,-1
 248 832 l 1,5,-1
 248 -166 l 1,6,-1
 54 -166 l 1,7,-1
 54 -96 l 1,0,-1
EndSplineSet
EndChar

StartChar: asciicircum.guru
Encoding: 94 94 202
Width: 551
Flags: W
LayerCount: 2
Fore
SplineSet
253 719 m 1,0,-1
 303 719 l 1,1,-1
 521 268 l 1,2,-1
 443 268 l 1,3,-1
 278 627 l 1,4,-1
 108 268 l 1,5,-1
 29 268 l 1,6,-1
 253 719 l 1,0,-1
EndSplineSet
EndChar

StartChar: underscore.guru
Encoding: 95 95 203
Width: 411
Flags: W
LayerCount: 2
Fore
SplineSet
-2 -90 m 1,0,-1
 413 -90 l 1,1,-1
 413 -158 l 1,2,-1
 -2 -158 l 1,3,-1
 -2 -90 l 1,0,-1
EndSplineSet
EndChar

StartChar: braceleft.guru
Encoding: 123 123 204
Width: 391
Flags: W
LayerCount: 2
Fore
SplineSet
44 370 m 1,0,1
 84 370 84 370 111.5 379 c 128,-1,2
 139 388 139 388 153 408 c 128,-1,3
 167 428 167 428 167 460 c 2,4,-1
 167 691 l 2,5,6
 167 741 167 741 189 771.5 c 128,-1,7
 211 802 211 802 249.5 816.5 c 128,-1,8
 288 831 288 831 337 832 c 1,9,-1
 337 760 l 1,10,11
 310 760 310 760 290 753.5 c 128,-1,12
 270 747 270 747 259 731.5 c 128,-1,13
 248 716 248 716 248 685 c 2,14,-1
 248 455 l 2,15,16
 248 405 248 405 221 375.5 c 128,-1,17
 194 346 194 346 142 335 c 1,18,-1
 142 330 l 1,19,20
 194 320 194 320 221 291 c 128,-1,21
 248 262 248 262 248 211 c 2,22,-1
 248 -18 l 2,23,24
 248 -49 248 -49 259 -65 c 128,-1,25
 270 -81 270 -81 290 -87 c 128,-1,26
 310 -93 310 -93 337 -94 c 1,27,-1
 337 -166 l 1,28,29
 288 -165 288 -165 249.5 -150.5 c 128,-1,30
 211 -136 211 -136 189 -105.5 c 128,-1,31
 167 -75 167 -75 167 -25 c 2,32,-1
 167 206 l 2,33,34
 167 239 167 239 153 258.5 c 128,-1,35
 139 278 139 278 111.5 287 c 128,-1,36
 84 296 84 296 44 296 c 1,37,-1
 44 370 l 1,0,1
EndSplineSet
EndChar

StartChar: bar.guru
Encoding: 124 124 205
Width: 540
Flags: W
LayerCount: 2
Fore
SplineSet
234 832 m 1,0,-1
 306 832 l 1,1,-1
 306 -166 l 1,2,-1
 234 -166 l 1,3,-1
 234 832 l 1,0,-1
EndSplineSet
EndChar

StartChar: braceright.guru
Encoding: 125 125 206
Width: 376
Flags: W
LayerCount: 2
Fore
SplineSet
347 296 m 1,0,1
 307 296 307 296 280 287 c 128,-1,2
 253 278 253 278 239 258.5 c 128,-1,3
 225 239 225 239 225 206 c 2,4,-1
 225 -25 l 2,5,6
 225 -75 225 -75 202.5 -105.5 c 128,-1,7
 180 -136 180 -136 141.5 -150.5 c 128,-1,8
 103 -165 103 -165 54 -166 c 1,9,-1
 54 -94 l 1,10,11
 82 -93 82 -93 102 -87 c 128,-1,12
 122 -81 122 -81 132.5 -65 c 128,-1,13
 143 -49 143 -49 143 -18 c 2,14,-1
 143 211 l 2,15,16
 143 262 143 262 170 291 c 128,-1,17
 197 320 197 320 249 330 c 1,18,-1
 249 335 l 1,19,20
 197 346 197 346 170 375.5 c 128,-1,21
 143 405 143 405 143 455 c 2,22,-1
 143 685 l 2,23,24
 143 716 143 716 132.5 731.5 c 128,-1,25
 122 747 122 747 102 753.5 c 128,-1,26
 82 760 82 760 54 760 c 1,27,-1
 54 832 l 1,28,29
 103 831 103 831 141.5 816.5 c 128,-1,30
 180 802 180 802 202.5 771.5 c 128,-1,31
 225 741 225 741 225 691 c 2,32,-1
 225 460 l 2,33,34
 225 428 225 428 239 408 c 128,-1,35
 253 388 253 388 280 379 c 128,-1,36
 307 370 307 370 347 370 c 1,37,-1
 347 296 l 1,0,1
EndSplineSet
EndChar

StartChar: asciitilde.guru
Encoding: 126 126 207
Width: 551
Flags: W
LayerCount: 2
Fore
SplineSet
50 335 m 1,0,1
 75 362 75 362 105 375 c 128,-1,2
 135 388 135 388 171 388 c 0,3,4
 190 388 190 388 206 385.5 c 128,-1,5
 222 383 222 383 242 376.5 c 128,-1,6
 262 370 262 370 292 357 c 0,7,8
 329 341 329 341 349 335.5 c 128,-1,9
 369 330 369 330 390 330 c 0,10,11
 418 330 418 330 448 347 c 128,-1,12
 478 364 478 364 501 389 c 1,13,-1
 501 310 l 1,14,15
 477 284 477 284 446.5 270.5 c 128,-1,16
 416 257 416 257 380 257 c 0,17,18
 361 257 361 257 345 259.5 c 128,-1,19
 329 262 329 262 309.5 268.5 c 128,-1,20
 290 275 290 275 259 288 c 0,21,22
 223 304 223 304 203.5 309.5 c 128,-1,23
 184 315 184 315 161 315 c 0,24,25
 134 315 134 315 104 298 c 128,-1,26
 74 281 74 281 50 256 c 1,27,-1
 50 335 l 1,0,1
EndSplineSet
EndChar

StartChar: endash.guru
Encoding: 8211 8211 210
Width: 500
Flags: W
LayerCount: 2
Fore
SplineSet
40 343 m 1,0,-1
 460 343 l 1,1,-1
 460 261 l 1,2,-1
 40 261 l 1,3,-1
 40 343 l 1,0,-1
EndSplineSet
EndChar

StartChar: emdash.guru
Encoding: 8212 8212 211
Width: 1000
Flags: W
LayerCount: 2
Fore
SplineSet
40 343 m 1,0,-1
 960 343 l 1,1,-1
 960 261 l 1,2,-1
 40 261 l 1,3,-1
 40 343 l 1,0,-1
EndSplineSet
EndChar

StartChar: quoteleft.guru
Encoding: 8216 8216 212
Width: 312
Flags: W
LayerCount: 2
Fore
SplineSet
89 484 m 1,0,-1
 82 495 l 1,1,2
 92 531 92 531 105.5 571 c 128,-1,3
 119 611 119 611 135.5 652 c 128,-1,4
 152 693 152 693 168 729 c 1,5,-1
 235 729 l 1,6,7
 225 689 225 689 215.5 645.5 c 128,-1,8
 206 602 206 602 198.5 560.5 c 128,-1,9
 191 519 191 519 186 484 c 1,10,-1
 89 484 l 1,0,-1
EndSplineSet
EndChar

StartChar: quoteright.guru
Encoding: 8217 8217 213
Width: 312
Flags: W
LayerCount: 2
Fore
SplineSet
227 729 m 1,0,-1
 234 718 l 1,1,2
 225 683 225 683 211 642.5 c 128,-1,3
 197 602 197 602 181 561.5 c 128,-1,4
 165 521 165 521 148 484 c 1,5,-1
 81 484 l 1,6,7
 90 524 90 524 99.5 567.5 c 128,-1,8
 109 611 109 611 117 653 c 128,-1,9
 125 695 125 695 130 729 c 1,10,-1
 227 729 l 1,0,-1
EndSplineSet
EndChar

StartChar: quotedblleft.guru
Encoding: 8220 8220 214
Width: 500
Flags: W
LayerCount: 2
Fore
SplineSet
90 484 m 1,0,-1
 83 495 l 1,1,2
 93 531 93 531 106.5 571 c 128,-1,3
 120 611 120 611 136.5 652 c 128,-1,4
 153 693 153 693 169 729 c 1,5,-1
 236 729 l 1,6,7
 226 689 226 689 216.5 645.5 c 128,-1,8
 207 602 207 602 199.5 560.5 c 128,-1,9
 192 519 192 519 187 484 c 1,10,-1
 90 484 l 1,0,-1
278 484 m 1,11,-1
 271 495 l 1,12,13
 281 531 281 531 294.5 571 c 128,-1,14
 308 611 308 611 324.5 652 c 128,-1,15
 341 693 341 693 357 729 c 1,16,-1
 424 729 l 1,17,18
 414 689 414 689 404.5 645.5 c 128,-1,19
 395 602 395 602 387.5 560.5 c 128,-1,20
 380 519 380 519 375 484 c 1,21,-1
 278 484 l 1,11,-1
EndSplineSet
EndChar

StartChar: quotedblright.guru
Encoding: 8221 8221 215
Width: 500
Flags: W
LayerCount: 2
Fore
SplineSet
415 729 m 1,0,-1
 422 718 l 1,1,2
 413 683 413 683 399 642.5 c 128,-1,3
 385 602 385 602 369 561.5 c 128,-1,4
 353 521 353 521 336 484 c 1,5,-1
 269 484 l 1,6,7
 278 524 278 524 287.5 567.5 c 128,-1,8
 297 611 297 611 305 653 c 128,-1,9
 313 695 313 695 318 729 c 1,10,-1
 415 729 l 1,0,-1
227 729 m 1,11,-1
 234 718 l 1,12,13
 225 683 225 683 211 642.5 c 128,-1,14
 197 602 197 602 181 561.5 c 128,-1,15
 165 521 165 521 148 484 c 1,16,-1
 81 484 l 1,17,18
 90 524 90 524 99.5 567.5 c 128,-1,19
 109 611 109 611 117 653 c 128,-1,20
 125 695 125 695 130 729 c 1,21,-1
 227 729 l 1,11,-1
EndSplineSet
EndChar

StartChar: ellipsis.guru
Encoding: 8230 8230 216
Width: 804
Flags: W
LayerCount: 2
Fore
SplineSet
402 -14 m 256,0,1
 376 -14 376 -14 358 2 c 128,-1,2
 340 18 340 18 340 54 c 0,3,4
 340 92 340 92 358 107 c 128,-1,5
 376 122 376 122 402 122 c 256,6,7
 428 122 428 122 446 107 c 128,-1,8
 464 92 464 92 464 54 c 0,9,10
 464 18 464 18 446 2 c 128,-1,11
 428 -14 428 -14 402 -14 c 256,0,1
134 -14 m 256,12,13
 108 -14 108 -14 90 2 c 128,-1,14
 72 18 72 18 72 54 c 0,15,16
 72 92 72 92 90 107 c 128,-1,17
 108 122 108 122 134 122 c 256,18,19
 160 122 160 122 178 107 c 128,-1,20
 196 92 196 92 196 54 c 0,21,22
 196 18 196 18 178 2 c 128,-1,23
 160 -14 160 -14 134 -14 c 256,12,13
670 -14 m 256,24,25
 644 -14 644 -14 626 2 c 128,-1,26
 608 18 608 18 608 54 c 0,27,28
 608 92 608 92 626 107 c 128,-1,29
 644 122 644 122 670 122 c 256,30,31
 696 122 696 122 714 107 c 128,-1,32
 732 92 732 92 732 54 c 0,33,34
 732 18 732 18 714 2 c 128,-1,35
 696 -14 696 -14 670 -14 c 256,24,25
EndSplineSet
EndChar

StartChar: multiply.guru
Encoding: 215 215 217
Width: 551
Flags: W
LayerCount: 2
Fore
SplineSet
275 270 m 1,0,-1
 120 116 l 1,1,-1
 70 167 l 1,2,-1
 224 321 l 1,3,-1
 69 477 l 1,4,-1
 120 528 l 1,5,-1
 275 373 l 1,6,-1
 432 528 l 1,7,-1
 483 478 l 1,8,-1
 326 321 l 1,9,-1
 482 165 l 1,10,-1
 432 115 l 1,11,-1
 275 270 l 1,0,-1
EndSplineSet
EndChar

StartChar: divide.guru
Encoding: 247 247 218
Width: 551
Flags: W
LayerCount: 2
Fore
SplineSet
50 359 m 1,0,-1
 501 359 l 1,1,-1
 501 286 l 1,2,-1
 50 286 l 1,3,-1
 50 359 l 1,0,-1
275 95 m 256,4,5
 252 95 252 95 235.5 109.5 c 128,-1,6
 219 124 219 124 219 156 c 0,7,8
 219 190 219 190 235.5 203.5 c 128,-1,9
 252 217 252 217 275 217 c 256,10,11
 298 217 298 217 314.5 203.5 c 128,-1,12
 331 190 331 190 331 156 c 0,13,14
 331 124 331 124 314.5 109.5 c 128,-1,15
 298 95 298 95 275 95 c 256,4,5
275 436 m 256,16,17
 252 436 252 436 235.5 450.5 c 128,-1,18
 219 465 219 465 219 497 c 0,19,20
 219 531 219 531 235.5 544.5 c 128,-1,21
 252 558 252 558 275 558 c 256,22,23
 298 558 298 558 314.5 544.5 c 128,-1,24
 331 531 331 531 331 497 c 0,25,26
 331 465 331 465 314.5 450.5 c 128,-1,27
 298 436 298 436 275 436 c 256,16,17
EndSplineSet
EndChar

StartChar: minus.guru
Encoding: 8722 8722 219
Width: 551
Flags: W
LayerCount: 2
Fore
SplineSet
50 359 m 1,0,-1
 501 359 l 1,1,-1
 501 286 l 1,2,-1
 50 286 l 1,3,-1
 50 359 l 1,0,-1
EndSplineSet
EndChar

StartChar: uni20B9.guru
Encoding: 8377 8377 220
Width: 551
Flags: W
LayerCount: 2
Fore
SplineSet
494 551 m 1,0,-1
 306 551 l 1,1,2
 322 540 322 540 332 523 c 128,-1,3
 342 506 342 506 347.5 484.5 c 128,-1,4
 353 463 353 463 353 439 c 0,5,6
 353 382 353 382 331.5 340.5 c 128,-1,7
 310 299 310 299 263.5 274.5 c 128,-1,8
 217 250 217 250 141 244 c 1,9,-1
 150 276 l 1,10,-1
 385 0 l 1,11,-1
 283 0 l 1,12,-1
 72 247 l 1,13,-1
 82 318 l 1,14,-1
 126 318 l 2,15,16
 175 318 175 318 200 325.5 c 128,-1,17
 225 333 225 333 241 348 c 256,18,19
 257 363 257 363 264.5 385 c 128,-1,20
 272 407 272 407 272 437 c 0,21,22
 272 472 272 472 262 494 c 128,-1,23
 252 516 252 516 235 529 c 0,24,25
 219 541 219 541 197.5 546 c 128,-1,26
 176 551 176 551 138 551 c 2,27,-1
 72 551 l 1,28,-1
 72 622 l 1,29,-1
 494 622 l 1,30,-1
 494 551 l 1,0,-1
72 474 m 1,31,-1
 494 474 l 1,32,-1
 494 402 l 1,33,-1
 72 402 l 1,34,-1
 72 474 l 1,31,-1
EndSplineSet
EndChar

StartChar: uni0951
Encoding: 2385 2385 221
Width: 0
GlyphClass: 4
Flags: W
AnchorPoint: "Anchor-4" -89 622 mark 0
AnchorPoint: "Anchor-0" -89 622 mark 0
LayerCount: 2
Fore
SplineSet
-165 671 m 1,0,-1
 -165 892 l 1,1,-1
 -94 892 l 1,2,-1
 -94 671 l 1,3,-1
 -165 671 l 1,0,-1
EndSplineSet
Position2: "Single Positioning lookup 3 per glyph data 1" dx=0 dy=275 dh=0 dv=0
EndChar

StartChar: uni0952
Encoding: 2386 2386 222
Width: 0
GlyphClass: 4
Flags: W
AnchorPoint: "Anchor-5" -249 0 mark 0
AnchorPoint: "Anchor-1" -249 0 mark 0
LayerCount: 2
Fore
SplineSet
-434 -148 m 1,0,-1
 -434 -77 l 1,1,-1
 -64 -77 l 1,2,-1
 -64 -148 l 1,3,-1
 -434 -148 l 1,0,-1
EndSplineSet
Position2: "Single Positioning lookup 4 per glyph data 1" dx=0 dy=-375 dh=0 dv=0
Position2: "Single Positioning lookup 3 per glyph data 1" dx=0 dy=-355 dh=0 dv=0
EndChar

StartChar: uni0964.guru
Encoding: 2404 2404 223
Width: 379
Flags: W
LayerCount: 2
Fore
SplineSet
194 0 m 1,0,-1
 194 622 l 1,1,-1
 275 622 l 1,2,-1
 275 0 l 1,3,-1
 194 0 l 1,0,-1
EndSplineSet
EndChar

StartChar: uni0965.guru
Encoding: 2405 2405 224
Width: 599
Flags: W
LayerCount: 2
Fore
SplineSet
414 0 m 1,0,-1
 414 622 l 1,1,-1
 495 622 l 1,2,-1
 495 0 l 1,3,-1
 414 0 l 1,0,-1
194 0 m 1,4,-1
 194 622 l 1,5,-1
 275 622 l 1,6,-1
 275 0 l 1,7,-1
 194 0 l 1,4,-1
EndSplineSet
EndChar

StartChar: uniA830
Encoding: 43056 43056 225
Width: 237
Flags: W
LayerCount: 2
Fore
SplineSet
78 0 m 1,0,-1
 78 622 l 1,1,-1
 159 622 l 1,2,-1
 159 0 l 1,3,-1
 78 0 l 1,0,-1
EndSplineSet
EndChar

StartChar: uniA831
Encoding: 43057 43057 226
Width: 437
Flags: W
LayerCount: 2
Fore
SplineSet
278 0 m 1,0,-1
 278 622 l 1,1,-1
 359 622 l 1,2,-1
 359 0 l 1,3,-1
 278 0 l 1,0,-1
78 0 m 1,4,-1
 78 622 l 1,5,-1
 159 622 l 1,6,-1
 159 0 l 1,7,-1
 78 0 l 1,4,-1
EndSplineSet
EndChar

StartChar: uniA832
Encoding: 43058 43058 227
Width: 637
Flags: W
LayerCount: 2
Fore
SplineSet
479 0 m 1,0,-1
 479 622 l 1,1,-1
 559 622 l 1,2,-1
 559 0 l 1,3,-1
 479 0 l 1,0,-1
278 0 m 1,4,-1
 278 622 l 1,5,-1
 359 622 l 1,6,-1
 359 0 l 1,7,-1
 278 0 l 1,4,-1
78 0 m 1,8,-1
 78 622 l 1,9,-1
 159 622 l 1,10,-1
 159 0 l 1,11,-1
 78 0 l 1,8,-1
EndSplineSet
EndChar

StartChar: uniA833
Encoding: 43059 43059 228
Width: 622
Flags: W
LayerCount: 2
Fore
SplineSet
60 412 m 1,0,-1
 40 491 l 1,1,-1
 563 622 l 1,2,-1
 583 542 l 1,3,-1
 60 412 l 1,0,-1
EndSplineSet
EndChar

StartChar: uniA834
Encoding: 43060 43060 229
Width: 622
Flags: W
LayerCount: 2
Fore
SplineSet
60 412 m 1,0,-1
 40 491 l 1,1,-1
 563 622 l 1,2,-1
 583 542 l 1,3,-1
 60 412 l 1,0,-1
60 215 m 1,4,-1
 40 294 l 1,5,-1
 563 425 l 1,6,-1
 583 345 l 1,7,-1
 60 215 l 1,4,-1
EndSplineSet
EndChar

StartChar: uniA835
Encoding: 43061 43061 230
Width: 622
Flags: W
LayerCount: 2
Fore
SplineSet
60 412 m 1,0,-1
 40 491 l 1,1,-1
 563 622 l 1,2,-1
 583 542 l 1,3,-1
 60 412 l 1,0,-1
60 215 m 1,4,-1
 40 294 l 1,5,-1
 563 425 l 1,6,-1
 583 345 l 1,7,-1
 60 215 l 1,4,-1
60 18 m 1,8,-1
 40 97 l 1,9,-1
 563 228 l 1,10,-1
 583 148 l 1,11,-1
 60 18 l 1,8,-1
EndSplineSet
EndChar

StartChar: uniA836
Encoding: 43062 43062 231
Width: 460
Flags: W
LayerCount: 2
Fore
SplineSet
230 167 m 0,0,1
 182 167 182 167 145.5 186.5 c 128,-1,2
 109 206 109 206 88 241 c 128,-1,3
 67 276 67 276 67 321 c 0,4,5
 67 362 67 362 86.5 396.5 c 128,-1,6
 106 431 106 431 142.5 452 c 128,-1,7
 179 473 179 473 230 473 c 0,8,9
 280 473 280 473 316.5 453 c 128,-1,10
 353 433 353 433 373 398.5 c 128,-1,11
 393 364 393 364 393 321 c 256,12,13
 393 278 393 278 373.5 243 c 128,-1,14
 354 208 354 208 317.5 187.5 c 128,-1,15
 281 167 281 167 230 167 c 0,0,1
230 237 m 0,16,17
 272 237 272 237 294.5 260.5 c 128,-1,18
 317 284 317 284 317 321 c 0,19,20
 317 357 317 357 293.5 380.5 c 128,-1,21
 270 404 270 404 230 404 c 0,22,23
 187 404 187 404 165 380 c 128,-1,24
 143 356 143 356 143 321 c 0,25,26
 143 284 143 284 166 260.5 c 128,-1,27
 189 237 189 237 230 237 c 0,16,17
EndSplineSet
EndChar

StartChar: uniA837
Encoding: 43063 43063 232
Width: 509
Flags: W
LayerCount: 2
Fore
SplineSet
221 86 m 0,0,1
 173 86 173 86 136 106 c 128,-1,2
 99 126 99 126 78 160.5 c 128,-1,3
 57 195 57 195 57 240 c 0,4,5
 57 266 57 266 65 289 c 128,-1,6
 73 312 73 312 95 337.5 c 128,-1,7
 117 363 117 363 158 395 c 2,8,-1
 453 623 l 1,9,-1
 499 565 l 1,10,-1
 407 492 l 2,11,12
 368 461 368 461 321.5 428 c 128,-1,13
 275 395 275 395 230.5 365.5 c 128,-1,14
 186 336 186 336 150 315 c 1,15,-1
 133 346 l 1,16,17
 146 362 146 362 170 376.5 c 128,-1,18
 194 391 194 391 222 391 c 0,19,20
 292 391 292 391 337.5 350 c 128,-1,21
 383 309 383 309 383 240 c 0,22,23
 383 197 383 197 363.5 162 c 128,-1,24
 344 127 344 127 307.5 106.5 c 128,-1,25
 271 86 271 86 221 86 c 0,0,1
220 156 m 0,26,27
 262 156 262 156 284.5 179.5 c 128,-1,28
 307 203 307 203 307 240 c 0,29,30
 307 276 307 276 283.5 299.5 c 128,-1,31
 260 323 260 323 220 323 c 0,32,33
 178 323 178 323 155.5 299 c 128,-1,34
 133 275 133 275 133 240 c 0,35,36
 133 203 133 203 156 179.5 c 128,-1,37
 179 156 179 156 220 156 c 0,26,27
EndSplineSet
EndChar

StartChar: uniA838
Encoding: 43064 43064 233
Width: 307
Flags: W
LayerCount: 2
Fore
SplineSet
-151 -104 m 1,0,1
 -127 -109 -127 -109 -104.5 -112 c 128,-1,2
 -82 -115 -82 -115 -63 -115 c 0,3,4
 26 -115 26 -115 75 -81 c 128,-1,5
 124 -47 124 -47 144 19 c 128,-1,6
 164 85 164 85 164 180 c 0,7,8
 164 258 164 258 154.5 337 c 128,-1,9
 145 416 145 416 130.5 488 c 128,-1,10
 116 560 116 560 101 615 c 1,11,-1
 182 633 l 1,12,13
 195 587 195 587 206.5 530.5 c 128,-1,14
 218 474 218 474 227 413 c 128,-1,15
 236 352 236 352 241 291.5 c 128,-1,16
 246 231 246 231 246 177 c 0,17,18
 246 105 246 105 234 39 c 128,-1,19
 222 -27 222 -27 190 -78 c 128,-1,20
 158 -129 158 -129 97.5 -158.5 c 128,-1,21
 37 -188 37 -188 -61 -188 c 0,22,23
 -83 -188 -83 -188 -110.5 -184.5 c 128,-1,24
 -138 -181 -138 -181 -157 -177 c 1,25,-1
 -151 -104 l 1,0,1
EndSplineSet
EndChar

StartChar: uniA839
Encoding: 43065 43065 234
Width: 337
Flags: W
LayerCount: 2
Fore
SplineSet
-155 -162 m 1,0,1
 -145 -163 -145 -163 -131.5 -164 c 128,-1,2
 -118 -165 -118 -165 -104 -165 c 0,3,4
 -23 -165 -23 -165 31.5 -149 c 128,-1,5
 86 -133 86 -133 117.5 -106 c 128,-1,6
 149 -79 149 -79 162.5 -44 c 128,-1,7
 176 -9 176 -9 176 29 c 0,8,9
 176 86 176 86 159 135.5 c 128,-1,10
 142 185 142 185 120.5 231 c 128,-1,11
 99 277 99 277 82 323.5 c 128,-1,12
 65 370 65 370 65 421 c 0,13,14
 65 480 65 480 95.5 521.5 c 128,-1,15
 126 563 126 563 181.5 590.5 c 128,-1,16
 237 618 237 618 313 633 c 1,17,-1
 337 558 l 1,18,19
 278 547 278 547 235 529.5 c 128,-1,20
 192 512 192 512 169 486 c 128,-1,21
 146 460 146 460 146 421 c 0,22,23
 146 381 146 381 163 339 c 128,-1,24
 180 297 180 297 201.5 249.5 c 128,-1,25
 223 202 223 202 240 148 c 128,-1,26
 257 94 257 94 257 30 c 0,27,28
 257 -4 257 -4 248.5 -41.5 c 128,-1,29
 240 -79 240 -79 217.5 -114 c 128,-1,30
 195 -149 195 -149 155 -177.5 c 128,-1,31
 115 -206 115 -206 52.5 -223 c 128,-1,32
 -10 -240 -10 -240 -100 -240 c 0,33,34
 -114 -240 -114 -240 -131 -239 c 128,-1,35
 -148 -238 -148 -238 -157 -237 c 1,36,-1
 -155 -162 l 1,0,1
EndSplineSet
EndChar

StartChar: uni200C
Encoding: 8204 8204 237
Width: 0
Flags: W
LayerCount: 2
Fore
SplineSet
-26 -166 m 1,0,-1
 -26 788 l 1,1,-1
 26 788 l 1,2,-1
 26 -166 l 1,3,-1
 -26 -166 l 1,0,-1
EndSplineSet
EndChar

StartChar: uni200D
Encoding: 8205 8205 238
Width: 0
Flags: W
LayerCount: 2
Fore
SplineSet
-26 -165 m 1,0,-1
 -26 585 l 1,1,-1
 -109 503 l 1,2,-1
 -146 539 l 1,3,-1
 -36 646 l 1,4,-1
 -146 752 l 1,5,-1
 -109 788 l 1,6,-1
 0 680 l 1,7,-1
 109 788 l 1,8,-1
 146 751 l 1,9,-1
 36 646 l 1,10,-1
 146 539 l 1,11,-1
 109 503 l 1,12,-1
 26 585 l 1,13,-1
 26 -165 l 1,14,-1
 -26 -165 l 1,0,-1
EndSplineSet
EndChar

StartChar: uni25CC
Encoding: 9676 9676 239
Width: 566
GlyphClass: 2
Flags: W
AnchorPoint: "Anchor-6" 378 0 basechar 0
AnchorPoint: "Anchor-5" 283 0 basechar 0
AnchorPoint: "Anchor-4" 323 622 basechar 0
LayerCount: 2
Fore
SplineSet
412 407 m 256,0,1
 383 407 383 407 383 436 c 256,2,3
 383 465 383 465 412 465 c 256,4,5
 441 465 441 465 441 436 c 256,6,7
 441 407 441 407 412 407 c 256,0,1
153 158 m 0,8,9
 125 158 125 158 125 187 c 256,10,11
 125 216 125 216 153 216 c 0,12,13
 182 216 182 216 182 187 c 256,14,15
 182 158 182 158 153 158 c 0,8,9
109 283 m 0,16,17
 80 283 80 283 80 312 c 0,18,19
 80 340 80 340 109 340 c 0,20,21
 137 340 137 340 137 312 c 0,22,23
 137 283 137 283 109 283 c 0,16,17
282 108 m 0,24,25
 254 108 254 108 254 137 c 256,26,27
 254 166 254 166 282 166 c 0,28,29
 312 166 312 166 312 137 c 256,30,31
 312 108 312 108 282 108 c 0,24,25
153 407 m 0,32,33
 125 407 125 407 125 436 c 256,34,35
 125 465 125 465 153 465 c 0,36,37
 182 465 182 465 182 436 c 256,38,39
 182 407 182 407 153 407 c 0,32,33
412 158 m 256,40,41
 383 158 383 158 383 187 c 256,42,43
 383 216 383 216 412 216 c 256,44,45
 441 216 441 216 441 187 c 256,46,47
 441 158 441 158 412 158 c 256,40,41
282 457 m 0,48,49
 254 457 254 457 254 486 c 0,50,51
 254 514 254 514 282 514 c 0,52,53
 312 514 312 514 312 486 c 0,54,55
 312 457 312 457 282 457 c 0,48,49
457 283 m 256,56,57
 428 283 428 283 428 312 c 0,58,59
 428 340 428 340 457 340 c 256,60,61
 486 340 486 340 486 312 c 0,62,63
 486 283 486 283 457 283 c 256,56,57
EndSplineSet
EndChar

